<svg viewBox="0 0 1050.5999755859375 400" xmlns="http://www.w3.org/2000/svg"><g><g><g><g><g><line x1="61.953125" y1="377" x2="56.953125" y2="377" style="visibility: inherit;" fill="rgb(0, 0, 0)" stroke="rgb(204, 204, 204)" stroke-width="1px"></line><line x1="61.953125" y1="342.7272727272727" x2="56.953125" y2="342.7272727272727" style="visibility: inherit;" fill="rgb(0, 0, 0)" stroke="rgb(204, 204, 204)" stroke-width="1px"></line><line x1="61.953125" y1="308.45454545454544" x2="56.953125" y2="308.45454545454544" style="visibility: inherit;" fill="rgb(0, 0, 0)" stroke="rgb(204, 204, 204)" stroke-width="1px"></line><line x1="61.953125" y1="274.1818181818182" x2="56.953125" y2="274.1818181818182" style="visibility: inherit;" fill="rgb(0, 0, 0)" stroke="rgb(204, 204, 204)" stroke-width="1px"></line><line x1="61.953125" y1="239.9090909090909" x2="56.953125" y2="239.9090909090909" style="visibility: inherit;" fill="rgb(0, 0, 0)" stroke="rgb(204, 204, 204)" stroke-width="1px"></line><line x1="61.953125" y1="205.63636363636363" x2="56.953125" y2="205.63636363636363" style="visibility: inherit;" fill="rgb(0, 0, 0)" stroke="rgb(204, 204, 204)" stroke-width="1px"></line><line x1="61.953125" y1="171.36363636363637" x2="56.953125" y2="171.36363636363637" style="visibility: inherit;" fill="rgb(0, 0, 0)" stroke="rgb(204, 204, 204)" stroke-width="1px"></line><line x1="61.953125" y1="137.0909090909091" x2="56.953125" y2="137.0909090909091" style="visibility: inherit;" fill="rgb(0, 0, 0)" stroke="rgb(204, 204, 204)" stroke-width="1px"></line><line x1="61.953125" y1="102.81818181818181" x2="56.953125" y2="102.81818181818181" style="visibility: inherit;" fill="rgb(0, 0, 0)" stroke="rgb(204, 204, 204)" stroke-width="1px"></line><line x1="61.953125" y1="68.54545454545453" x2="56.953125" y2="68.54545454545453" style="visibility: inherit;" fill="rgb(0, 0, 0)" stroke="rgb(204, 204, 204)" stroke-width="1px"></line><line x1="61.953125" y1="34.27272727272729" x2="56.953125" y2="34.27272727272729" style="visibility: inherit;" fill="rgb(0, 0, 0)" stroke="rgb(204, 204, 204)" stroke-width="1px"></line><line x1="61.953125" y1="0" x2="56.953125" y2="0" style="visibility: inherit;" fill="rgb(0, 0, 0)" stroke="rgb(204, 204, 204)" stroke-width="1px"></line></g><g transform="translate(51.953125, 0)"><text x="0" y="377" dx="0em" dy="0.3em" style="text-anchor: end; visibility: hidden; font-family: Roboto, sans-serif; font-size: 12px; font-weight: 200;" fill="rgb(33, 33, 33)" stroke="none" stroke-width="1px">-1e+3</text><text x="0" y="342.7272727272727" dx="0em" dy="0.3em" style="text-anchor: end; visibility: inherit; font-family: Roboto, sans-serif; font-size: 12px; font-weight: 200;" fill="rgb(33, 33, 33)" stroke="none" stroke-width="1px">0</text><text x="0" y="308.45454545454544" dx="0em" dy="0.3em" style="text-anchor: end; visibility: inherit; font-family: Roboto, sans-serif; font-size: 12px; font-weight: 200;" fill="rgb(33, 33, 33)" stroke="none" stroke-width="1px">1e+3</text><text x="0" y="274.1818181818182" dx="0em" dy="0.3em" style="text-anchor: end; visibility: inherit; font-family: Roboto, sans-serif; font-size: 12px; font-weight: 200;" fill="rgb(33, 33, 33)" stroke="none" stroke-width="1px">2e+3</text><text x="0" y="239.9090909090909" dx="0em" dy="0.3em" style="text-anchor: end; visibility: inherit; font-family: Roboto, sans-serif; font-size: 12px; font-weight: 200;" fill="rgb(33, 33, 33)" stroke="none" stroke-width="1px">3e+3</text><text x="0" y="205.63636363636363" dx="0em" dy="0.3em" style="text-anchor: end; visibility: inherit; font-family: Roboto, sans-serif; font-size: 12px; font-weight: 200;" fill="rgb(33, 33, 33)" stroke="none" stroke-width="1px">4e+3</text><text x="0" y="171.36363636363637" dx="0em" dy="0.3em" style="text-anchor: end; visibility: inherit; font-family: Roboto, sans-serif; font-size: 12px; font-weight: 200;" fill="rgb(33, 33, 33)" stroke="none" stroke-width="1px">5e+3</text><text x="0" y="137.0909090909091" dx="0em" dy="0.3em" style="text-anchor: end; visibility: inherit; font-family: Roboto, sans-serif; font-size: 12px; font-weight: 200;" fill="rgb(33, 33, 33)" stroke="none" stroke-width="1px">6e+3</text><text x="0" y="102.81818181818181" dx="0em" dy="0.3em" style="text-anchor: end; visibility: inherit; font-family: Roboto, sans-serif; font-size: 12px; font-weight: 200;" fill="rgb(33, 33, 33)" stroke="none" stroke-width="1px">7e+3</text><text x="0" y="68.54545454545453" dx="0em" dy="0.3em" style="text-anchor: end; visibility: inherit; font-family: Roboto, sans-serif; font-size: 12px; font-weight: 200;" fill="rgb(33, 33, 33)" stroke="none" stroke-width="1px">8e+3</text><text x="0" y="34.27272727272729" dx="0em" dy="0.3em" style="text-anchor: end; visibility: inherit; font-family: Roboto, sans-serif; font-size: 12px; font-weight: 200;" fill="rgb(33, 33, 33)" stroke="none" stroke-width="1px">9e+3</text><text x="0" y="0" dx="0em" dy="0.3em" style="text-anchor: end; visibility: hidden; font-family: Roboto, sans-serif; font-size: 12px; font-weight: 200;" fill="rgb(33, 33, 33)" stroke="none" stroke-width="1px">1e+4</text></g><line x1="61.953125" y1="0" x2="61.953125" y2="377" fill="rgb(0, 0, 0)" stroke="rgb(204, 204, 204)" stroke-width="1px"></line></g></g><g transform="translate(61, 0)" clip-path="url(#clip_0)"><clipPath id="clip_0"><rect width="988" height="377"></rect></clipPath><g><g><g><line x1="0" y1="0" x2="0" y2="377" fill="rgb(0, 0, 0)" stroke="rgb(66, 66, 66)" stroke-width="1px" opacity="0.25"></line><line x1="82.38723958333333" y1="0" x2="82.38723958333333" y2="377" fill="rgb(0, 0, 0)" stroke="rgb(66, 66, 66)" stroke-width="1px" opacity="0.25"></line><line x1="164.77447916666665" y1="0" x2="164.77447916666665" y2="377" fill="rgb(0, 0, 0)" stroke="rgb(66, 66, 66)" stroke-width="1px" opacity="0.25"></line><line x1="247.16171874999998" y1="0" x2="247.16171874999998" y2="377" fill="rgb(0, 0, 0)" stroke="rgb(66, 66, 66)" stroke-width="1px" opacity="0.25"></line><line x1="329.5489583333333" y1="0" x2="329.5489583333333" y2="377" fill="rgb(0, 0, 0)" stroke="rgb(66, 66, 66)" stroke-width="1px" opacity="0.25"></line><line x1="411.93619791666663" y1="0" x2="411.93619791666663" y2="377" fill="rgb(0, 0, 0)" stroke="rgb(66, 66, 66)" stroke-width="1px" opacity="0.25"></line><line x1="494.32343749999995" y1="0" x2="494.32343749999995" y2="377" fill="rgb(0, 0, 0)" stroke="rgb(66, 66, 66)" stroke-width="1px" opacity="0.25"></line><line x1="576.7106770833333" y1="0" x2="576.7106770833333" y2="377" fill="rgb(0, 0, 0)" stroke="rgb(66, 66, 66)" stroke-width="1px" opacity="0.25"></line><line x1="659.0979166666666" y1="0" x2="659.0979166666666" y2="377" fill="rgb(0, 0, 0)" stroke="rgb(66, 66, 66)" stroke-width="1px" opacity="0.25"></line><line x1="741.4851562499999" y1="0" x2="741.4851562499999" y2="377" fill="rgb(0, 0, 0)" stroke="rgb(66, 66, 66)" stroke-width="1px" opacity="0.25"></line><line x1="823.8723958333333" y1="0" x2="823.8723958333333" y2="377" fill="rgb(0, 0, 0)" stroke="rgb(66, 66, 66)" stroke-width="1px" opacity="0.25"></line><line x1="906.2596354166666" y1="0" x2="906.2596354166666" y2="377" fill="rgb(0, 0, 0)" stroke="rgb(66, 66, 66)" stroke-width="1px" opacity="0.25"></line><line x1="988.6468749999999" y1="0" x2="988.6468749999999" y2="377" fill="rgb(0, 0, 0)" stroke="rgb(66, 66, 66)" stroke-width="1px" opacity="0.25"></line></g><g><line x1="0" y1="377" x2="988.6468749999999" y2="377" fill="rgb(0, 0, 0)" stroke="rgb(66, 66, 66)" stroke-width="1px" opacity="0.25"></line><line x1="0" y1="342.7272727272727" x2="988.6468749999999" y2="342.7272727272727" fill="rgb(0, 0, 0)" stroke="rgb(66, 66, 66)" stroke-width="1px" opacity="0.25"></line><line x1="0" y1="308.45454545454544" x2="988.6468749999999" y2="308.45454545454544" fill="rgb(0, 0, 0)" stroke="rgb(66, 66, 66)" stroke-width="1px" opacity="0.25"></line><line x1="0" y1="274.1818181818182" x2="988.6468749999999" y2="274.1818181818182" fill="rgb(0, 0, 0)" stroke="rgb(66, 66, 66)" stroke-width="1px" opacity="0.25"></line><line x1="0" y1="239.9090909090909" x2="988.6468749999999" y2="239.9090909090909" fill="rgb(0, 0, 0)" stroke="rgb(66, 66, 66)" stroke-width="1px" opacity="0.25"></line><line x1="0" y1="205.63636363636363" x2="988.6468749999999" y2="205.63636363636363" fill="rgb(0, 0, 0)" stroke="rgb(66, 66, 66)" stroke-width="1px" opacity="0.25"></line><line x1="0" y1="171.36363636363637" x2="988.6468749999999" y2="171.36363636363637" fill="rgb(0, 0, 0)" stroke="rgb(66, 66, 66)" stroke-width="1px" opacity="0.25"></line><line x1="0" y1="137.0909090909091" x2="988.6468749999999" y2="137.0909090909091" fill="rgb(0, 0, 0)" stroke="rgb(66, 66, 66)" stroke-width="1px" opacity="0.25"></line><line x1="0" y1="102.81818181818181" x2="988.6468749999999" y2="102.81818181818181" fill="rgb(0, 0, 0)" stroke="rgb(66, 66, 66)" stroke-width="1px" opacity="0.25"></line><line x1="0" y1="68.54545454545453" x2="988.6468749999999" y2="68.54545454545453" fill="rgb(0, 0, 0)" stroke="rgb(66, 66, 66)" stroke-width="1px" opacity="0.25"></line><line x1="0" y1="34.27272727272729" x2="988.6468749999999" y2="34.27272727272729" fill="rgb(0, 0, 0)" stroke="rgb(66, 66, 66)" stroke-width="1px" opacity="0.25"></line><line x1="0" y1="0" x2="988.6468749999999" y2="0" fill="rgb(0, 0, 0)" stroke="rgb(66, 66, 66)" stroke-width="1px" opacity="0.25"></line></g></g></g><g><g><line x1="0" y1="342.7272727272727" x2="988.6468749999999" y2="342.7272727272727" fill="rgb(0, 0, 0)" stroke="rgb(153, 153, 153)" stroke-width="1.5px"></line></g></g><g><g><line x1="82.38723958333333" y1="0" x2="82.38723958333333" y2="377" fill="rgb(0, 0, 0)" stroke="rgb(153, 153, 153)" stroke-width="1.5px"></line></g></g><g><g><g><g><g><path stroke="rgb(51, 187, 238)" stroke-width="2px" d="M83.12872473958332,339.58177833973275L84.32333971354166,340.5449255974509L84.94124401041667,339.90497775129836L84.98243763020832,340.5415379912636L86.05347174479166,340.52560116785224L86.63018242187499,340.8414029135271L86.79495690104166,340.2278952872536L87.66002291666666,340.8452873320146L89.14299322916666,341.80586829272187L89.47254218749998,341.52186214204266L90.25522096354165,341.80447028905695L90.74954440104165,341.51267686705154L92.43848281249998,341.5234018679532L93.056387109375,341.50790746896917L94.00384036458333,341.8052966970964L94.12742122395834,341.8035504672311L95.528004296875,341.8058665931008L97.46410442708331,341.80597353848543L98.28797682291666,341.51334272627395L98.94707473958331,339.87883836434105L99.482591796875,339.87997083490546L100.38885143229166,339.561510751204L101.54227278645833,336.0501614324396L101.95420898437499,332.86081473055754L102.20137070312498,335.0964815868031L103.39598567708333,328.3674915826971L104.34343893229166,332.23491595181554L104.54940703124998,332.8611264149059L104.63179427083332,287.3355085005327L105.29089218749999,331.9024177828702L105.53805390624998,312.65627011385834L106.85624973958333,320.36025373424184L106.93863697916665,327.0883850375089L108.627575390625,22.528695312500002L108.87473710937499,22.52792551491476L108.91593072916665,22.44468696732954L109.49264140624999,22.447799627130692L110.19293294270832,22.580037464488644L112.087839453125,23.092756125710235L113.85916510416666,23.07843119673296L114.312294921875,23.137504794034083L115.50690989583332,23.18158407315343L117.69017174479166,23.206953924005695L118.06091432291666,23.191825727982955L118.88478671874998,23.22710253906252L121.19162942708333,22.3678076171875L123.53966575520833,22.800400390624983L124.19876367187497,22.71950470525567L124.65189348958332,22.52665367542615L125.10502330729165,263.94519213867187L125.88770208333331,301.52092421653055L126.50560638020833,22.409778320312512L128.07096393229165,22.853382546164763L128.153351171875,23.189616743607967L128.73006184895834,317.83958501087534L129.0184171875,303.45842524857954L129.80109596354166,143.12911767578126L129.84228958333333,291.9697108820135L130.3366130208333,22.78630974786932L130.74854921875,22.89736141690341L130.83093645833333,23.295815340909108L131.16048541666663,264.95171921608664L132.5610684895833,22.805655095880685L133.9616515625,22.917677379261374L134.04403880208332,22.83550985440341L134.1676196614583,22.839358842329542L134.33239414062498,22.70722141335229L134.57955585937498,22.770746448863655L134.74433033854166,22.6942352627841L136.96878580729165,23.126526811079533L137.79265820312497,259.8844094682173L139.028466796875,22.33584428267044L139.06966041666664,22.4854862393466L140.758598828125,22.90492551491476L142.40634361979167,22.808566938920436L142.44753723958334,22.840563742897714L143.93050755208333,22.59211993963067L144.58960546874997,22.696812411221583L144.713186328125,22.742832919034083L146.15496302083332,22.604737926136366L146.2785438802083,22.718400213068197L146.85525455729163,22.962292169744302L146.97883541666667,22.999878373579556L147.679126953125,23.094128373579544L148.13225677083332,23.098077769886377L149.409258984375,22.555203125000002L149.73880794270832,22.6871397372159L151.18058463541666,22.980800781249986L151.79848893229163,23.116385564630704L152.49878046874997,22.294509499289752L152.5811677083333,22.336647549715902L152.869523046875,22.291229492187508L155.58830195312498,23.13780601917614L158.47185533854164,22.81639879261362L159.0073723958333,23.20635147372159L159.29572773437496,22.39465012428977L160.61392356770833,22.38986399147726L160.7375044270833,22.43293918678979L161.02585976562497,22.65621395596592L162.30286197916664,23.183592240767062L163.12673437499998,22.767232155539794L163.16792799479165,22.772286044034097L163.90941315104166,23.102830433238626L167.6580325520833,22.565879882812503L168.02877513020832,247.37449584960936L168.440711328125,22.470826615767052L168.89384114583333,22.947933771306808L173.383945703125,22.732557794744338L174.619754296875,23.136601118607967L177.91524388020832,23.123012517755672L179.562988671875,23.042484996448852L181.0047653645833,23.272788352272748L182.73489739583331,22.610360795454557L182.94086549479164,22.67495685369318L183.4763825520833,42.251244140624976L183.80593151041666,23.16953506747158L183.92951236979164,23.177132634943188L184.753384765625,23.044526633522747L185.49486992187497,22.426278764204557L186.07158059895832,22.616786931818172L186.60709765624998,22.974541992187508L188.54319778645834,22.59426198508522L188.58439140624998,22.6084865056818L189.44945742187497,22.482239701704533L190.60287877604165,23.532812588778413L190.93242773437498,23.507275390625008L191.26197669270832,23.458142223011357L192.95091510416663,22.909209605823865L193.32165768229166,22.744941495028417L193.93956197916663,22.753409268465926L194.31030455729166,22.399737482244337L195.01059609375,308.5720148925781L195.2577578125,303.7787321666371L195.79327486979165,22.550249644886357L195.83446848958332,22.496296875000017L195.87566210937499,22.558717418323866L196.28759830729166,22.775967684659093L196.41117916666664,22.72874227627842L197.11147070312498,22.291865411931834L198.2236984375,22.43896368963069L199.12995807291665,22.547705965909092L199.54189427083332,23.3138553799716L200.24218580729166,22.761308061079546L202.71380299479165,22.658657226562486L203.9908052083333,22.456702503551128L204.1143860677083,22.447699218749992L204.40274140624996,22.787313831676137L204.8558712239583,321.0200476629084L207.36868203124996,22.864996448863643L209.38716940104163,22.687909534801143L209.42836302083333,22.86375807883521L210.21104179687498,22.494422585227255L210.25223541666665,22.495694424715907L210.29342903645832,22.528929598721575L210.91133333333332,22.632651455965892L211.941173828125,22.35221084872161L213.09459518229164,22.305721768465922L213.8772739583333,22.827711470170446L214.16562929687498,286.5369815673828L214.907114453125,23.253074840198853L215.03069531249997,22.409209339488623L215.895761328125,22.60711425781249L216.88440820312496,22.65313476562499L217.00798906249997,22.641085759943184L218.5733466145833,332.23042058493877L219.97392968749998,22.342738991477287L220.63302760416667,22.41824609375002L222.61032135416664,23.26515731534092L224.95835768229165,22.436219193892033L225.86461731770834,22.656582120028414L225.90581093749998,22.49783647017046L226.19416627604164,22.505099343039756L226.56490885416665,23.12712926136364L227.63594296875,322.3199345592152L229.28368776041663,22.471830699573868L229.40726861979167,22.58017134232956L230.68427083333333,22.956501953125017L231.34336875,23.044693980823883L232.90872630208332,22.98116894531252L233.0323071614583,22.843475585937508L233.11469440104165,22.722751242897736L233.197081640625,22.69657812500001L233.32066249999997,22.94873703835227L233.48543697916665,23.220676402698864L233.60901783854166,23.243201349431814L234.3916966145833,23.525917879971608L235.29795624999997,23.1306435546875L237.31644361979164,23.102495738636357L238.18150963541666,23.100219815340928L240.90028854166664,22.33808673650569L240.98267578124998,22.430194691051128L241.76535455729163,22.853248668323847L243.12474401041666,22.448904119318165L243.49548658854164,22.580706853693187L243.66026106770832,22.680378906250017L243.9074227864583,22.948536221590913L244.40174622395833,22.633086558948865L244.5253270833333,22.910916548295443L246.1318782552083,22.99438938210228L247.6560421875,280.45748003595526L247.7384294270833,241.8090517578125L248.1091720052083,22.619397549715913L248.56230182291665,22.9917118252841L248.80946354166662,22.750397017045472L249.0978188802083,22.81281756036932L250.6219828125,22.493050337357946L251.65182330729164,22.57123499644886L251.89898502604166,22.73011452414773L252.14614674479165,73.4839738103693L252.26972760416663,22.904758167613622L253.1759872395833,22.364728426846607L254.61776393229164,196.53754026100853L255.07089374999998,23.561931019176154L256.5126704427083,22.235636718749983L257.7484790364583,22.387353781960215L260.26128984375,23.370653053977254L260.6732260416666,22.392608487215917L263.4331985677083,276.9088721479936L265.4104923177083,23.123815784801135L265.8636221354167,22.3677072088068L268.788369140625,22.352746360085238L269.2003053385416,23.03023517400569L269.3650798177083,22.953523171164782L270.3949203125,23.11380841619318L272.24863320312494,333.17949419611153L272.3722140625,332.856099720348L273.89637799479164,327.79855468750003L275.4205419270833,308.2474489857067L275.58531640624994,22.353850852272714L275.6677036458333,321.9711012018377L275.9148653645833,79.29067413884943L276.2856079427083,22.886517311789778L277.23306119791664,307.2623800159801L279.1279677083333,300.26737160422584L279.16916132812497,311.73990139493077L280.40496992187497,325.8340343877619L281.3524231770833,336.09585770485614L281.43481041666666,328.0550123346502L281.5583912760416,341.19515000603417L281.5995848958333,321.021834095348L281.92913385416665,337.98633728304776L283.49449140625,320.7234433982156L284.6479127604166,339.90419409526476L285.43059153645834,334.47392452448065L285.88372135416665,338.9288270853216L286.2544639322916,338.9501892297918L287.5314661458333,341.1997346683849L287.98459596354166,341.4974715343822L290.29143867187497,341.196173962333L291.07411744791665,334.19945455516466L291.6096345052083,340.56624302881414L291.98037708333334,341.4942091771906L292.0627643229166,339.90049624287L293.79289635416666,341.5005479791815L293.95767083333334,339.5792887871482L294.12244531249996,341.50222014479203L294.5755751302083,341.5077377683466L294.6991559895833,341.18291521870003L294.74034960937496,341.49647581794045L296.0585454427083,341.189259119554L296.59406249999995,341.2022420016202L297.33554765625,341.1925843627236L297.62390299479165,341.49580054543236L298.1594200520833,341.49814994465225L298.7773243489583,341.4961322330128L299.1480669270833,340.201628036499L299.27164778645835,341.496567728216L300.5074563802083,341.5077853577354L301.4961032552083,340.20900752951883L301.61968411458326,341.50987288457696L301.7020713541666,341.5103976752541L301.86684583333334,340.8496540506536L303.26742890625,341.1824070320129L303.59697786458327,341.19634863107854L304.9563673177083,340.20857870205964L306.6864993489583,339.8891074745872L307.0572419270833,340.8464615086642L307.26321002604163,340.5333877854781L309.322891015625,340.8612006222118L309.81721445312496,340.54616318303886L311.7121209635417,340.84927817292646L315.8314829427083,341.1812380849665L318.4266809895833,341.50959728449044L319.58010234374996,341.5072183380127L320.5275555989583,340.54498037754405L322.62843020833327,340.5375026987249L324.02901328124995,340.5509744179465L324.5645303385416,340.861116556341L327.4068901041666,340.54952241862907L327.7364390625,340.85412836837764L328.0659880208333,340.53322749814123L328.7662795572916,340.5505364386819L329.4253774739583,341.5119576658769L329.9197009114583,341.5021698098616L331.4026712239583,340.8499992044622L331.73222018229166,340.5450320198753L332.7620606770833,340.8469384484725L334.1214501302083,341.5001489604603L334.20383736979164,340.85096288958465L335.02770976562493,340.85432042555374L335.23367786458334,341.16563347209586L335.3160651041666,340.8509417096918L335.39845234374997,340.8440738026012L338.8175227864583,340.54815487740257L339.55900794270826,341.50939646772906L341.0419782552083,340.8509482466958L341.1243654947917,340.8468309801275L341.9070442708333,341.4817598453868L343.22524010416663,341.50515865880794L343.30762734374997,340.5599358659224L344.29627421875,340.85155069697987L344.3374678385416,340.8468253583041L344.54343593749996,341.51730127438634L344.7494040364583,340.84481300700793L349.0335404947916,340.8471370426525L349.77502565104163,340.84353227719396L351.2991895833333,340.55061056830664L351.42277044270827,341.19038008499143L352.04067473958327,340.53102897297254L352.2466428385416,341.5067011302601L352.78215989583333,340.5378355629661L352.9881279947916,340.85091909165817L353.6472259114583,340.8451001122215L353.85319401041664,340.8449275353172L354.2239365885416,340.5713069842945L354.8830345052083,340.53842114777996L356.28361757812496,340.5368869129528L357.272264453125,340.845033173301L359.2083645833333,340.5302502850619L359.62030078124997,340.54303235036673L359.78507526041665,340.5366978627985L360.44417317708326,341.48400935918636L360.89730299479163,340.8462729814703L362.58624140625,339.567407913208L364.23398619791664,340.8461180544766L364.56353515625,340.570351405057L364.934277734375,340.5242786012129L365.59337565104164,340.8424447812167L367.28231406249995,341.1882934733304L367.40589492187496,341.167002189983L367.8590247395833,341.1734549973228L369.7127376302083,340.55331911052355L370.37183554687493,340.84639914564656L370.57780364583334,341.80783959163324L370.6601908854166,340.84813014429267L371.4840632812499,340.5324992759011L372.96703359374993,341.5086337301081L375.562231640625,341.8064770838997L375.6858125,340.5418196053938L375.93297421874996,340.8502903626182L377.4983317708333,341.1747761258212L378.07504244791664,341.48402164875375L378.1574296875,341.1804226590937L379.26965742187497,340.8521205929843L381.1645639322916,340.5398743237582L382.02962994791665,340.8507488680753L383.43021302083326,341.8075532054901L384.50124713541663,340.5332544305975L384.6660216145833,340.5421413567283L385.2839259114583,340.54574612218687L385.86063658854164,340.53357291342996L388.2086729166666,340.84939100161466L388.661802734375,341.1731288008256L388.7029963541666,341.4849878179377L389.85641770833325,341.1677117163918L390.0211921875,341.80433503844523L390.10357942708333,340.86932598738235L390.5979028645833,341.4848335446444L391.5865497395833,340.8614443217191L392.08087317708333,341.513230289806L392.4104221354166,340.5280938581987L392.65758385416666,341.16506096128984L393.110713671875,340.5282149235119L393.44026263020834,340.85109166856245L393.5226498697916,341.8068388416984L395.1703946614583,341.1747723343589L395.5411372395833,340.8548292659413L395.62352447916663,340.2231329491355L395.74710533854164,340.54006585797396L397.0241075520833,340.85719866839327L397.2712692708333,340.5525843512795L397.9303671875,340.8399565360329L400.6903397135416,340.850046793851L400.81392057291663,340.2144800477462L401.88495468749994,340.531600568598L403.4503122395833,341.5167343854037L403.49150585937497,341.807940261494L404.5625399739583,340.2091427147605L405.2628315104166,340.220535928206L405.4276059895833,339.2707798538208L405.7571549479166,340.54965982645206L405.96312304687495,340.85560599275067L406.0043166666666,340.5564916492809L406.2514783854166,340.8565228729248L407.61086783854165,340.8603827122775L407.8580295572916,340.85780399495906L409.0114509114583,340.5543169188066L411.3594872395833,340.84900466468116L413.8311044270833,340.2138966855136L414.1606533854166,340.544515335083L415.1493002604166,340.85728090390296L415.89078541666663,341.803001032049L416.96181953125,340.5531699360934L417.86807916666663,340.5265550474687L418.6507579427083,339.9027209160545L418.6919515624999,340.84840495993876L419.84537291666663,341.1668360193426L420.83401979166666,341.48062802852286L421.3695368489583,341.16348959628016L422.44057096354163,339.8929765964855L423.3468305989583,341.1686161762584L423.5939923177083,340.54907515681873L423.92354127604165,340.8593919639587L424.12950937499994,341.16576421217485L426.4363520833333,341.51395759686557L426.8894819010416,340.2207336072055L427.46619257812495,340.5514867883162L428.2900649739583,341.8071089507016L428.8667756510416,340.8472751041759L429.07274375,341.1669189085527L432.16226523437496,340.8670333293568L433.39807382812495,340.8663574031483L434.5103015625,340.85809436867453L434.75746328124995,339.89569337532737L435.12820585937493,341.16729870848224L437.3938549479166,339.896576393821L437.7645975260416,340.5352960676713L439.08279335937493,340.856900450273L439.2475678385416,340.5327730456266L440.5245700520833,341.1705997647372L440.7717317708333,341.16544154565986L441.5132169270833,341.1927377208363L441.7603786458333,341.1736966049888L442.9138,340.543934587652L442.9961872395833,340.8452494173917L443.90244687499995,338.9245380262895L443.9848341145833,340.54194184736775L445.8385470052083,340.5249105987549L446.250483203125,340.84954998155075L447.56867903645826,341.5188987874118L447.77464713541667,341.51125166945025L448.0630024739583,340.53584975190597L448.5161322916666,341.4814718249928L449.71074726562495,340.2236355139992L449.8755217447916,340.8709642913125L452.5119134114583,341.1788756117387L452.71788151041665,340.85136465384744L453.3769794270833,340.8558476004167L454.4892071614583,340.54204866201223L455.14830507812496,340.53574816686455L455.51904765624994,340.8469495613792L456.0133710937499,340.8582137343667L457.9494712239583,340.8611224396446L458.11424570312494,340.8615200202248L459.39124791666666,341.1741625626304L460.95660546874996,341.8084513898329L461.4921225260416,341.8042756824494L461.86286510416664,340.8510813400962L462.2748013020833,340.86652893413196L462.43957578124997,341.80497442280165L463.5106098958333,340.85635800968515L465.11716106770825,341.1671665302623L465.6114845052083,341.16167505472356L465.69387174479164,340.5339993875677L465.98222708333327,340.86911824139685L466.60013138020827,340.53978450532395L467.3416165364583,341.1692758906971L467.9183272135416,340.8528379637978L468.1654889322916,340.85612019348144L468.45384427083326,340.86180581803757L468.6598123697916,340.54207755556973L469.07174856770825,340.8678517622514L471.3785912760416,340.52780675298516L471.9141083333333,341.16993717401675L473.23230416666667,340.5377551578175L473.31469140624995,340.86028191167657L475.29198515624995,339.89452089829877L475.662727734375,340.54999530549486L476.03347031249996,341.1708947143554L476.4454065104166,340.8672975550565L477.5576342447916,340.85308963844994L478.13434492187497,340.84873873936044L480.77073658854164,340.8571206165661L480.8119302083333,341.17209647716174L481.63580260416666,341.8073171542774L482.13012604166664,340.8620602382313L482.45967499999995,341.48290565143935L484.1486134114583,340.5324158637307L484.18980703125,340.86616155451L484.93129218749993,340.5399772162004L486.6202305989583,340.5481346126903L487.0733604166666,340.8619113252813L487.60887747395833,341.16894119609486L488.14439453125,340.53857071443036L488.84468606770827,340.5384279462641L489.95691380208325,340.8859723372026L490.36884999999995,340.5660501871976L490.86317343749994,340.8846650671525L490.9043670572916,340.8533783125444L492.18136927083333,341.1687696651112L492.22256289062494,340.8644648097645L492.2637565104166,341.51396230350844L492.6756927083333,340.847880822962L493.211209765625,340.52836815088443L493.45837148437494,341.51057744286277L493.7879204427083,341.80681465478375L494.03508216145826,340.8520369193337L496.91863554687495,341.1740014908531L498.03086328125,340.8532151489258L499.30786549479166,340.8559882767417L499.51383359374995,340.8480429406599L500.00815703125,340.543772339214L502.19141888020823,340.86024530445445L502.8917104166667,341.48460736430775L503.18006575520826,340.88032580393013L505.40452122395834,340.8542996378812L505.85765104166666,341.1665362323414L508.4116554687499,340.5697748413086L508.535236328125,340.86209174659035L508.5764299479166,340.8779906553789L510.5949173177083,339.58012133997136L512.6545983072916,341.48674391867894L512.9017600260416,341.8057212101329L512.9429536458333,340.867935435902L513.1901153645833,341.4912616421093L514.9614410156249,340.86249429529363L515.6617325520832,340.88642430565574L517.0211220052082,340.8587237514149L517.433058203125,340.86981652415886L517.927381640625,340.52579544760965L518.8748348958334,340.22086931540747L519.6163200520832,341.48697402121803L520.398998828125,340.2099279396751L520.8109350260416,340.53994165489894L520.893322265625,340.8553128734935L523.4473266927083,341.8063841277036L523.8592628906249,341.1701955164129L524.1476182291666,340.8688680048856L524.353586328125,340.5453854103088L525.0126842447916,340.53276258642023L525.3010395833332,340.5291991348267L526.0837183593749,341.8084553774053L529.0084653645833,340.53381504405627L531.274114453125,340.84994730065085L534.5284104166666,340.86072485906425L536.4233169270833,340.8836008429094L536.464510546875,341.1669262299971L536.6704786458332,340.8597998730053L537.0000276041667,341.50910021071L537.7415127604166,340.53656803790005L539.3892575520832,339.25132102342087L540.3779044270833,340.850702063127L540.6250661458332,340.53669459429653L540.666259765625,340.86200663479895L542.0668428385416,340.54549183273315L542.5199726562499,340.85895568431505L544.0853302083333,340.52842070839625L544.2501046875,340.567235607494L544.4972664062499,341.1832265108282L544.7856217447916,340.86940247032857L544.8268153645834,340.87306515364213L546.0626239583333,339.91225212929464L549.1109518229166,341.19509156521883L549.1521454427084,340.5411955829967L551.7473434895833,338.6585172653198L552.1592796875,334.56392390303176L552.3652477864583,339.26937204464997L553.7658308593749,341.19302704863117L553.9717989583334,340.22613081914733L554.0541861979166,339.909246153398L554.507316015625,339.9125277293812L554.5897032552083,340.8584549498124L557.1849013020833,340.216612679915L558.9974205729167,340.5509634357799L559.3269695312499,340.2451341511119L560.6863589843749,340.55736185524677L564.1878166666665,341.8027387674505L565.8355614583334,340.85621171153673L566.6594338541667,340.87848655249854L567.0301764322916,340.8608182074807L567.8952424479166,341.48609649380774L569.1722446614583,341.17302237840136L569.2546319010416,341.8092810010043L569.4194063802083,339.9305314227018L570.2844723958333,341.5187090835571L570.4080532552083,340.8507530517578L570.572827734375,340.8669155325456L571.2319256510417,341.16973975649745L571.6026682291666,341.51105529785156L571.8498299479166,340.8584417450645L573.3739938802083,340.85469303477896L574.280253515625,341.1794963656339L574.8569641927082,340.8725170912309L575.4748684895833,339.8937194616144L575.5572557291666,341.48593738313156L575.763223828125,340.565200376684L577.2050005208332,341.1675884284973L577.8229048177083,340.8596462534124L579.0587134114584,340.5586425850608L579.3058751302083,340.8870836278742L579.5118432291665,341.1686135614569L579.8413921875,341.17137335378476L582.2718157552083,341.16725857127796L583.9195605468749,340.863257686615L584.0843350260417,341.80687747539173L585.3613372395832,340.5623265790072L586.391177734375,340.5698751189492L586.8443075520833,340.86377868582986L587.5034054687499,340.55746435546877L587.8741480468749,339.9134073486328L589.1511502604166,340.55862062072754L589.2335374999999,339.26380225580385L589.3983119791666,341.4986555165377L589.7278609374999,340.86814998037164L590.9224759114583,340.85969632686266L591.2932184895833,341.4984764026295L591.7875419270833,340.23630082841356L591.9523164062499,340.87203361441874L592.94096328125,341.5055375435569L593.1057377604166,340.864813101335L593.1881249999999,339.9081453219327L594.053191015625,339.5715262256969L594.0943846354166,340.5374867484353L594.7122889322916,340.8517051010132L594.9594506510416,341.49458191715587L595.2066123697916,340.8510231607611L596.3188401041666,340.22164460407606L596.40122734375,340.8558791087757L596.4836145833333,340.5541489178051L599.5319424479167,341.1698754646995L601.4680425781249,340.8687085019892L603.4041427083332,341.4837690589211L603.6101108072916,340.85158390495997L604.6811449218749,340.8575533662276L605.8757598958333,340.8656025099321L608.9240877604166,341.4924100629633L609.2948303385416,340.8519667119113L611.6016730468749,340.2184085256403L612.0548028645833,340.86470236448804L613.8261285156249,340.87431267547606L613.9909029947917,341.5037220868197L614.69119453125,340.8590798873901L615.5974541666667,341.5172640134638L616.7508755208333,340.8658303898898L616.9156499999999,341.8083084909266L617.7807160156249,341.4979356616627L618.3162330729166,340.86993432097L618.89294375,341.80894552196156L619.0577182291665,341.5107124973644L619.3872671874999,341.5015558544506L619.4284608072916,340.2213266442039L619.8403970052083,340.5582129731612L619.881590625,341.513190544822L621.5293354166666,340.5431926377036L621.6941098958333,340.86342882537843L625.6486973958333,340.8823065161272L626.55495703125,340.8579040111195L627.2552485677082,340.86488304727726L627.5436039062499,341.80460534355853L627.914346484375,341.80615409053456L628.2027018229165,341.8017486728321L628.6558316406249,340.87490466655385L630.4271572916666,341.8035055580139L632.2808701822917,341.1689303446683L633.8874213541666,341.8077935711254L635.1232299479166,340.85157749869603L636.6473938802083,341.8031703404513L639.4073664062499,340.24082574254817L639.7781089843749,341.806929117723L639.8193026041666,340.55150849116933L640.5607877604166,340.8802617412914L640.89033671875,340.8618332734541L641.631821875,340.8717393185009L642.1261453125,340.88454047185724L643.5679220052083,340.86631033671983L644.35060078125,339.570113186923L644.4329880208334,340.8757804943432L644.5565688802083,340.8761214644692L645.0920859374999,340.5543153499257L646.8222179687499,340.8768432804455L647.3989286458333,340.88504042191937L648.2228010416666,340.86446023386173L649.170254296875,340.86455685078016L650.9415799479166,340.8567264352278L652.1361949218749,339.5777821384777L652.877680078125,340.86653573261606L654.5666184895833,339.88956794114546L655.6376526041666,340.85807881060515L657.9033016927083,340.85725933178986L658.2740442708333,340.86742175813157L659.3450783854166,340.85736614643446L660.539693359375,340.87055128340285L660.9928231770832,340.8859490654685L663.2996658854166,341.51799328162457L663.752795703125,340.85859758723865L664.3295063802083,341.5148471523632L664.8650234374999,340.5620567314842L665.6065085937499,339.88936947770554L666.3891873697916,340.8541227465543L666.8423171874999,341.8054474404075L667.08947890625,341.80665149116516L667.58380234375,340.86232289505006L668.0369321614583,340.86787843322753L668.2840938802083,341.17653824060613L668.3252875,340.8734316180836L669.7258705729166,340.5690585164157L670.0142259114583,339.5747136688232L673.4744899739583,340.54796608872846L673.6804580729166,341.5036453423934L673.9688134114583,340.23124249475654L674.2159751302082,340.24774058532716L675.5341709635416,340.87239040409435L675.5753645833333,340.8523674302535L675.7813326822917,340.544573252938L676.358043359375,340.88335557452115L676.6875923177082,341.5133926689841L676.7287859374999,340.2052772535844L677.0583348958332,340.53708694527364L679.44756484375,340.8798245464672L679.5299520833333,340.5322644667192L681.1365032552083,340.8610909312855L681.1776968749999,340.5447757693204L681.6720203125,341.50941424837976L682.8666352864583,341.1682268323031L684.761541796875,341.5001348405318L685.6678014322915,339.61568760958585L689.7871634114583,340.2516748157848L690.4050677083333,340.5394907323664L691.1053592447917,340.8527946888317L691.4349082031249,340.87133820793844L692.8354912760417,340.5501531087702L693.7005572916665,340.8475799900402L694.1536871093749,340.8852140447443L694.6892041666666,341.1715152067705L694.8539786458332,340.21052986699885L696.130980859375,341.51196851730344L696.3369489583333,341.5023650047996L696.5841106770832,340.21257908699727L697.0372404947916,340.8692215260592L697.2020149739583,341.49379708446156L697.8199192708332,340.8511005588878L698.3966299479166,340.5625453071594L701.074215234375,341.18509740135886L702.9691217447917,340.85765416682847L703.0103153645832,340.2095129706643L703.17508984375,341.51373154726895L704.3285111979167,340.2183648584539L704.8228346354166,339.89484696405583L705.2347708333333,341.5115764278065L705.3995453125,340.2119980780862L705.9762559895833,340.8538513301503L706.5941602864582,341.1678164391951L707.5416135416666,340.86493115962634L707.9123561197916,341.50825589127976L708.4890667968749,340.8546608727195L713.3911075520833,340.85414222682607L714.0502054687499,340.88732863478225L714.6269161458332,340.5308069763184L715.2036268229166,340.8638352962841L715.5743694010416,341.51329160690307L716.768984375,340.85764449206266L717.5516631510416,340.8646645806052L718.2107610677083,340.85102538334235L718.4579227864582,340.5458392091231L719.0758270833334,341.505206771157L719.3229888020833,340.86802969949895L720.4764101562499,340.86094881681964L720.5587973958333,340.8545186275135L720.8883463541665,341.5114077731046L725.4196445312499,340.55273914753303L726.3670977864582,340.85950845336913L726.5730658854166,341.20146880479297L727.8088744791665,341.1725043862083L729.1270703125,340.5600254228765L729.6213937499999,341.507192320737L730.0333299479166,340.86785424631296L731.1455576822916,340.5701522879167L731.5986874999999,340.88374099627407L732.5461407552083,340.8520896075856L732.8344960937499,341.50684102214467L732.958076953125,341.50331470073354L733.2876259114582,341.5092939675071L733.4935940104166,340.8750303077698L733.82314296875,341.168266315807L734.0703046875,340.87418690352007L734.5234345052083,341.5131981277466L736.2535665364583,340.5351655890725L736.3359537760416,340.5678550539884L738.2308602864582,340.5404999150363L738.27205390625,341.51848421062124L739.9197986979166,340.53709897336097L740.6612838541665,340.8569681736339L742.0206733072916,339.58680947945334L742.8033520833333,341.1701455737027L743.21528828125,341.8085848754536L744.6158713541665,340.8829302770441L745.810486328125,339.8932435677268L746.3048097656249,341.8072809392756L746.6343587239583,338.9331694863059L747.6641992187499,341.5170199217363L749.1059759114582,340.23332518421523L749.1471695312499,340.55707710335474L751.2068505208333,340.21973945964464L751.3304313802082,340.2076844399192L751.4128186197916,341.5161773019271L751.6599803385417,340.8491964603771L754.3787592447916,339.58327975880013L755.6557614583332,341.5137319394892L755.7381486979166,340.8584478898482L757.6330552083332,340.538556855982L758.4157339843749,340.8524463972612L758.4569276041666,340.5658234839006L758.5393148437499,341.5191851081848L759.0748319010415,340.2140501743663L761.4228682291666,340.21328534490414L761.5464490885416,340.54666914714466L764.3064216145833,340.85149460948594L766.3249089843749,340.53003142616967L766.4072962239583,340.21347622541947L766.819232421875,340.53326279796255L768.2610091145833,341.5149539670077L768.6317516927082,340.8470596445257L771.5976923177083,340.5314371434992L771.762466796875,340.8619437488209L774.1516967447916,340.53755172625455L775.09915,340.2147948698564L775.8406351562498,340.8554726378701L777.07644375,340.8503301076022L777.1588309895833,340.5410717721419L777.7355416666666,341.8091479729739L777.8591225260416,340.86016646818683L778.8477694010415,340.5354976688732L780.4955141927084,341.80799719879843L780.6602886718749,341.5138262030862L782.7611632812499,341.49474495003443L783.3378739583333,341.8063403951471L784.9032315104166,340.53593447147716L785.0268123697916,341.1786503465826L785.8094911458332,340.22102855682374L787.6220104166665,340.85619131608445L787.8691721354166,340.86461359197443L787.9103657552082,339.90426103418525L788.5694636718749,340.8542865638733L789.0637871093749,341.80891048362037L790.546757421875,341.17192912986064L791.2058553385416,340.85923233032224L792.1121149739582,340.2251999497847L792.1945022135416,340.22078799507835L792.9771809895833,341.80690558450874L793.512698046875,341.16902120902324L793.5538916666666,339.59446038887717L793.6362789062499,340.86271276196567L793.9246342447916,340.8825740103288L794.2541832031249,341.16765458297726L798.9090622395832,340.86256829417835L800.1036772135416,341.18671910129893L800.4332261718749,340.8649365199696L800.4744197916666,341.5003889992454L803.8934902343749,340.86625804068825L804.1818455729166,340.24260511502354L805.870783984375,341.50920506425336L808.0952394531249,340.8707587679083L808.7131437499999,340.86371331579033L808.7543373697916,340.8667162846652L809.3722416666666,340.8847163172635L809.4134352864583,340.8628514771895L810.319694921875,341.52048453383014L811.0199864583333,341.18442395921187L811.3907290364583,340.88752147639883L812.7913121093749,341.5159006559199L814.0271207031249,340.55362072788586L814.3154760416666,340.87345423611725L816.2103825520833,341.5009331394542L818.228869921875,339.90037230127507L818.6408061197916,341.80745560802114L818.9291614583333,340.87305469443584L818.970355078125,340.86330592970415L819.1351295572915,340.87942160554366L820.7416807291667,341.48025032043455L821.1948105468749,340.86637256899746L821.8951020833333,340.8489906754927L822.3894255208332,341.8064863010753L824.0783639322915,340.8738239690607L824.2019447916666,341.50640761878276L825.3141725260416,340.8601110343933L825.6025278645832,340.86570357201316L826.5087874999999,339.90187319738214L827.1678854166666,340.54976219593397L827.373853515625,340.84858224348585L827.4974343749999,340.5422543161566L828.362500390625,340.8685172292536L828.8568238281249,340.8554366843484L829.1863727864582,340.533157682939L829.351147265625,340.86805950823697L829.5159217447916,341.8077899104032L832.3994751302083,340.85190330297297L835.2418348958332,336.1277310901989L836.4364498697917,341.8053525231101L837.3839031249998,340.85411987027254L837.5486776041665,341.8030613685955L838.0841946614582,314.88287615966794L838.9492606770833,340.8654118908969L839.2788096354166,341.4828125645031L840.5146182291666,333.8065623141202L840.5558118489582,332.51341219260473L841.0501352864582,89.62644509055397L841.5444587239583,305.30757527299363L841.8740076822916,22.5889738103693L842.1623630208333,22.38102805397726L842.5742992187498,22.31281729403408L843.1510098958332,22.819812677556826L843.6865269531249,281.0497639715021L844.05726953125,22.42135875355113L844.8811419270833,22.490540127840905L845.3754653645832,22.370719460227292L846.1993377604166,22.321251598011372L848.01185703125,22.84873029119317L849.2476656249999,23.005568181818187L849.4536337239583,22.987360795454556L849.4948273437499,22.86469522372159L849.9891507812499,23.03458620383523L850.4422805989583,23.059989524147717L851.5545083333332,23.077360174005662L855.0971596354166,23.094429598721597L855.1383532552084,23.06330300071022L855.3855149739583,23.106043501420434L855.5090958333332,23.052057262073877L856.0034192708333,23.089308771306815L856.6213235677083,23.071703835227293L859.7932322916666,330.68000745738635L860.86426640625,22.655912730823868L861.1114281249999,23.186002041903407L861.1526217447916,23.165619140625008L862.5943984375,22.502020152698865L863.6242389322916,270.8996941361861L864.695273046875,103.86676327237217L866.5489859374999,23.109658203124994L866.6725667968749,160.96589670632102L867.5788264322916,183.65270174893465L869.144183984375,23.009149414062485L869.5561201822916,23.00811186079545L869.7208946614583,22.72087695312502L869.7620882812499,23.10932350852272L873.6754821614583,22.797455078125008L873.7578694010416,22.772520330255674L873.9638375,23.09175204190342L876.4354546874998,312.39573755992546L876.5178419270832,23.196611860795468L877.794844140625,332.91779648659445L878.2067803385416,325.2095978060636L880.2664613281249,329.0762136785334L880.5960102864583,339.90973276797206L881.2139145833332,318.52355225719106L881.6258507812499,319.1813087324663L881.7906252604166,328.7396207303134L882.3673359374999,327.4444687167081L883.4795636718749,328.0799972867099L884.2210488281249,329.37633119062946L884.59179140625,329.67400124844636L884.7565658854166,339.2822988392223L885.5804382812499,326.4860215648304L885.704019140625,328.07137262517756L887.55773203125,23.10135777698862L890.4824790364582,23.167125266335237L891.141576953125,23.149352982954536L892.0066429687499,22.458309037642053L892.2949983072916,22.71689408735797L893.9427430989582,309.526865123402L896.4967475260415,22.876376065340907L896.5791347656249,22.840630681818194L896.7439092447916,22.95797460937498L899.7098498697916,22.640985351562485L899.9570115885416,22.61333957741479L900.5337222656249,22.570264382102263L901.9343053385415,193.44911234907673L902.5934032552083,174.7704090465199L903.0465330729165,313.66749965043505L904.8590523437499,22.725027166193165L905.476956640625,194.99028058416192L905.5181502604166,23.489235351562517L905.6829247395833,23.349500355113655L906.2184417968749,303.0838685191761L906.83634609375,317.48783771861684L907.0835078124999,316.2263068237305L909.3491569010416,22.180311700994338L909.8846739583332,22.265658824573848L910.8733208333333,22.864360529119317L911.5736123697916,22.368309659090908L911.7795804687499,22.727336558948853L919.070851171875,23.01239595170455L919.9359171874999,23.022905362215916L921.1717257812498,22.931132102272706L922.4899216145833,22.973404030539772L922.8606641927082,22.987461203835213L923.64334296875,22.496296875000017L924.384828125,22.596906072443183L926.1973473958332,22.843274769176155L926.5680899739582,22.86513032670456L927.3919623697916,23.03374946732955L927.968673046875,22.918848810369326" style="fill: none;" fill="none"></path></g></g></g></g></g></g><g transform="translate(61, 377)" clip-path="url(#clip_1)"><clipPath id="clip_1"><rect width="988" height="23"></rect></clipPath><g><g><line x1="0" y1="0" x2="0" y2="5" style="visibility: inherit;" fill="rgb(0, 0, 0)" stroke="rgb(204, 204, 204)" stroke-width="1px"></line><line x1="82.38723958333333" y1="0" x2="82.38723958333333" y2="5" style="visibility: inherit;" fill="rgb(0, 0, 0)" stroke="rgb(204, 204, 204)" stroke-width="1px"></line><line x1="164.77447916666665" y1="0" x2="164.77447916666665" y2="5" style="visibility: inherit;" fill="rgb(0, 0, 0)" stroke="rgb(204, 204, 204)" stroke-width="1px"></line><line x1="247.16171874999998" y1="0" x2="247.16171874999998" y2="5" style="visibility: inherit;" fill="rgb(0, 0, 0)" stroke="rgb(204, 204, 204)" stroke-width="1px"></line><line x1="329.5489583333333" y1="0" x2="329.5489583333333" y2="5" style="visibility: inherit;" fill="rgb(0, 0, 0)" stroke="rgb(204, 204, 204)" stroke-width="1px"></line><line x1="411.93619791666663" y1="0" x2="411.93619791666663" y2="5" style="visibility: inherit;" fill="rgb(0, 0, 0)" stroke="rgb(204, 204, 204)" stroke-width="1px"></line><line x1="494.32343749999995" y1="0" x2="494.32343749999995" y2="5" style="visibility: inherit;" fill="rgb(0, 0, 0)" stroke="rgb(204, 204, 204)" stroke-width="1px"></line><line x1="576.7106770833333" y1="0" x2="576.7106770833333" y2="5" style="visibility: inherit;" fill="rgb(0, 0, 0)" stroke="rgb(204, 204, 204)" stroke-width="1px"></line><line x1="659.0979166666666" y1="0" x2="659.0979166666666" y2="5" style="visibility: inherit;" fill="rgb(0, 0, 0)" stroke="rgb(204, 204, 204)" stroke-width="1px"></line><line x1="741.4851562499999" y1="0" x2="741.4851562499999" y2="5" style="visibility: inherit;" fill="rgb(0, 0, 0)" stroke="rgb(204, 204, 204)" stroke-width="1px"></line><line x1="823.8723958333333" y1="0" x2="823.8723958333333" y2="5" style="visibility: inherit;" fill="rgb(0, 0, 0)" stroke="rgb(204, 204, 204)" stroke-width="1px"></line><line x1="906.2596354166666" y1="0" x2="906.2596354166666" y2="5" style="visibility: inherit;" fill="rgb(0, 0, 0)" stroke="rgb(204, 204, 204)" stroke-width="1px"></line><line x1="988.6468749999999" y1="0" x2="988.6468749999999" y2="5" style="visibility: inherit;" fill="rgb(0, 0, 0)" stroke="rgb(204, 204, 204)" stroke-width="1px"></line></g><g transform="translate(0, 8)"><text x="0" y="0" dx="0em" dy="0.95em" style="text-anchor: middle; visibility: hidden; font-family: Roboto, sans-serif; font-size: 12px; font-weight: 200;" fill="rgb(33, 33, 33)" stroke="none" stroke-width="1px">-2k</text><text x="82.38723958333333" y="0" dx="0em" dy="0.95em" style="text-anchor: middle; visibility: inherit; font-family: Roboto, sans-serif; font-size: 12px; font-weight: 200;" fill="rgb(33, 33, 33)" stroke="none" stroke-width="1px">0</text><text x="164.77447916666665" y="0" dx="0em" dy="0.95em" style="text-anchor: middle; visibility: inherit; font-family: Roboto, sans-serif; font-size: 12px; font-weight: 200;" fill="rgb(33, 33, 33)" stroke="none" stroke-width="1px">2k</text><text x="247.16171874999998" y="0" dx="0em" dy="0.95em" style="text-anchor: middle; visibility: inherit; font-family: Roboto, sans-serif; font-size: 12px; font-weight: 200;" fill="rgb(33, 33, 33)" stroke="none" stroke-width="1px">4k</text><text x="329.5489583333333" y="0" dx="0em" dy="0.95em" style="text-anchor: middle; visibility: inherit; font-family: Roboto, sans-serif; font-size: 12px; font-weight: 200;" fill="rgb(33, 33, 33)" stroke="none" stroke-width="1px">6k</text><text x="411.93619791666663" y="0" dx="0em" dy="0.95em" style="text-anchor: middle; visibility: inherit; font-family: Roboto, sans-serif; font-size: 12px; font-weight: 200;" fill="rgb(33, 33, 33)" stroke="none" stroke-width="1px">8k</text><text x="494.32343749999995" y="0" dx="0em" dy="0.95em" style="text-anchor: middle; visibility: inherit; font-family: Roboto, sans-serif; font-size: 12px; font-weight: 200;" fill="rgb(33, 33, 33)" stroke="none" stroke-width="1px">10k</text><text x="576.7106770833333" y="0" dx="0em" dy="0.95em" style="text-anchor: middle; visibility: inherit; font-family: Roboto, sans-serif; font-size: 12px; font-weight: 200;" fill="rgb(33, 33, 33)" stroke="none" stroke-width="1px">12k</text><text x="659.0979166666666" y="0" dx="0em" dy="0.95em" style="text-anchor: middle; visibility: inherit; font-family: Roboto, sans-serif; font-size: 12px; font-weight: 200;" fill="rgb(33, 33, 33)" stroke="none" stroke-width="1px">14k</text><text x="741.4851562499999" y="0" dx="0em" dy="0.95em" style="text-anchor: middle; visibility: inherit; font-family: Roboto, sans-serif; font-size: 12px; font-weight: 200;" fill="rgb(33, 33, 33)" stroke="none" stroke-width="1px">16k</text><text x="823.8723958333333" y="0" dx="0em" dy="0.95em" style="text-anchor: middle; visibility: inherit; font-family: Roboto, sans-serif; font-size: 12px; font-weight: 200;" fill="rgb(33, 33, 33)" stroke="none" stroke-width="1px">18k</text><text x="906.2596354166666" y="0" dx="0em" dy="0.95em" style="text-anchor: middle; visibility: inherit; font-family: Roboto, sans-serif; font-size: 12px; font-weight: 200;" fill="rgb(33, 33, 33)" stroke="none" stroke-width="1px">20k</text><text x="988.6468749999999" y="0" dx="0em" dy="0.95em" style="text-anchor: middle; visibility: hidden; font-family: Roboto, sans-serif; font-size: 12px; font-weight: 200;" fill="rgb(33, 33, 33)" stroke="none" stroke-width="1px">22k</text></g><line x1="0" y1="0" x2="988.6468749999999" y2="0" fill="rgb(0, 0, 0)" stroke="rgb(204, 204, 204)" stroke-width="1px"></line></g></g></g></g></svg>