<svg viewBox="0 0 1050.5999755859375 400" xmlns="http://www.w3.org/2000/svg"><g><g><g><g><g><line x1="70" y1="377" x2="65" y2="377" style="visibility: inherit;" fill="rgb(0, 0, 0)" stroke="rgb(204, 204, 204)" stroke-width="1px"></line><line x1="70" y1="345.5833333333333" x2="65" y2="345.5833333333333" style="visibility: inherit;" fill="rgb(0, 0, 0)" stroke="rgb(204, 204, 204)" stroke-width="1px"></line><line x1="70" y1="314.1666666666667" x2="65" y2="314.1666666666667" style="visibility: inherit;" fill="rgb(0, 0, 0)" stroke="rgb(204, 204, 204)" stroke-width="1px"></line><line x1="70" y1="282.75" x2="65" y2="282.75" style="visibility: inherit;" fill="rgb(0, 0, 0)" stroke="rgb(204, 204, 204)" stroke-width="1px"></line><line x1="70" y1="251.33333333333337" x2="65" y2="251.33333333333337" style="visibility: inherit;" fill="rgb(0, 0, 0)" stroke="rgb(204, 204, 204)" stroke-width="1px"></line><line x1="70" y1="219.91666666666663" x2="65" y2="219.91666666666663" style="visibility: inherit;" fill="rgb(0, 0, 0)" stroke="rgb(204, 204, 204)" stroke-width="1px"></line><line x1="70" y1="188.5" x2="65" y2="188.5" style="visibility: inherit;" fill="rgb(0, 0, 0)" stroke="rgb(204, 204, 204)" stroke-width="1px"></line><line x1="70" y1="157.08333333333331" x2="65" y2="157.08333333333331" style="visibility: inherit;" fill="rgb(0, 0, 0)" stroke="rgb(204, 204, 204)" stroke-width="1px"></line><line x1="70" y1="125.66666666666669" x2="65" y2="125.66666666666669" style="visibility: inherit;" fill="rgb(0, 0, 0)" stroke="rgb(204, 204, 204)" stroke-width="1px"></line><line x1="70" y1="94.25" x2="65" y2="94.25" style="visibility: inherit;" fill="rgb(0, 0, 0)" stroke="rgb(204, 204, 204)" stroke-width="1px"></line><line x1="70" y1="62.83333333333332" x2="65" y2="62.83333333333332" style="visibility: inherit;" fill="rgb(0, 0, 0)" stroke="rgb(204, 204, 204)" stroke-width="1px"></line><line x1="70" y1="31.416666666666682" x2="65" y2="31.416666666666682" style="visibility: inherit;" fill="rgb(0, 0, 0)" stroke="rgb(204, 204, 204)" stroke-width="1px"></line><line x1="70" y1="0" x2="65" y2="0" style="visibility: inherit;" fill="rgb(0, 0, 0)" stroke="rgb(204, 204, 204)" stroke-width="1px"></line></g><g transform="translate(60, 0)"><text x="0" y="377" dx="0em" dy="0.3em" style="text-anchor: end; visibility: hidden; font-family: Roboto, sans-serif; font-size: 12px; font-weight: 200;" fill="rgb(33, 33, 33)" stroke="none" stroke-width="1px">1e+3</text><text x="0" y="345.5833333333333" dx="0em" dy="0.3em" style="text-anchor: end; visibility: inherit; font-family: Roboto, sans-serif; font-size: 12px; font-weight: 200;" fill="rgb(33, 33, 33)" stroke="none" stroke-width="1px">1.5e+3</text><text x="0" y="314.1666666666667" dx="0em" dy="0.3em" style="text-anchor: end; visibility: inherit; font-family: Roboto, sans-serif; font-size: 12px; font-weight: 200;" fill="rgb(33, 33, 33)" stroke="none" stroke-width="1px">2e+3</text><text x="0" y="282.75" dx="0em" dy="0.3em" style="text-anchor: end; visibility: inherit; font-family: Roboto, sans-serif; font-size: 12px; font-weight: 200;" fill="rgb(33, 33, 33)" stroke="none" stroke-width="1px">2.5e+3</text><text x="0" y="251.33333333333337" dx="0em" dy="0.3em" style="text-anchor: end; visibility: inherit; font-family: Roboto, sans-serif; font-size: 12px; font-weight: 200;" fill="rgb(33, 33, 33)" stroke="none" stroke-width="1px">3e+3</text><text x="0" y="219.91666666666663" dx="0em" dy="0.3em" style="text-anchor: end; visibility: inherit; font-family: Roboto, sans-serif; font-size: 12px; font-weight: 200;" fill="rgb(33, 33, 33)" stroke="none" stroke-width="1px">3.5e+3</text><text x="0" y="188.5" dx="0em" dy="0.3em" style="text-anchor: end; visibility: inherit; font-family: Roboto, sans-serif; font-size: 12px; font-weight: 200;" fill="rgb(33, 33, 33)" stroke="none" stroke-width="1px">4e+3</text><text x="0" y="157.08333333333331" dx="0em" dy="0.3em" style="text-anchor: end; visibility: inherit; font-family: Roboto, sans-serif; font-size: 12px; font-weight: 200;" fill="rgb(33, 33, 33)" stroke="none" stroke-width="1px">4.5e+3</text><text x="0" y="125.66666666666669" dx="0em" dy="0.3em" style="text-anchor: end; visibility: inherit; font-family: Roboto, sans-serif; font-size: 12px; font-weight: 200;" fill="rgb(33, 33, 33)" stroke="none" stroke-width="1px">5e+3</text><text x="0" y="94.25" dx="0em" dy="0.3em" style="text-anchor: end; visibility: inherit; font-family: Roboto, sans-serif; font-size: 12px; font-weight: 200;" fill="rgb(33, 33, 33)" stroke="none" stroke-width="1px">5.5e+3</text><text x="0" y="62.83333333333332" dx="0em" dy="0.3em" style="text-anchor: end; visibility: inherit; font-family: Roboto, sans-serif; font-size: 12px; font-weight: 200;" fill="rgb(33, 33, 33)" stroke="none" stroke-width="1px">6e+3</text><text x="0" y="31.416666666666682" dx="0em" dy="0.3em" style="text-anchor: end; visibility: inherit; font-family: Roboto, sans-serif; font-size: 12px; font-weight: 200;" fill="rgb(33, 33, 33)" stroke="none" stroke-width="1px">6.5e+3</text><text x="0" y="0" dx="0em" dy="0.3em" style="text-anchor: end; visibility: hidden; font-family: Roboto, sans-serif; font-size: 12px; font-weight: 200;" fill="rgb(33, 33, 33)" stroke="none" stroke-width="1px">7e+3</text></g><line x1="70" y1="0" x2="70" y2="377" fill="rgb(0, 0, 0)" stroke="rgb(204, 204, 204)" stroke-width="1px"></line></g></g><g transform="translate(70, 0)" clip-path="url(#clip_0)"><clipPath id="clip_0"><rect width="980" height="377"></rect></clipPath><g><g><g><line x1="0" y1="0" x2="0" y2="377" fill="rgb(0, 0, 0)" stroke="rgb(66, 66, 66)" stroke-width="1px" opacity="0.25"></line><line x1="89.14545454545454" y1="0" x2="89.14545454545454" y2="377" fill="rgb(0, 0, 0)" stroke="rgb(66, 66, 66)" stroke-width="1px" opacity="0.25"></line><line x1="178.29090909090908" y1="0" x2="178.29090909090908" y2="377" fill="rgb(0, 0, 0)" stroke="rgb(66, 66, 66)" stroke-width="1px" opacity="0.25"></line><line x1="267.4363636363636" y1="0" x2="267.4363636363636" y2="377" fill="rgb(0, 0, 0)" stroke="rgb(66, 66, 66)" stroke-width="1px" opacity="0.25"></line><line x1="356.58181818181816" y1="0" x2="356.58181818181816" y2="377" fill="rgb(0, 0, 0)" stroke="rgb(66, 66, 66)" stroke-width="1px" opacity="0.25"></line><line x1="445.7272727272727" y1="0" x2="445.7272727272727" y2="377" fill="rgb(0, 0, 0)" stroke="rgb(66, 66, 66)" stroke-width="1px" opacity="0.25"></line><line x1="534.8727272727272" y1="0" x2="534.8727272727272" y2="377" fill="rgb(0, 0, 0)" stroke="rgb(66, 66, 66)" stroke-width="1px" opacity="0.25"></line><line x1="624.0181818181818" y1="0" x2="624.0181818181818" y2="377" fill="rgb(0, 0, 0)" stroke="rgb(66, 66, 66)" stroke-width="1px" opacity="0.25"></line><line x1="713.1636363636363" y1="0" x2="713.1636363636363" y2="377" fill="rgb(0, 0, 0)" stroke="rgb(66, 66, 66)" stroke-width="1px" opacity="0.25"></line><line x1="802.3090909090909" y1="0" x2="802.3090909090909" y2="377" fill="rgb(0, 0, 0)" stroke="rgb(66, 66, 66)" stroke-width="1px" opacity="0.25"></line><line x1="891.4545454545454" y1="0" x2="891.4545454545454" y2="377" fill="rgb(0, 0, 0)" stroke="rgb(66, 66, 66)" stroke-width="1px" opacity="0.25"></line><line x1="980.5999999999999" y1="0" x2="980.5999999999999" y2="377" fill="rgb(0, 0, 0)" stroke="rgb(66, 66, 66)" stroke-width="1px" opacity="0.25"></line></g><g><line x1="0" y1="377" x2="980.5999999999999" y2="377" fill="rgb(0, 0, 0)" stroke="rgb(66, 66, 66)" stroke-width="1px" opacity="0.25"></line><line x1="0" y1="345.5833333333333" x2="980.5999999999999" y2="345.5833333333333" fill="rgb(0, 0, 0)" stroke="rgb(66, 66, 66)" stroke-width="1px" opacity="0.25"></line><line x1="0" y1="314.1666666666667" x2="980.5999999999999" y2="314.1666666666667" fill="rgb(0, 0, 0)" stroke="rgb(66, 66, 66)" stroke-width="1px" opacity="0.25"></line><line x1="0" y1="282.75" x2="980.5999999999999" y2="282.75" fill="rgb(0, 0, 0)" stroke="rgb(66, 66, 66)" stroke-width="1px" opacity="0.25"></line><line x1="0" y1="251.33333333333337" x2="980.5999999999999" y2="251.33333333333337" fill="rgb(0, 0, 0)" stroke="rgb(66, 66, 66)" stroke-width="1px" opacity="0.25"></line><line x1="0" y1="219.91666666666663" x2="980.5999999999999" y2="219.91666666666663" fill="rgb(0, 0, 0)" stroke="rgb(66, 66, 66)" stroke-width="1px" opacity="0.25"></line><line x1="0" y1="188.5" x2="980.5999999999999" y2="188.5" fill="rgb(0, 0, 0)" stroke="rgb(66, 66, 66)" stroke-width="1px" opacity="0.25"></line><line x1="0" y1="157.08333333333331" x2="980.5999999999999" y2="157.08333333333331" fill="rgb(0, 0, 0)" stroke="rgb(66, 66, 66)" stroke-width="1px" opacity="0.25"></line><line x1="0" y1="125.66666666666669" x2="980.5999999999999" y2="125.66666666666669" fill="rgb(0, 0, 0)" stroke="rgb(66, 66, 66)" stroke-width="1px" opacity="0.25"></line><line x1="0" y1="94.25" x2="980.5999999999999" y2="94.25" fill="rgb(0, 0, 0)" stroke="rgb(66, 66, 66)" stroke-width="1px" opacity="0.25"></line><line x1="0" y1="62.83333333333332" x2="980.5999999999999" y2="62.83333333333332" fill="rgb(0, 0, 0)" stroke="rgb(66, 66, 66)" stroke-width="1px" opacity="0.25"></line><line x1="0" y1="31.416666666666682" x2="980.5999999999999" y2="31.416666666666682" fill="rgb(0, 0, 0)" stroke="rgb(66, 66, 66)" stroke-width="1px" opacity="0.25"></line><line x1="0" y1="0" x2="980.5999999999999" y2="0" fill="rgb(0, 0, 0)" stroke="rgb(66, 66, 66)" stroke-width="1px" opacity="0.25"></line></g></g></g><g><g><line x1="0" y1="439.83333333333337" x2="980.5999999999999" y2="439.83333333333337" fill="rgb(0, 0, 0)" stroke="rgb(153, 153, 153)" stroke-width="1.5px"></line></g></g><g><g><line x1="89.14545454545454" y1="0" x2="89.14545454545454" y2="377" fill="rgb(0, 0, 0)" stroke="rgb(153, 153, 153)" stroke-width="1.5px"></line></g></g><g><g><g><g><g><path stroke="rgb(204, 51, 17)" stroke-width="2px" d="M98.32743636363637,417.9513316192627L98.68401818181817,374.66605460611976L99.93205454545453,365.47615804036457L100.55607272727272,440.2289995628993L100.73436363636363,359.7056695760091L103.1412909090909,334.7987724812825L103.40872727272726,333.2782932535807L103.58701818181818,335.1731032918294L103.76530909090908,333.108700012207L104.47847272727272,327.3248886108398L106.17223636363636,309.4576335449219L107.2419818181818,345.2190426635742L107.42027272727272,306.3598857828776L109.55976363636363,305.1761923014323L110.89694545454545,298.79896179199216L110.98609090909089,303.82160933430987L112.23412727272725,292.38155537923177L113.30387272727272,288.0250853678385L113.57130909090908,437.186562339147L114.28447272727271,295.3575021972656L114.55190909090908,286.10908288574217L115.44336363636361,284.49894803873696L117.31541818181817,286.84735921223955L117.58285454545454,277.90032820638027L117.8502909090909,287.47713452148434L119.98978181818181,430.12051820119217L121.05952727272727,280.18431066894533L121.5944,353.3986663614909L121.7726909090909,274.43665604654944L122.84243636363637,389.4625912882487L123.55559999999998,510.5525107828776L123.91218181818182,274.96971158854166L124.98192727272726,266.98470861816406L125.16021818181817,270.8494495035807L126.14081818181816,271.02086055501303L126.76483636363633,270.21479602050783L128.0128727272727,263.49549507649743L128.10201818181818,261.3789352213542L128.28030909090907,271.8091304931641L128.90432727272727,261.27255114746094L130.24150909090906,266.77270747884114L130.5980909090909,258.8563671061198L131.48954545454544,257.7170067138672L131.93527272727272,258.93952616373696L132.02441818181816,252.24668701171876L132.5592909090909,249.19029634602862L134.60963636363635,256.6359389648438L134.78792727272727,258.97737036132816L134.87707272727272,251.36237227376301L134.96621818181816,248.68684733072917L135.23365454545453,249.43633732096356L136.6599818181818,246.9724606933594L136.92741818181818,244.2694461669922L137.10570909090907,255.46855208333335L137.284,251.8527821451823L137.81887272727272,252.11061971028647L138.35374545454545,240.3494960123698L138.71032727272726,249.03812186686199L139.24519999999998,316.1510326131185L139.4234909090909,243.06966084798177L139.78007272727274,245.2525362548828L141.7412727272727,245.60008312988285L142.09785454545454,237.4742880859375L142.27614545454546,236.0899451904297L144.6830727272727,411.4109814198812L145.12879999999998,235.39344014485675L145.21794545454543,233.95775370279947L145.93110909090908,319.2574245605469L146.4659818181818,235.7357713623047L146.55512727272725,237.48527164713545L147.80316363636362,231.6151104329427L148.6054727272727,224.41690474446614L149.31863636363636,226.43743513997399L150.8341090909091,229.81234908040364L151.01239999999999,221.1779967447917L153.41932727272726,218.4983146158854L153.7759090909091,218.03409041341146L154.31078181818182,213.2919071858724L155.46967272727272,213.27371374511716L157.25258181818182,218.35571240234373L158.2331818181818,208.77947367350262L158.32232727272728,215.84132059733074L158.85719999999998,219.98934838867189L159.3920727272727,219.2733153076172L160.8184,213.60329728190104L160.90754545454544,209.9416602376302L161.08583636363633,287.20544478352866L162.1555818181818,204.60725443522136L163.31447272727272,201.80836385091146L165.54310909090907,195.05841324869795L166.34541818181816,202.74646122233074L166.79114545454544,201.19342248535156L168.12832727272723,539.4421530151367L169.10892727272724,203.63168103027343L169.46550909090908,198.51349491373696L172.05072727272724,194.7512110188802L173.1204727272727,423.5480754089356L173.7444909090909,197.57087219238278L178.20176363636364,190.60046801757812L178.46919999999997,177.388072265625L178.64749090909092,183.00933923339844L179.6280909090909,181.74756429036458L180.25210909090907,179.4238661295573L180.60869090909088,263.93924015299484L180.7869818181818,187.66928381347654L181.5892909090909,177.83189404296874L183.28305454545452,172.12933951822916L184.5310909090909,189.72130757649742L184.62023636363637,185.2749441731771L184.79852727272726,167.59862052408852L185.1551090909091,178.60789184570314L185.95741818181816,161.10966756184897L187.0271636363636,161.52912915039062L187.38374545454545,167.61644580078126L187.56203636363634,169.65932682291665L188.00776363636362,175.48994108072915L188.18605454545454,167.53851774088542L189.07750909090905,166.3956751302083L189.43409090909088,170.911330078125L190.05810909090906,158.38319791666666L190.23639999999997,171.49456331380208L191.30614545454543,175.82914290364582L191.7518727272727,171.16551668294272L191.84101818181816,164.90685034179685L192.9107636363636,151.32340657552083L193.80221818181818,166.98903287760416L193.98050909090907,157.07465079752606L194.6936727272727,160.29970662434897L195.4959818181818,156.1776804199219L195.58512727272728,161.87339322916665L197.36803636363635,155.72474658203126L197.72461818181816,141.51539322916668L198.34863636363633,157.63174438476562L200.2206909090909,148.3918388671875L200.66641818181816,215.44140238444012L200.75556363636363,136.72416748046874L200.93385454545452,136.10559049479164L201.2012909090909,337.5874618530273L201.55787272727272,145.86558911132815L202.09274545454545,145.06041430664064L202.44932727272726,131.3992265625L202.8950545454545,139.32653515625L204.85625454545453,141.52155997721357L205.56941818181818,209.40492305501303L206.9957454545454,131.30451635742187L207.2631818181818,137.5304160970052L209.0460909090909,127.53736962890625L210.3832727272727,137.72189208984375L210.73985454545453,123.36021085611979L211.72045454545452,123.80498372395833L211.8096,117.24353312174478L215.4645636363636,129.98409594726562L217.33661818181815,107.38121557617187L217.4257636363636,111.17388834635418L219.0303818181818,124.12583870442707L219.11952727272725,104.04660026041667L220.54585454545455,109.83861865234375L220.72414545454544,109.22734358723957L221.97218181818178,381.512786336263L222.32876363636362,102.38344978841144L223.04192727272726,94.03023673502605L223.75509090909088,115.00037084960938L224.02252727272727,110.82173942057292L224.2899636363636,102.52976432291666L225.35970909090906,232.4589884847005L226.2511636363636,110.26044262695314L227.14261818181816,105.22859098307292L227.4100545454545,95.93352221679689L228.6580909090909,101.2662559407552L228.92552727272724,111.89398657226563L229.37125454545452,100.91987491861978L229.63869090909088,101.85709790039061L230.44099999999997,97.3601886393229L231.42159999999996,300.35795251464845L231.86732727272724,165.23896500651043L232.04561818181816,101.71173445638021L234.18510909090907,89.69436857096353L234.89827272727268,97.81680411783854L235.07656363636363,95.15577563476562L238.01836363636363,87.21229850260416L238.8206727272727,91.95698217773437L239.35554545454542,378.57409695434575L240.1578545454545,91.23446020507814L240.87101818181816,90.61993302408854L241.04930909090908,86.75872037760416L241.3167454545454,80.51597713216147L241.67332727272725,88.86753344726564L242.29734545454542,93.52490087890624L244.7042727272727,95.1118720703125L247.37863636363633,86.18677750651042L247.55692727272722,82.94601334635416L248.62667272727268,84.0956056315104L248.89410909090907,87.26028255208334L249.6072727272727,83.5431140950521L253.7971090909091,80.08157421874999L254.1536909090909,94.72048299153646L254.956,79.73758626302084L255.40172727272724,74.31517390950522L255.58001818181813,81.26810563151042L257.4520727272727,113.83424186197918L258.4326727272727,221.78316642252605L258.7001090909091,74.52591715494792L259.2349818181818,75.51268888346354L259.32412727272725,81.86183154296874L260.66130909090907,88.8303181966146L260.75045454545455,85.15588745117189L261.7310545454545,286.33294197591147L262.08763636363636,79.45701456705729L262.53336363636356,91.75581119791666L262.71165454545456,81.41481901041666L263.87054545454544,78.41093774414063L263.9596909090909,82.47500878906251L264.40541818181816,77.52712923177084L265.38601818181814,78.53832250976562L265.56430909090903,75.13354125976561L266.2774727272727,81.17686230468749L266.3666181818181,415.69070648193366L273.6765454545455,81.72146899414061L274.4788545454545,71.49322705078124L275.3703090909091,75.36459488932293L276.35090909090906,108.84043383789064L277.15321818181815,77.68473413085938L277.59894545454546,78.70408837890625L277.6880909090909,71.23446907552085L278.0446727272727,87.20330916341146L278.1338181818181,71.80475520833333L278.75783636363633,195.1759956461589L279.8275818181818,77.58094254557292L282.5019454545454,71.8536289876302L284.7305818181818,76.17762386067707L286.0677636363636,77.9619923502604L286.60263636363635,439.72634718026717L288.74212727272726,181.26382739257812L289.1878545454545,79.65726513671876L292.48623636363635,73.05436539713544L294.62572727272726,363.9171826578776L295.60632727272724,65.51654370117187L295.8737636363636,58.193637776692725L297.03265454545453,63.86848795572917L297.92410909090904,52.874004557291656L299.43958181818175,72.1051464029948L302.11394545454544,72.50325447591146L302.4705272727273,69.05177775065106L302.5596727272727,65.57551131184896L306.3037818181818,71.22658422851562L306.7495090909091,439.3779043809573L307.9084,58.62086149088541L308.62156363636365,65.61395377604167L308.88899999999995,72.1037657877604L310.6719090909091,56.06574153645834L311.3850727272727,65.08017724609375L311.83079999999995,75.85949943033854L312.2765272727272,68.28068880208333L313.5245636363636,65.36927807617188L313.7028545454545,73.15122322591145L314.50516363636365,63.110315429687496L314.68345454545454,67.88969856770834L317.8926909090909,65.528048828125L318.8732909090909,68.0605880533854L318.96243636363636,69.98706787109374L319.85389090909086,438.663441450119L320.2104727272727,69.60699983723957L320.8344909090909,66.58553873697917L321.4585090909091,63.11430387369793L322.6174,64.24650040690105L323.3305636363636,60.38123795572918L323.41970909090907,64.33133154296875L324.0437272727272,70.94797607421874L324.4003090909091,61.06918318684895L324.4894545454545,59.0886446126302L324.7568909090909,62.13750325520832L326.45065454545454,338.1052999471029L327.16381818181816,64.76248234049477L327.2529636363636,59.84850455729168L327.5204,60.55166723632812L328.14441818181814,56.58212231445311L328.41185454545456,63.25402213541668L328.59014545454545,55.97906958007813L328.8575818181818,208.34168058268227L329.2141636363636,61.459130289713535L330.0164727272727,59.14389990234374L330.5513454545454,63.345633626302096L330.99707272727267,62.04190332031252L331.35365454545456,66.04010367838544L332.4234,63.26623291015624L332.51254545454543,61.282135416666684L332.86912727272727,61.64732348632812L333.31485454545447,69.19091308593748L333.404,62.2000604654948L334.56289090909087,60.539272379557275L334.65203636363634,72.43118636067709L334.7411818181818,64.24840258789064L335.18690909090907,61.36402124023437L335.6326363636363,118.1450441894531L335.9000727272727,58.377320963541685L336.3458,55.214300781249996L336.79152727272725,62.81750227864582L337.41554545454545,65.45822037760416L339.82247272727267,57.21861661783853L341.7836727272727,62.06969970703124L342.67512727272725,60.52006648763021L344.19059999999996,56.79059521484376L344.2797454545454,52.371798095703134L345.97350909090903,65.06038842773435L349.27189090909087,60.25774959309897L349.53932727272723,62.6837666829427L350.69821818181816,57.09623274739583L352.30283636363635,317.62016829427085L352.5702727272727,62.91951440429688L353.19429090909085,56.0191687825521L353.4617272727273,60.757931152343744L354.17489090909083,58.61908203125001L355.3337818181818,57.77718286132814L356.2252363636363,382.36592985026044L358.2755818181818,62.72788500976564L359.61276363636364,48.37672713216144L360.7716545454545,55.98655558268228L363.9808909090909,52.81242911783854L364.0700363636363,48.612505533854176L365.13978181818175,54.54543872070313L365.76379999999995,45.51372998046876L365.8529454545454,313.24213767496747L365.94209090909084,73.25915665690106L366.8335454545454,52.76763582356771L367.19012727272724,52.649056315104154L367.2792727272727,63.54539331054686L367.3684181818182,106.70253580729168L367.81414545454544,50.36300292968748L367.99243636363633,52.39140283203123L369.5079090909091,57.507625406901056L372.0039818181818,55.56371915690102L372.4497090909091,54.512702799479165L373.5194545454545,61.1402081705729L373.69774545454544,56.98265413411459L374.32176363636364,56.97796004231772L374.7674909090909,58.61567651367186L375.92638181818177,62.26491870117187L376.19381818181813,51.78690812174481L376.3721090909091,58.95975651041668L376.9961272727272,55.350122639973954L378.0658727272727,49.29219775390624L380.20536363636364,55.18785432942709L380.47279999999995,59.451132812500006L383.1471636363636,64.72701586914063L383.8603272727272,51.98224983723959L386.8912727272727,55.73359619140627L388.31759999999997,55.729178222656245L389.119909090909,68.37420247395835L389.92221818181815,156.72010880533853L390.1896545454545,423.3389409637451L390.3679454545454,75.58359114583334L390.81367272727266,56.60237133789063L390.90281818181813,59.221521158854145L391.6159818181818,64.61297705078124L392.5965818181818,57.940156819661446L393.84461818181813,52.19026253255207L394.2012,53.585144124348965L394.5577818181818,61.776303629557276L395.2709454545454,64.42447705078126L395.7166727272727,51.028398111979186L397.6778727272727,50.7869745279948L398.3018909090909,210.05457922363283L399.63907272727266,55.885371826171884L399.72821818181814,65.7174999186198L399.8173636363636,79.50665535481772L400.35223636363634,61.77820581054687L400.5305272727272,51.285652750651025L401.1545454545454,59.010992675781246L403.4723272727272,50.10651529947918L405.0769454545454,49.30459261067708L405.61181818181814,340.7440851847331L406.3249818181818,51.3749325358073L407.0381454545454,57.88993310546876L407.3055818181818,137.87713460286457L407.92959999999994,65.52814086914064L408.9101999999999,58.39529964192708L408.9993454545454,40.08640877278648L410.06909090909085,56.44200520833331L411.2279818181818,88.29626554361978L411.31712727272725,70.85863492838541L411.4062727272727,139.20224910481772L411.49541818181814,220.81642895507812L412.7434545454545,60.78014371744791L414.8829454545454,56.455013671874994L415.1503818181818,127.62971744791668L415.3286727272727,55.61615185546874L415.5069636363636,62.44074772135416L415.77439999999996,90.37553344726564L416.1309818181818,54.531417805989584L416.39841818181816,52.00811336263021L416.4875636363636,60.660429036458346L418.0921818181818,51.62384212239582L418.9836363636363,58.095000488281265L420.05338181818183,59.27628556315105L420.49910909090903,55.00766870117188L422.9951818181818,53.03213102213543L423.08432727272725,65.38069116210936L423.26261818181814,68.420345703125L423.7083454545454,56.38708740234376L423.79749090909087,45.804426188151055L424.42150909090907,58.820345052083326L424.59979999999996,56.81167260742187L426.1152727272727,55.02819384765625L426.2935636363636,51.066288330078116L426.38270909090903,57.06960221354168L426.73929090909087,54.431798746744796L427.00672727272723,46.37250333658855L429.0570727272727,50.48569360351562L429.94852727272723,57.794885416666645L432.1771636363636,54.9765281575521L432.3554545454545,57.01468440755208L433.24690909090907,46.388886637369794L434.04921818181816,53.49675406901041L434.3166545454545,64.16191471354168L436.99101818181816,51.29482617187501L437.7933272727272,54.60495857747395L438.1499090909091,57.81559464518231L438.68478181818176,52.466569661458315L439.7545272727272,56.288818277994785L440.02196363636364,55.41961360677084L441.53743636363635,55.35852905273437L441.8940181818181,55.5308298339844L442.6963272727272,56.37374145507814L443.4986363636363,51.9782920735677L444.0335090909091,56.00677392578125L446.79701818181815,56.47885229492187L446.9753090909091,58.285494710286436L447.7776181818181,64.77380338541666L448.7582181818181,59.45012036132813L449.2930909090909,58.995560465494776L449.91710909090904,55.342974121093754L453.2154909090909,71.19799015299478L455.44412727272726,57.51238085937502L455.979,52.82178662109373L456.51387272727266,57.513638753255194L456.781309090909,54.533289306640626L458.74250909090904,90.43241479492188L459.6339636363636,58.95650439453124L461.86259999999993,57.59254858398436L462.8431999999999,50.06233561197917L464.1803818181818,52.99792244466145L465.42841818181813,53.94260074869791L465.9632909090909,51.64344685872396L467.6570545454545,50.39684334309897L467.9244909090909,57.41251635742189L468.19192727272724,54.27716984049481L468.2810727272727,45.89787849934896L468.6376545454545,58.63221321614584L470.7771454545454,57.22708439127604L474.07552727272724,56.64127400716148L474.5212545454545,87.94614152018228L474.9669818181818,92.2996201985677L475.5018545454545,67.16054964192708L479.24596363636357,54.95164640299481L479.51339999999993,46.58257161458332L480.9397272727272,51.71247762044271L481.65289090909084,48.49944848632813L482.0094727272727,50.19739046223956L483.3466545454545,438.2664342740377L483.5249454545454,388.4188346659343L484.5055454545454,53.19197558593751L485.21870909090904,56.317688476562516L486.199309090909,46.31718668619792L487.2690545454545,50.7766659342448L489.3194,55.35315999348957L489.8542727272727,48.062130940755225L490.2108545454545,43.783849772135426L491.54803636363636,48.21764957682293L492.52863636363634,48.03890592447918L493.42009090909085,46.44242382812499L493.7766727272727,54.53350406901042L494.22239999999994,48.15601277669272L495.8270181818182,47.090576660156266L496.00530909090907,53.1854099934896L496.36189090909085,45.673513183593755L496.8967636363636,48.533380940755215L497.60992727272725,53.334393717447895L499.74941818181816,294.98217427571615L500.01685454545446,51.236778971354155L500.2842909090909,50.4473738606771L503.58267272727267,46.32998038736981L504.0284,52.67194384765626L504.38498181818176,153.41976342773435L504.4741272727273,47.60910506184897L504.74156363636354,50.71877213541668L505.18729090909085,43.85156127929687L506.1678909090909,46.638593912760435L506.88105454545445,50.85094303385415L507.2376363636363,51.59285498046874L507.4159272727273,43.991647705078115L507.95079999999996,45.42757958984375L508.6639636363636,46.36348331705731L508.75310909090905,52.029743001302094L509.2879818181818,58.462765706380225L509.5554181818182,44.282497314453146L510.8034545454545,47.48395996093751L511.4274727272727,40.23996386718749L513.3886727272727,48.19503816731772L514.0126909090909,52.399441080729154L514.5475636363635,48.005218912760434L514.9041454545454,49.43050472005208L514.9932909090909,49.306065266927085L517.4002181818182,57.708704345703126L517.6676545454545,576.2470004475912L517.9350909090908,54.41961865234374L518.2916727272727,55.0335322265625L519.718,52.26733154296874L519.8962909090909,56.86907552083334L520.0745818181817,58.74833829752606L520.1637272727272,51.20585319010417L520.2528727272727,341.4362182820638L520.8768909090909,54.35540470377605L520.9660363636362,52.021582031249984L522.5706545454544,51.83219230143228L524.3535636363636,50.44261840820313L525.5124545454545,53.80763793945313L526.6713454545454,400.1350423482259L526.8496363636363,47.61797167968752L528.5434,44.99514021809896L528.8999818181818,38.375366292317715L529.524,52.54063199869792L529.8805818181818,43.47505216471355L530.326309090909,44.018830485026044L533.089818181818,51.73021085611981L533.9812727272727,55.28722794596353L534.0704181818181,54.780051269531256L536.9230727272727,51.898615234375L539.0625636363636,52.14629760742186L540.3106,46.534740966796875L540.7563272727272,47.58146207682291L541.9152181818181,48.67061409505209L542.0043636363636,47.81190209960939L542.7175272727272,58.5895675455729L542.8958181818181,45.4700411783854L543.3415454545454,42.382003743489584L546.6399272727272,51.576931884765635L546.996509090909,42.83696248372398L547.353090909091,42.57504443359373L548.3336909090909,52.63617057291667L548.4228363636363,44.808665120442726L548.6011272727272,47.9745692545573L548.6902727272727,45.000693359375006L551.5429272727272,52.17335766601564L552.5235272727272,50.1960098470052L552.7018181818181,52.246499593098974L553.1475454545454,42.99821834309897L553.3258363636363,43.606087890625005L553.7715636363636,41.338013183593766L554.3064363636363,50.314681396484396L554.9304545454545,49.849598144531235L556.0893454545454,40.76085465494793L557.4265272727272,43.208746826171875L557.5156727272727,39.27457633463541L557.8722545454546,44.466272542317704L558.2288363636363,437.4942971604665L558.4962727272728,48.03774007161457L560.3683272727272,40.57732486979166L561.1706363636363,42.105328450520844L561.3489272727272,44.584146402994776L563.2209818181818,46.48519222005208L563.3101272727272,46.43588891601562L563.5775636363636,43.352821695963556L563.7558545454546,43.56868855794271L564.1124363636363,44.50726147460939L564.2015818181818,48.85291666666669L564.6473090909091,45.30881599934895L567.1433818181819,40.40861368815103L567.6782545454545,397.130727722168L567.8565454545454,41.74814794921874L569.9068909090909,57.4179160970052L570.7091999999999,51.077854817708335L570.7983454545454,50.349227457682275L572.0463818181818,58.99709448242188L572.6703999999999,50.8915331217448L574.5424545454545,51.602672688802066L575.1664727272728,48.9606046549479L575.3447636363636,55.592006429036466L575.6121999999999,48.259558919270845L575.7904909090909,59.26349186197916L579.8020363636364,430.0289853286743L580.2477636363636,45.18400838216148L580.336909090909,47.007647705078114L580.9609272727272,43.930992675781226L581.317509090909,47.57701342773438L581.4957999999999,49.96811629231769L583.4569999999999,58.083372639973945L585.4182,50.6297071126302L586.4879454545454,51.13630086263019L588.7165818181817,47.30951155598959L592.1932545454546,447.92267534128825L593.084709090909,57.84590681966145L594.3327454545455,46.73695507812501L596.1156545454545,49.92746484374999L597.8094181818182,49.267745524088525L598.4334363636364,59.34074495442708L599.3248909090909,105.90582877604164L599.9489090909091,50.45151570638023L600.8403636363636,50.3267694498698L601.910109090909,80.94964371744791L602.1775454545455,63.626665527343754L602.3558363636363,58.562599527994806L602.4449818181818,54.58283805338543L603.6930181818182,38.695331542968766L604.4953272727272,53.13819295247394L605.2084909090909,358.80964261881513L609.0417454545454,48.011447021484365L612.0726909090909,41.543540771484366L613.2315818181818,57.237761149088534L613.3207272727273,47.44471980794272L613.4990181818182,45.04030167643229L619.3826181818182,48.857978922526044L619.8283454545453,49.212060709635395L620.0957818181818,48.79167871093752L620.8089454545453,45.33029223632814L622.3244181818181,52.51298901367189L623.1267272727273,46.5547752278646L623.7507454545454,40.26818977864584L624.2856181818181,40.40505476888023L624.8204909090908,41.85371899414061L624.9096363636363,36.258668375651055L628.0297272727273,38.16333447265625L628.7428909090909,42.52693766276043L630.7932363636362,43.10872892252605L630.9715272727273,187.78356807454426L631.0606727272726,45.13995141601563L632.0412727272727,57.41877514648437L633.5567454545453,271.7777598470052L633.9133272727273,39.160138671874996L634.0916181818181,41.36626977539063L635.8745272727273,48.26232014973957L636.3202545454544,55.76311067708334L636.4985454545454,52.76462915039064L636.6768363636363,46.52292903645835L638.9946181818182,40.81914729817708L642.293,47.63641056315105L642.8278727272726,49.89997526041666L643.7193272727271,44.18677465820315L644.075909090909,42.95287280273436L644.4324909090909,45.41144173177085L645.0565090909091,184.4208495686849L645.6805272727272,45.881188395182285L646.3936909090909,43.707977294921875L648.8897636363636,46.208547607421885L649.0680545454545,42.26554117838542L649.6920727272727,48.33039982096355L650.4052363636363,56.40564900716144L650.4943818181818,57.51514208984375L650.7618181818182,46.35388037109374L652.0098545454545,42.38755688476562L653.2578909090909,57.09699975585936L653.6144727272726,56.560799479166654L653.7036181818181,46.44809969075522L653.7927636363636,43.72230501302082L654.9516545454545,44.02238940429689L655.9322545454545,46.3992872721354L656.0214,42.7866160481771L656.4671272727272,49.17693172200519L656.6454181818181,49.931913492838554L656.9128545454545,54.59550903320312L660.2112363636363,42.16082918294273L661.8158545454545,47.36317146809897L663.509618181818,55.405132486979156L664.0444909090909,41.37970776367189L664.9359454545454,39.931779866536445L666.1839818181818,44.03950903320311L667.7886,51.474152750651044L668.0560363636363,41.38688696289064L668.1451818181818,44.744911376953134L670.552109090909,47.05612263997395L671.0869818181818,53.92578792317709L671.3544181818181,116.39908748372397L672.1567272727272,50.3836201171875L672.6916,44.51069767252605L673.1373272727271,38.8836474609375L673.2264727272727,43.81176888020834L674.2962181818181,39.229506917317686L674.7419454545454,45.37750927734376L676.1682727272727,44.84827343750001L676.6139999999999,42.39952221679688L677.0597272727272,46.734684733072925L677.416309090909,44.64323673502605L678.8426363636363,51.0547218424479L680.0906727272727,50.0896717936198L681.8735818181818,46.67758862304689L682.9433272727272,46.630923828125006L684.0130727272727,242.1698525390625L687.1331636363636,46.2294102376302L687.7571818181818,40.63825602213544L688.202909090909,45.02008333333331L688.3811999999999,43.13692415364585L688.5594909090908,41.8146629231771L689.0943636363636,47.31353068033853L689.4509454545454,37.16788020833332L690.8772727272727,47.69902913411458L691.8578727272727,48.19595857747395L692.0361636363637,44.41417732747397L693.1950545454545,46.66749479166667L693.9973636363636,43.411605224609396L695.5128363636363,42.20878255208333L695.8694181818181,46.66258593750001L697.2065999999999,34.66141927083333L698.0980545454545,47.87117651367187L698.6329272727272,42.816989583333346L699.0786545454545,46.088127278645835L699.2569454545454,45.30761946614584L699.7918181818181,48.44032747395834L700.5941272727272,55.247435546875L701.2181454545454,41.38762329101562L701.5747272727272,41.707281738281246L702.0204545454545,40.34424633789064L703.5359272727272,41.689824625651035L705.4971272727272,56.25184847005208L705.6754181818181,54.12039331054689L705.9428545454546,45.40957023111981L706.9234545454545,42.028228759765625L707.5474727272727,46.43656388346355L709.5086727272726,51.39073291015625L710.935,51.10307405598958L712.3613272727272,46.748030680338545L712.8070545454545,51.85437418619791L712.9853454545454,46.61754720052083L713.2527818181817,43.234610351562495L714.2333818181817,49.56522208658852L714.7682545454545,51.59070735677085L715.659709090909,49.448820882161456L715.7488545454545,51.065644042968735L717.0860363636364,252.7350106201172L717.8883454545454,45.94702840169272L717.9774909090908,54.68975903320311L720.9192909090908,52.747202718098976L722.9696363636364,58.09659586588542L723.5936545454546,44.69186507161458L723.8610909090909,148.23300675455727L724.3959636363635,58.728702880859366L727.7834909090908,44.19156079101562L728.9423818181817,51.73671508789063L729.0315272727272,55.436855957031256L729.2098181818182,229.3965537923177L729.7446909090909,52.70793188476564L730.0121272727272,61.01610620117185L731.6167454545455,42.46339868164063L732.329909090909,47.26873738606769L733.2213636363635,48.10680151367187L735.3608545454545,149.97279671223959L735.7174363636364,166.945466796875L736.7871818181817,59.55348242187502L737.5894909090908,54.191939860026025L739.2832545454544,48.913111490885434L740.0855636363635,57.56806567382811L740.6204363636364,51.78304239908852L742.9382181818181,79.65201879882812L743.2947999999999,87.29387752278645L743.4730909090908,86.88659602864585L744.6319818181818,77.10015096028646L744.8102727272726,71.1563262532552L745.077709090909,76.30187923177085L745.5234363636364,60.57170149739585L745.8800181818182,63.02652742513021L746.7714727272727,98.1072548828125L747.4846363636364,68.68956567382814L750.3372909090908,62.280412272135436L750.961309090909,70.89505249023439L751.941909090909,71.6307976888021L752.0310545454545,64.36946720377603L752.2984909090908,63.22849609375L752.5659272727272,62.991766601562496L754.1705454545454,63.36646557617186L754.5271272727273,61.397248046874985L754.8837090909091,58.8832704264323L755.0619999999999,64.82485546875L756.1317454545454,61.18889786783852L758.2712363636363,67.53445092773437L759.3409818181817,68.07181705729168L760.0541454545454,59.05219637044272L760.5890181818181,55.163678222656266L761.5696181818181,53.00930485026043L762.2827818181818,67.26627408854165L762.4610727272726,60.31911027018229L762.9959454545453,61.10053849283856L763.5308181818182,54.653709635416675L764.6005636363635,54.32582885742189L765.4028727272727,56.33879654947918L766.0268909090909,58.76502840169269L766.6509090909091,248.586016398112L766.8291999999999,56.11599593098957L767.0074909090908,51.9835077311198L767.2749272727272,57.80132828776041L770.0384363636363,55.944861002604156L770.1275818181817,66.76198136393229L770.5733090909091,55.97385392252604L770.6624545454545,51.49645735677082L771.8213454545454,57.857810791015616L771.9996363636362,56.0881688639323L772.0887818181818,443.3312361221314L774.2282727272726,58.46074080403644L777.4375090909091,63.6744041341146L777.9723818181818,55.824287272135415L778.0615272727272,58.50516593424478L778.239818181818,61.95345190429687L780.5576,64.17596630859374L780.6467454545453,60.243329833984376L780.8250363636363,60.524729899088534L780.9141818181818,66.78382576497397L781.0033272727271,58.07162207031248L781.2707636363635,54.49625813802083L783.142818181818,57.747729736328125L783.9451272727272,65.43910652669271L784.0342727272727,441.064508234024L785.282309090909,67.82158821614586L786.3520545454545,63.195146565755195L787.8675272727272,345.3670369466146L788.224109090909,65.12533870442708L788.9372727272727,68.92767578125002L789.3829999999999,53.604902262369805L789.4721454545454,63.07794767252605L790.007018181818,67.0445166015625L790.5418909090909,274.82088126627605L791.7899272727271,60.5133474934896L792.9488181818181,54.374089029947925L793.4836909090909,151.27379646809896L794.6425818181817,52.189250081380195L794.8208727272727,69.64544230143228L794.910018181818,63.04146874999999L795.4448909090909,56.293205566406264L795.7123272727272,74.30937532552083L795.8906181818181,58.8176758626302L795.9797636363636,60.75658121744793L796.6037818181818,58.80939217122394L798.6541272727271,309.9204617919922L801.0610545454545,50.905738118489595L801.6850727272727,56.62605655924481L804.6268727272727,409.823515508016L804.894309090909,375.49419747924804L804.9834545454545,345.81236206054683L805.1617454545453,430.94910498046875L806.4097818181818,85.83223551432293L807.1229454545454,74.43844750976564L807.7469636363636,68.45446223958334L808.1035454545454,73.18509431966145L809.1732909090907,70.80770556640626L809.2624363636363,69.1546796061198L809.8864545454545,65.21667407226563L810.8670545454545,67.20390096028646L813.1848363636362,59.328196695963534L813.8979999999999,61.300022054036475L814.9677454545454,59.4355165201823L815.1460363636363,62.38052221679686L815.5917636363636,373.7113975219727L816.8397999999999,70.69348266601563L816.9289454545454,65.09714347330727L817.1072363636363,78.50380712890625L818.7118545454545,58.574779622395816L818.8009999999999,73.56046826171874L819.4250181818181,62.15370247395832L820.1381818181817,63.718430419921866L820.2273272727272,60.158130533854184L820.583909090909,56.202545166015625L821.564509090909,71.05011092122396L821.6536545454545,65.16749348958334L822.7233999999999,128.7118743489583L822.8125454545454,60.35509830729167L825.0411818181817,66.19546891276039L827.0023818181817,161.04339803059895L827.5372545454545,62.29111971028648L827.8046909090908,71.22615470377603L827.8938363636363,57.76840828450519L828.2504181818181,54.500522705078104L828.6961454545454,71.26294042968749L829.1418727272727,56.245559000651056L833.4208545454545,64.1933927408854L833.6882909090908,62.21500179036458L834.6688909090908,61.418877685546875L834.9363272727272,57.25561710611978L835.4712,72.64398518880208L835.9169272727272,63.83492366536458L836.6300909090908,58.27224080403646L837.6998363636363,68.20855932617188L838.9478727272726,61.90350431315103L839.3935999999999,55.26335864257811L841.176509090909,56.83652368164062L842.9594181818181,53.810675292968746L843.0485636363635,49.718623779296884L843.4051454545454,52.54713623046874L846.079509090909,59.19967675781251L847.2384,382.3486644897461L848.7538727272727,439.1817912227313L849.5561818181817,145.98692985026042L850.3584909090908,109.57301896158855L851.1607999999999,96.50445263671877L851.6956727272726,93.72637866210938L851.7848181818181,87.90358789062498L852.4979818181818,188.2794697265625L853.5677272727272,63.66679541015627L855.8855090909091,58.441289469401035L856.3312363636363,66.8602811686198L857.4009818181817,86.13124609375L857.5792727272726,81.35342765299481L857.6684181818181,92.35530501302082L858.2032909090908,138.20265299479166L861.0559454545454,80.41654215494792L861.4125272727272,62.4144853515625L864.1760363636363,59.97364965820314L864.710909090909,69.42865502929686L865.8697999999999,64.48991821289061L866.3155272727272,63.25282560221352L866.8503999999999,55.58804866536458L868.633309090909,70.15001114908853L869.3464727272726,60.928114990234384L869.5247636363636,59.837613037109385L869.9704909090908,301.073356648763L870.5053636363635,53.39013989257812L871.4859636363635,68.1348651529948L871.6642545454545,63.305411702473975L872.555709090909,69.85130737304686L873.5363090909091,70.05346012369792L873.8928909090909,73.26262353515625L874.0711818181817,76.82994921874999L874.6951999999999,76.35400512695313L875.4083636363636,72.84865372721355L875.6758,70.34750048828126L875.8540909090908,67.6997565917969L876.5672545454544,55.488583007812494L879.4199090909091,57.18440804036459L879.8656363636362,61.015830078125006L880.4896545454544,66.0923829752604L881.4702545454544,58.58450528971354L881.9159818181818,58.4106398111979L882.0051272727272,55.86932600911459L882.6291454545453,68.92531339518229L883.6097454545453,68.60013248697916L884.0554727272727,51.47126879882813L884.4120545454545,58.000750488281234L886.1058181818181,61.62471207682291L888.4236,63.79270751953126L888.7801818181817,51.067853027343766L889.5824909090909,167.27632356770835L890.1173636363635,53.94953450520832L890.2065090909091,49.75145174153646L890.5630909090909,59.768336832682294L891.9894181818181,48.132450276692694L893.4157454545453,52.796782145182284L894.3963454545453,54.3202450358073L895.8226727272727,58.1611472981771L896.6249818181817,57.319064046223936L897.2489999999999,57.91582731119792L897.6947272727272,47.96711393229166L901.8845636363635,50.08933430989582L902.2411454545454,70.90818367513022L905.0046545454544,72.51414599609375L905.7178181818181,92.74807470703124L905.8069636363635,58.078985351562515L905.9852545454545,53.95889200846355L906.0744,60.49650398763023L906.7875636363635,54.22133162434894L908.1247454545454,54.99944637044271L908.3921818181817,79.26771687825521L908.659618181818,52.00924853515623L909.2836363636362,61.81928678385416L909.5510727272726,60.44539054361977L909.9968,53.05198120117187L910.3533818181818,54.590906982421856L911.1556909090908,387.71022622680664L911.2448363636363,337.36166223144534L911.6014181818181,102.49383764648438L912.3145818181818,91.09599983723959L913.562618181818,89.14641772460936L913.9191999999999,86.75046736653645L914.0083454545454,237.97706213378908L917.3958727272727,116.7805361328125L918.4656181818181,291.2664938151042L918.643909090909,77.625919921875L919.2679272727272,76.52290039062501L920.1593818181817,69.47805037434897L920.2485272727272,198.37955989583332L920.605109090909,71.66789021809896L920.7833999999999,279.24714904785156L921.1399818181818,72.78815209960936L921.4074181818181,107.95978540039063L922.2097272727272,76.54572656250001L922.8337454545454,69.35480745442709L923.4577636363636,401.92971943155925L923.9926363636363,63.3525673828125L924.0817818181818,71.40459155273439L924.6166545454545,70.50645532226562L925.0623818181817,59.948890625L925.9538363636362,70.67065649414063L926.8452909090909,62.74586368815104L926.9344363636362,54.42916023763022" style="fill: none;" fill="none"></path></g></g></g></g></g></g><g transform="translate(70, 377)" clip-path="url(#clip_1)"><clipPath id="clip_1"><rect width="980" height="23"></rect></clipPath><g><g><line x1="0" y1="0" x2="0" y2="5" style="visibility: inherit;" fill="rgb(0, 0, 0)" stroke="rgb(204, 204, 204)" stroke-width="1px"></line><line x1="89.14545454545454" y1="0" x2="89.14545454545454" y2="5" style="visibility: inherit;" fill="rgb(0, 0, 0)" stroke="rgb(204, 204, 204)" stroke-width="1px"></line><line x1="178.29090909090908" y1="0" x2="178.29090909090908" y2="5" style="visibility: inherit;" fill="rgb(0, 0, 0)" stroke="rgb(204, 204, 204)" stroke-width="1px"></line><line x1="267.4363636363636" y1="0" x2="267.4363636363636" y2="5" style="visibility: inherit;" fill="rgb(0, 0, 0)" stroke="rgb(204, 204, 204)" stroke-width="1px"></line><line x1="356.58181818181816" y1="0" x2="356.58181818181816" y2="5" style="visibility: inherit;" fill="rgb(0, 0, 0)" stroke="rgb(204, 204, 204)" stroke-width="1px"></line><line x1="445.7272727272727" y1="0" x2="445.7272727272727" y2="5" style="visibility: inherit;" fill="rgb(0, 0, 0)" stroke="rgb(204, 204, 204)" stroke-width="1px"></line><line x1="534.8727272727272" y1="0" x2="534.8727272727272" y2="5" style="visibility: inherit;" fill="rgb(0, 0, 0)" stroke="rgb(204, 204, 204)" stroke-width="1px"></line><line x1="624.0181818181818" y1="0" x2="624.0181818181818" y2="5" style="visibility: inherit;" fill="rgb(0, 0, 0)" stroke="rgb(204, 204, 204)" stroke-width="1px"></line><line x1="713.1636363636363" y1="0" x2="713.1636363636363" y2="5" style="visibility: inherit;" fill="rgb(0, 0, 0)" stroke="rgb(204, 204, 204)" stroke-width="1px"></line><line x1="802.3090909090909" y1="0" x2="802.3090909090909" y2="5" style="visibility: inherit;" fill="rgb(0, 0, 0)" stroke="rgb(204, 204, 204)" stroke-width="1px"></line><line x1="891.4545454545454" y1="0" x2="891.4545454545454" y2="5" style="visibility: inherit;" fill="rgb(0, 0, 0)" stroke="rgb(204, 204, 204)" stroke-width="1px"></line><line x1="980.5999999999999" y1="0" x2="980.5999999999999" y2="5" style="visibility: inherit;" fill="rgb(0, 0, 0)" stroke="rgb(204, 204, 204)" stroke-width="1px"></line></g><g transform="translate(0, 8)"><text x="0" y="0" dx="0em" dy="0.95em" style="text-anchor: middle; visibility: hidden; font-family: Roboto, sans-serif; font-size: 12px; font-weight: 200;" fill="rgb(33, 33, 33)" stroke="none" stroke-width="1px">-1k</text><text x="89.14545454545454" y="0" dx="0em" dy="0.95em" style="text-anchor: middle; visibility: inherit; font-family: Roboto, sans-serif; font-size: 12px; font-weight: 200;" fill="rgb(33, 33, 33)" stroke="none" stroke-width="1px">0</text><text x="178.29090909090908" y="0" dx="0em" dy="0.95em" style="text-anchor: middle; visibility: inherit; font-family: Roboto, sans-serif; font-size: 12px; font-weight: 200;" fill="rgb(33, 33, 33)" stroke="none" stroke-width="1px">1k</text><text x="267.4363636363636" y="0" dx="0em" dy="0.95em" style="text-anchor: middle; visibility: inherit; font-family: Roboto, sans-serif; font-size: 12px; font-weight: 200;" fill="rgb(33, 33, 33)" stroke="none" stroke-width="1px">2k</text><text x="356.58181818181816" y="0" dx="0em" dy="0.95em" style="text-anchor: middle; visibility: inherit; font-family: Roboto, sans-serif; font-size: 12px; font-weight: 200;" fill="rgb(33, 33, 33)" stroke="none" stroke-width="1px">3k</text><text x="445.7272727272727" y="0" dx="0em" dy="0.95em" style="text-anchor: middle; visibility: inherit; font-family: Roboto, sans-serif; font-size: 12px; font-weight: 200;" fill="rgb(33, 33, 33)" stroke="none" stroke-width="1px">4k</text><text x="534.8727272727272" y="0" dx="0em" dy="0.95em" style="text-anchor: middle; visibility: inherit; font-family: Roboto, sans-serif; font-size: 12px; font-weight: 200;" fill="rgb(33, 33, 33)" stroke="none" stroke-width="1px">5k</text><text x="624.0181818181818" y="0" dx="0em" dy="0.95em" style="text-anchor: middle; visibility: inherit; font-family: Roboto, sans-serif; font-size: 12px; font-weight: 200;" fill="rgb(33, 33, 33)" stroke="none" stroke-width="1px">6k</text><text x="713.1636363636363" y="0" dx="0em" dy="0.95em" style="text-anchor: middle; visibility: inherit; font-family: Roboto, sans-serif; font-size: 12px; font-weight: 200;" fill="rgb(33, 33, 33)" stroke="none" stroke-width="1px">7k</text><text x="802.3090909090909" y="0" dx="0em" dy="0.95em" style="text-anchor: middle; visibility: inherit; font-family: Roboto, sans-serif; font-size: 12px; font-weight: 200;" fill="rgb(33, 33, 33)" stroke="none" stroke-width="1px">8k</text><text x="891.4545454545454" y="0" dx="0em" dy="0.95em" style="text-anchor: middle; visibility: inherit; font-family: Roboto, sans-serif; font-size: 12px; font-weight: 200;" fill="rgb(33, 33, 33)" stroke="none" stroke-width="1px">9k</text><text x="980.5999999999999" y="0" dx="0em" dy="0.95em" style="text-anchor: middle; visibility: hidden; font-family: Roboto, sans-serif; font-size: 12px; font-weight: 200;" fill="rgb(33, 33, 33)" stroke="none" stroke-width="1px">10k</text></g><line x1="0" y1="0" x2="980.5999999999999" y2="0" fill="rgb(0, 0, 0)" stroke="rgb(204, 204, 204)" stroke-width="1px"></line></g></g></g></g></svg>