<svg viewBox="0 0 1050.5999755859375 400" xmlns="http://www.w3.org/2000/svg"><g><g><g><g><g><line x1="70" y1="377" x2="65" y2="377" style="visibility: inherit;" fill="rgb(0, 0, 0)" stroke="rgb(204, 204, 204)" stroke-width="1px"></line><line x1="70" y1="345.5833333333333" x2="65" y2="345.5833333333333" style="visibility: inherit;" fill="rgb(0, 0, 0)" stroke="rgb(204, 204, 204)" stroke-width="1px"></line><line x1="70" y1="314.1666666666667" x2="65" y2="314.1666666666667" style="visibility: inherit;" fill="rgb(0, 0, 0)" stroke="rgb(204, 204, 204)" stroke-width="1px"></line><line x1="70" y1="282.75" x2="65" y2="282.75" style="visibility: inherit;" fill="rgb(0, 0, 0)" stroke="rgb(204, 204, 204)" stroke-width="1px"></line><line x1="70" y1="251.33333333333337" x2="65" y2="251.33333333333337" style="visibility: inherit;" fill="rgb(0, 0, 0)" stroke="rgb(204, 204, 204)" stroke-width="1px"></line><line x1="70" y1="219.91666666666663" x2="65" y2="219.91666666666663" style="visibility: inherit;" fill="rgb(0, 0, 0)" stroke="rgb(204, 204, 204)" stroke-width="1px"></line><line x1="70" y1="188.5" x2="65" y2="188.5" style="visibility: inherit;" fill="rgb(0, 0, 0)" stroke="rgb(204, 204, 204)" stroke-width="1px"></line><line x1="70" y1="157.08333333333331" x2="65" y2="157.08333333333331" style="visibility: inherit;" fill="rgb(0, 0, 0)" stroke="rgb(204, 204, 204)" stroke-width="1px"></line><line x1="70" y1="125.66666666666669" x2="65" y2="125.66666666666669" style="visibility: inherit;" fill="rgb(0, 0, 0)" stroke="rgb(204, 204, 204)" stroke-width="1px"></line><line x1="70" y1="94.25" x2="65" y2="94.25" style="visibility: inherit;" fill="rgb(0, 0, 0)" stroke="rgb(204, 204, 204)" stroke-width="1px"></line><line x1="70" y1="62.83333333333332" x2="65" y2="62.83333333333332" style="visibility: inherit;" fill="rgb(0, 0, 0)" stroke="rgb(204, 204, 204)" stroke-width="1px"></line><line x1="70" y1="31.416666666666682" x2="65" y2="31.416666666666682" style="visibility: inherit;" fill="rgb(0, 0, 0)" stroke="rgb(204, 204, 204)" stroke-width="1px"></line><line x1="70" y1="0" x2="65" y2="0" style="visibility: inherit;" fill="rgb(0, 0, 0)" stroke="rgb(204, 204, 204)" stroke-width="1px"></line></g><g transform="translate(60, 0)"><text x="0" y="377" dx="0em" dy="0.3em" style="text-anchor: end; visibility: hidden; font-family: Roboto, sans-serif; font-size: 12px; font-weight: 200;" fill="rgb(33, 33, 33)" stroke="none" stroke-width="1px">3e+3</text><text x="0" y="345.5833333333333" dx="0em" dy="0.3em" style="text-anchor: end; visibility: inherit; font-family: Roboto, sans-serif; font-size: 12px; font-weight: 200;" fill="rgb(33, 33, 33)" stroke="none" stroke-width="1px">4e+3</text><text x="0" y="314.1666666666667" dx="0em" dy="0.3em" style="text-anchor: end; visibility: inherit; font-family: Roboto, sans-serif; font-size: 12px; font-weight: 200;" fill="rgb(33, 33, 33)" stroke="none" stroke-width="1px">5e+3</text><text x="0" y="282.75" dx="0em" dy="0.3em" style="text-anchor: end; visibility: inherit; font-family: Roboto, sans-serif; font-size: 12px; font-weight: 200;" fill="rgb(33, 33, 33)" stroke="none" stroke-width="1px">6e+3</text><text x="0" y="251.33333333333337" dx="0em" dy="0.3em" style="text-anchor: end; visibility: inherit; font-family: Roboto, sans-serif; font-size: 12px; font-weight: 200;" fill="rgb(33, 33, 33)" stroke="none" stroke-width="1px">7e+3</text><text x="0" y="219.91666666666663" dx="0em" dy="0.3em" style="text-anchor: end; visibility: inherit; font-family: Roboto, sans-serif; font-size: 12px; font-weight: 200;" fill="rgb(33, 33, 33)" stroke="none" stroke-width="1px">8e+3</text><text x="0" y="188.5" dx="0em" dy="0.3em" style="text-anchor: end; visibility: inherit; font-family: Roboto, sans-serif; font-size: 12px; font-weight: 200;" fill="rgb(33, 33, 33)" stroke="none" stroke-width="1px">9e+3</text><text x="0" y="157.08333333333331" dx="0em" dy="0.3em" style="text-anchor: end; visibility: inherit; font-family: Roboto, sans-serif; font-size: 12px; font-weight: 200;" fill="rgb(33, 33, 33)" stroke="none" stroke-width="1px">1e+4</text><text x="0" y="125.66666666666669" dx="0em" dy="0.3em" style="text-anchor: end; visibility: inherit; font-family: Roboto, sans-serif; font-size: 12px; font-weight: 200;" fill="rgb(33, 33, 33)" stroke="none" stroke-width="1px">1.1e+4</text><text x="0" y="94.25" dx="0em" dy="0.3em" style="text-anchor: end; visibility: inherit; font-family: Roboto, sans-serif; font-size: 12px; font-weight: 200;" fill="rgb(33, 33, 33)" stroke="none" stroke-width="1px">1.2e+4</text><text x="0" y="62.83333333333332" dx="0em" dy="0.3em" style="text-anchor: end; visibility: inherit; font-family: Roboto, sans-serif; font-size: 12px; font-weight: 200;" fill="rgb(33, 33, 33)" stroke="none" stroke-width="1px">1.3e+4</text><text x="0" y="31.416666666666682" dx="0em" dy="0.3em" style="text-anchor: end; visibility: inherit; font-family: Roboto, sans-serif; font-size: 12px; font-weight: 200;" fill="rgb(33, 33, 33)" stroke="none" stroke-width="1px">1.4e+4</text><text x="0" y="0" dx="0em" dy="0.3em" style="text-anchor: end; visibility: hidden; font-family: Roboto, sans-serif; font-size: 12px; font-weight: 200;" fill="rgb(33, 33, 33)" stroke="none" stroke-width="1px">1.5e+4</text></g><line x1="70" y1="0" x2="70" y2="377" fill="rgb(0, 0, 0)" stroke="rgb(204, 204, 204)" stroke-width="1px"></line></g></g><g transform="translate(70, 0)" clip-path="url(#clip_0)"><clipPath id="clip_0"><rect width="980" height="377"></rect></clipPath><g><g><g><line x1="0" y1="0" x2="0" y2="377" fill="rgb(0, 0, 0)" stroke="rgb(66, 66, 66)" stroke-width="1px" opacity="0.25"></line><line x1="81.71666666666665" y1="0" x2="81.71666666666665" y2="377" fill="rgb(0, 0, 0)" stroke="rgb(66, 66, 66)" stroke-width="1px" opacity="0.25"></line><line x1="163.4333333333333" y1="0" x2="163.4333333333333" y2="377" fill="rgb(0, 0, 0)" stroke="rgb(66, 66, 66)" stroke-width="1px" opacity="0.25"></line><line x1="245.14999999999998" y1="0" x2="245.14999999999998" y2="377" fill="rgb(0, 0, 0)" stroke="rgb(66, 66, 66)" stroke-width="1px" opacity="0.25"></line><line x1="326.8666666666666" y1="0" x2="326.8666666666666" y2="377" fill="rgb(0, 0, 0)" stroke="rgb(66, 66, 66)" stroke-width="1px" opacity="0.25"></line><line x1="408.5833333333333" y1="0" x2="408.5833333333333" y2="377" fill="rgb(0, 0, 0)" stroke="rgb(66, 66, 66)" stroke-width="1px" opacity="0.25"></line><line x1="490.29999999999995" y1="0" x2="490.29999999999995" y2="377" fill="rgb(0, 0, 0)" stroke="rgb(66, 66, 66)" stroke-width="1px" opacity="0.25"></line><line x1="572.0166666666667" y1="0" x2="572.0166666666667" y2="377" fill="rgb(0, 0, 0)" stroke="rgb(66, 66, 66)" stroke-width="1px" opacity="0.25"></line><line x1="653.7333333333332" y1="0" x2="653.7333333333332" y2="377" fill="rgb(0, 0, 0)" stroke="rgb(66, 66, 66)" stroke-width="1px" opacity="0.25"></line><line x1="735.4499999999999" y1="0" x2="735.4499999999999" y2="377" fill="rgb(0, 0, 0)" stroke="rgb(66, 66, 66)" stroke-width="1px" opacity="0.25"></line><line x1="817.1666666666666" y1="0" x2="817.1666666666666" y2="377" fill="rgb(0, 0, 0)" stroke="rgb(66, 66, 66)" stroke-width="1px" opacity="0.25"></line><line x1="898.8833333333332" y1="0" x2="898.8833333333332" y2="377" fill="rgb(0, 0, 0)" stroke="rgb(66, 66, 66)" stroke-width="1px" opacity="0.25"></line><line x1="980.5999999999999" y1="0" x2="980.5999999999999" y2="377" fill="rgb(0, 0, 0)" stroke="rgb(66, 66, 66)" stroke-width="1px" opacity="0.25"></line></g><g><line x1="0" y1="377" x2="980.5999999999999" y2="377" fill="rgb(0, 0, 0)" stroke="rgb(66, 66, 66)" stroke-width="1px" opacity="0.25"></line><line x1="0" y1="345.5833333333333" x2="980.5999999999999" y2="345.5833333333333" fill="rgb(0, 0, 0)" stroke="rgb(66, 66, 66)" stroke-width="1px" opacity="0.25"></line><line x1="0" y1="314.1666666666667" x2="980.5999999999999" y2="314.1666666666667" fill="rgb(0, 0, 0)" stroke="rgb(66, 66, 66)" stroke-width="1px" opacity="0.25"></line><line x1="0" y1="282.75" x2="980.5999999999999" y2="282.75" fill="rgb(0, 0, 0)" stroke="rgb(66, 66, 66)" stroke-width="1px" opacity="0.25"></line><line x1="0" y1="251.33333333333337" x2="980.5999999999999" y2="251.33333333333337" fill="rgb(0, 0, 0)" stroke="rgb(66, 66, 66)" stroke-width="1px" opacity="0.25"></line><line x1="0" y1="219.91666666666663" x2="980.5999999999999" y2="219.91666666666663" fill="rgb(0, 0, 0)" stroke="rgb(66, 66, 66)" stroke-width="1px" opacity="0.25"></line><line x1="0" y1="188.5" x2="980.5999999999999" y2="188.5" fill="rgb(0, 0, 0)" stroke="rgb(66, 66, 66)" stroke-width="1px" opacity="0.25"></line><line x1="0" y1="157.08333333333331" x2="980.5999999999999" y2="157.08333333333331" fill="rgb(0, 0, 0)" stroke="rgb(66, 66, 66)" stroke-width="1px" opacity="0.25"></line><line x1="0" y1="125.66666666666669" x2="980.5999999999999" y2="125.66666666666669" fill="rgb(0, 0, 0)" stroke="rgb(66, 66, 66)" stroke-width="1px" opacity="0.25"></line><line x1="0" y1="94.25" x2="980.5999999999999" y2="94.25" fill="rgb(0, 0, 0)" stroke="rgb(66, 66, 66)" stroke-width="1px" opacity="0.25"></line><line x1="0" y1="62.83333333333332" x2="980.5999999999999" y2="62.83333333333332" fill="rgb(0, 0, 0)" stroke="rgb(66, 66, 66)" stroke-width="1px" opacity="0.25"></line><line x1="0" y1="31.416666666666682" x2="980.5999999999999" y2="31.416666666666682" fill="rgb(0, 0, 0)" stroke="rgb(66, 66, 66)" stroke-width="1px" opacity="0.25"></line><line x1="0" y1="0" x2="980.5999999999999" y2="0" fill="rgb(0, 0, 0)" stroke="rgb(66, 66, 66)" stroke-width="1px" opacity="0.25"></line></g></g></g><g><g><line x1="0" y1="471.25" x2="980.5999999999999" y2="471.25" fill="rgb(0, 0, 0)" stroke="rgb(153, 153, 153)" stroke-width="1.5px"></line></g></g><g><g><line x1="81.71666666666665" y1="0" x2="81.71666666666665" y2="377" fill="rgb(0, 0, 0)" stroke="rgb(153, 153, 153)" stroke-width="1.5px"></line></g></g><g><g><g><g><g><path stroke="rgb(204, 51, 17)" stroke-width="2px" d="M96.26223333333333,382.8887611694336L97.89656666666666,373.22169329833986L98.5503,372.1857716674805L99.20403333333333,369.1359005737305L101.49209999999998,357.3014738769531L102.14583333333333,358.01492980957033L102.30926666666666,356.86334330240885L102.63613333333333,351.763488688151L102.96299999999998,348.88650130208333L103.94359999999999,344.616058959961L105.25106666666666,350.3908350016276L105.57793333333332,350.40134301757814L105.74136666666666,344.52064310709636L106.23166666666665,351.4675614827474L107.3757,342.8040935058594L107.86599999999999,347.6944704386393L108.19286666666666,344.13726926676435L108.51973333333332,342.27671382649737L109.82719999999999,335.9146700846354L110.64436666666666,336.29463073730466L111.7884,341.1869175211588L111.95183333333333,331.6036223144531L112.93243333333332,337.5240379231771L113.09586666666665,341.79472570800783L114.89363333333333,344.1637770792643L115.22049999999999,335.817566813151L116.52796666666666,327.2372732340495L116.85483333333333,330.97042614746096L118.32573333333333,334.27229020182295L119.14289999999998,337.7858639322917L121.5944,330.0066953531901L121.75783333333332,324.6498775634766L123.88246666666664,325.49352551269527L124.04589999999999,326.67741841634114L126.0071,321.8390830078125L126.49739999999998,324.4029621988932L127.80486666666665,325.65514953613285L128.29516666666666,326.3556583658854L128.78546666666665,324.150616414388L129.1123333333333,322.8443243001302L129.9295,320.40275227864583L130.25636666666665,321.43827506510416L130.41979999999998,319.54534419759113L132.0541333333333,318.555596476237L132.70786666666666,316.14452071126306L133.3616,319.50570520019534L133.68846666666664,317.2042042643229L133.8519,321.09194006347656L134.3422,322.2386330566406L138.10116666666667,318.40800870768226L138.26459999999997,314.73169112141926L140.22579999999996,312.1035826416015L141.20639999999997,315.63970642089845L141.36983333333333,312.9676943766276L141.53326666666666,310.7508251546224L143.49446666666665,311.7682925618489L144.80193333333332,313.47112805175783L145.45566666666667,303.0719506022135L145.78253333333333,313.23186743164064L146.59969999999998,306.09666381835933L147.41686666666666,304.7836373697917L147.74373333333332,305.7069314778646L149.54149999999998,301.2622401529948L150.5221,297.6035944417318L150.68553333333332,300.26991528320315L152.97359999999998,301.0783728841146L153.13703333333333,299.03690315755205L153.4639,301.23686751302085L154.60793333333334,305.01547334798175L155.58853333333332,296.18596337890625L156.24226666666664,300.6097613932292L157.05943333333335,295.6118115234375L157.71316666666664,298.9138136393229L158.20346666666666,293.7583355712891L158.53033333333332,293.2639832763672L159.18406666666664,297.6359161783854L159.3475,294.4644895833333L160.16466666666665,289.65997924804685L160.32809999999998,294.53597477213543L161.3087,296.29880566406246L165.06766666666664,285.78637174479167L165.3945333333333,284.75947013346354L165.55796666666666,285.56354044596355L165.7214,291.99647111002605L166.2117,288.99550447591145L166.53856666666667,284.6096733805338L168.82663333333332,284.15686226399737L168.99006666666665,290.8289768473307L169.3169333333333,281.1693642985026L169.64379999999997,288.50673600260416L169.97066666666666,280.77409415690107L170.62439999999998,286.01892871093753L170.95126666666667,279.72570096842446L171.60499999999996,279.7262685546875L171.93186666666665,276.83449324544273L172.58559999999997,284.5585599365234L173.56619999999998,277.06467248535154L173.89306666666667,278.6997044270833L174.54679999999996,274.29474414062497L177.16173333333333,275.7836609700521L177.32516666666666,275.03667142740886L177.81546666666665,273.5268306070964L178.1423333333333,276.61408569335936L178.79606666666663,276.9610343017578L179.12293333333332,275.7179743652344L181.9013,273.50105912272136L182.06473333333332,267.2529774983724L183.3722,269.99066080729165L183.53563333333332,271.4054846191406L184.35279999999997,272.05291646321615L184.51623333333333,270.0754919433594L185.16996666666665,273.12384436035154L185.82369999999997,269.2653162434896L186.80429999999998,270.7645109863281L186.9677333333333,269.25858190917967L187.7849,265.68215950520835L188.11176666666665,267.80433386230465L189.2558,264.4583821614583L189.58266666666665,265.05721634928386L190.7267,262.9171400146484L192.03416666666664,261.73810994466146L192.1976,264.40272802734376L193.50506666666664,258.33450988769533L194.8125333333333,254.9807653808594L195.1394,255.6746319173177L197.7543333333333,257.37801965332034L199.55209999999997,250.2525263671875L199.87896666666666,250.2456386311849L200.20583333333332,256.51758955891927L200.36926666666665,259.50329272460937L200.6961333333333,248.28198958333337L200.85956666666667,255.11999275716144L201.1864333333333,253.6519385579427L201.34986666666666,251.51290535481775L201.51329999999996,251.76917822265625L202.33046666666667,250.5629960530599L203.31106666666665,251.7630574951172L206.5797333333333,249.14774271647138L207.88719999999998,245.52230847167968L208.37749999999997,249.28996142578123L208.54093333333333,244.75465572102863L208.8678,241.7823291829427L209.19466666666665,245.11363102213542L209.5215333333333,243.7865529785156L210.50213333333332,245.65762410481773L213.11706666666663,243.24591939290366L213.2805,247.2175352376302L213.60736666666665,240.92998335774737L214.09766666666664,245.68258256022136L215.4051333333333,245.9420615234375L215.56856666666664,244.10452400716147L217.03946666666664,237.8779032796224L217.6932,240.8930442301432L219.00066666666663,237.10208955891926L219.49096666666665,237.18782576497395L219.8178333333333,233.37901513671875L221.7790333333333,235.69740559895834L222.59619999999998,233.82997009277344L223.2499333333333,241.89722705078123L224.06709999999998,237.05261751302083L226.1917333333333,231.16926375325522L226.5186,234.82496415201823L227.4992,234.77325244140627L227.9895,230.30093347167968L228.31636666666665,419.20839521280925L228.9701,233.04490625L229.1335333333333,234.57320129394535L230.1141333333333,232.55257885742185L233.38279999999997,229.56414514160153L233.70966666666666,227.8000103352865L234.03653333333332,230.9726181233724L235.67086666666665,231.83883146158854L236.81489999999997,223.2422312825521L239.10296666666665,230.5298701578776L241.7179,229.2755045166016L242.20819999999998,228.04375028483074L243.8425333333333,223.20268432617186L244.16939999999997,228.84260493977862L244.98656666666665,227.91045955403646L245.47686666666667,223.97305228678383L245.8037333333333,225.36541809082033L247.6015,222.63328792317708L248.7455333333333,222.83866210937498L249.39926666666668,223.61616324869792L249.7261333333333,221.3743815917969L251.03359999999998,219.98456225585937L251.1970333333333,222.43832971191404L254.30226666666667,223.4501212565104L254.956,219.4245847167969L256.5903333333333,224.42004947916666L256.7537666666666,221.4847694498698L257.0806333333333,216.62379195149737L257.73436666666663,218.91148673502607L259.2052666666666,222.31231022135415L261.1664666666666,211.04044588216144L261.8202,215.18023600260415L262.1470666666666,216.25713122558594L262.6373666666666,218.68388464355468L262.9642333333333,210.4131863606771L263.2911,218.64067138671876L264.92543333333333,213.81419392903646L265.0888666666666,208.2292371419271L265.57916666666665,211.84537524414063L265.7426,209.33784049479166L266.2329,215.11616011555986L266.7232,209.1204396158854L267.0500666666666,370.3356015218099L267.86723333333333,213.85539762369794L269.01126666666664,212.15886694335939L269.8284333333333,219.0188065592448L269.9918666666666,213.38028190104168L271.95306666666664,206.54436499023439L273.5874,210.93910872395833L273.9142666666666,204.3575625L274.0777,209.23493863932293L275.2217333333333,208.34815413411457L276.03889999999996,204.49111401367188L276.69263333333333,203.43334798177085L276.8560666666666,210.71977498372397L278.8172666666666,203.24699560546873L280.1247333333333,204.09180940755206L280.77846666666665,207.17183927408854L281.5956333333333,201.43305126953126L281.92249999999996,205.50114143880205L282.57623333333333,201.71739664713542L285.02773333333334,202.0776758626302L285.35459999999995,194.42553922526042L286.17176666666666,200.99119303385416L286.33519999999993,485.9120513356526L290.25759999999997,484.72610860188803L291.23819999999995,328.2295827636719L291.72849999999994,280.80087809244793L292.54566666666665,229.27777486165363L293.03596666666664,217.38270080566403L293.85313333333335,214.00376774088542L294.50686666666667,218.51771993001302L295.1606,212.26370166015622L296.63149999999996,212.89924487304685L297.77553333333327,203.26024951171874L298.26583333333326,202.44356958007813L298.42926666666665,205.00902880859374L299.9001666666667,198.57919685872395L301.5345,198.47028165690102L303.00539999999995,191.52029524739584L303.986,193.93450040690104L304.6397333333333,197.18922412109376L306.4375,194.0312048339844L306.6009333333333,192.0069160970052L307.25466666666665,192.97190478515628L308.23526666666663,188.96094140625L308.88899999999995,181.1915751953125L309.3793,186.66368969726562L313.3017,184.35361360677084L316.4069333333333,182.5083446451823L316.7338,181.01933577473957L316.8972333333333,179.03263045247394L317.06066666666663,178.36573193359374L318.5315666666666,186.63285595703124L319.8390333333333,180.0335764973958L320.00246666666663,180.7630322265625L320.3293333333333,176.79913248697918L320.4927666666666,176.96545060221354L322.6174,173.07233040364585L322.94426666666664,173.59306778971356L324.7420333333333,173.800681640625L325.2323333333333,177.9439079589844L325.88606666666664,176.67048982747397L326.5398,174.55517252604167L327.1935333333333,171.5844567057292L328.33756666666665,172.32974348958334L328.501,177.58476391601565L328.99129999999997,173.66476774088542L329.4816,174.5309043782552L331.4428,182.2465186360677L332.4234,168.72912963867188L332.9137,175.24327115885418L333.07713333333334,167.97387174479167L334.71146666666664,165.97210237630208L335.20176666666663,174.1840324707031L336.9995333333333,166.85020434570313L337.4898333333333,164.8933816731771L337.9801333333333,171.79783846028647L338.79729999999995,170.71739965820314L339.28759999999994,171.10302083333335L340.75849999999997,171.10461621093748L342.55626666666666,171.79547607421878L343.3734333333333,163.9554530436198L343.70029999999997,164.4317652994792L347.62269999999995,166.81541284179684L348.93016666666665,162.56256567382815L349.2570333333333,167.20066585286457L349.7473333333333,162.20529313151042L350.72793333333334,165.7237450358073L350.8913666666666,165.54110498046876L352.0354,156.5775986328125L353.3428666666666,158.87132210286455L353.99659999999994,165.08396793619792L354.6503333333333,167.89140299479166L355.30406666666664,159.7636904296875L355.79436666666663,160.67360791015625L356.12123333333335,160.04048844401044L357.10183333333333,160.38420027669272L358.57273333333325,156.80555354817707L359.88019999999995,154.246751953125L360.20706666666666,151.8092910970052L360.69736666666665,153.9469130045573L361.02423333333326,161.91643774414064L361.18766666666664,151.33822517903647L361.3511,157.4182705891927L362.4951333333333,151.4481221516927L363.14886666666666,158.00567635091147L363.31229999999994,157.34092545572918L364.4563333333333,152.1012451985677L365.76379999999995,159.52395426432292L365.9272333333333,149.7049880371094L366.58096666666665,151.1014650065104L366.90783333333326,151.43980777994793L368.3787333333333,157.72900105794272L370.1765,158.01472705078126L371.8108333333333,157.63533398437502L372.1377,147.69702124023436L373.2817333333333,154.31114998372396L373.44516666666664,147.76461002604165L374.09889999999996,147.2379206542969L374.58919999999995,145.21249674479165L375.89666666666665,152.52178059895832L379.0019,147.92344213867187L379.6556333333333,146.66401424153645L380.7996666666666,146.36396053059897L381.7802666666666,149.48261694335937L382.1071333333333,148.15609114583336L383.5780333333333,153.2710558268229L384.2317666666666,140.7355910644531L385.70266666666663,144.58226123046876L386.5198333333333,134.44434220377602L386.6832666666666,145.62652791341145L386.8467,141.58807495117188L389.4616333333333,425.0157652791341L390.2788,138.86694368489586L391.4228333333333,147.00625341796874L392.0765666666666,138.97616569010415L392.5668666666666,135.72760872395833L393.5474666666666,141.03457096354165L393.7109,142.92987955729168L393.8743333333333,135.70499731445312L394.3646333333333,138.09659106445312L395.1818,143.2035788574219L396.1624,139.70945646158856L396.3258333333333,155.71492887369791L397.9601666666666,144.84482356770835L398.1236,139.1823682454427L398.77733333333333,137.13341251627602L398.9407666666666,141.03119612630206L399.5944999999999,135.63888118489584L399.92136666666664,135.59206298828127L400.9019666666666,139.0480497233073L401.3922666666666,139.35494514973956L402.04599999999994,141.63814526367187L402.2094333333333,139.86776700846352L402.5362999999999,141.4330472005208L402.6997333333333,139.9483028971354L403.0265999999999,135.42482446289063L404.8243666666666,193.32702970377605L405.1512333333333,134.97167586263024L406.45869999999996,145.26014331054685L406.6221333333333,141.8086359049479L407.1124333333333,139.48598087565105L412.83259999999996,139.34583308919272L414.4669333333333,138.61521150716146L416.26469999999995,130.7037646484375L417.4087333333333,129.51778548177086L417.57216666666665,137.81304337565103L419.53336666666667,133.49248470052083L420.02366666666666,131.1885446777344L421.4945666666666,133.25369962565105L423.12889999999993,148.16124544270835L424.43636666666663,128.24513435872396L424.9266666666666,124.76070694986977L425.41696666666667,126.56787093098957L426.39756666666665,122.70865250651039L427.2147333333333,125.54716674804686L427.37816666666663,126.56280867513021L428.03189999999995,120.74977425130207L428.1953333333333,130.06245353190107L429.33936666666665,127.2061140136719L430.8102666666666,132.09076139322917L431.30056666666667,124.55180452473958L432.93489999999997,129.81836075846354L434.5692333333333,128.82189404296875L436.20356666666663,128.47612662760417L439.14536666666663,126.55740893554687L440.28939999999994,119.92824682617189L441.4334333333333,121.77532592773436L442.74089999999995,128.1332431640625L443.0677666666666,125.18842154947914L443.7215,123.69720369466147L444.7021,126.92443782552085L445.3558333333333,124.94540258789061L447.1536,122.17846557617187L447.6439,128.55426944986982L448.4610666666666,127.5810584309896L450.5857,119.19434244791667L454.50809999999996,126.11156225585937L457.6133333333333,125.46028002929687L458.4305,116.88985017903646L458.5939333333333,120.52169661458332L460.2282666666666,119.60033536783854L460.7185666666666,122.19386710611978L461.5357333333333,115.55194197591146L462.8431999999999,132.66752107747396L463.33349999999996,112.02723128255208L464.4775333333333,112.71747753906249L466.11186666666663,118.36394840494792L467.25589999999994,114.36163688151044L469.5439666666666,114.19694482421873L471.3417333333333,253.35521366373698L472.15889999999996,109.07136474609376L472.81263333333334,111.4492443847656L472.9760666666666,122.9173708496094L473.4663666666666,117.96102351888021L473.62979999999993,132.95800252278647L478.53279999999995,117.34238517252604L479.02309999999994,107.95825138346356L479.6768333333333,108.02133015950518L479.84026666666665,125.78886645507814L480.65743333333324,104.61651822916666L480.82086666666663,117.29259098307293L482.78206666666665,117.1594383138021L484.0895333333333,113.69937109374999L484.41639999999995,104.026228515625L484.5798333333333,107.19875960286457L487.84849999999994,104.02230143229166L489.15596666666664,94.8713688964844L489.9731333333333,95.97687353515627L490.29999999999995,103.51705761718752L490.7902999999999,105.23435888671875L491.11716666666666,97.71666349283852L491.28059999999994,103.99370735677086L493.0783666666666,102.66202726236978L493.24179999999996,104.42255712890625L493.4052333333333,104.31658723958334L493.7320999999999,96.09278385416665L494.05896666666666,104.85729752604166L494.8761333333333,98.59157470703126L495.203,98.21202823893228L496.5104666666666,133.21025626627605L500.92316666666665,91.67926375325521L501.0866,117.76675561523439L502.88436666666666,116.15861499023437L503.04779999999994,86.06641853841147L504.1918333333333,94.38125048828124L504.68213333333335,90.93198274739584L504.8455666666666,104.77630143229165L505.3358666666666,102.79821728515623L506.47989999999993,95.46500276692709L507.62393333333335,89.03467993164062L509.74856666666665,101.0678768717448L511.0560333333333,88.8443084309896L511.2194666666666,90.87022322591147L512.3634999999999,89.75947224934895L512.8538,83.18887890625001L513.0172333333333,90.86749267578125L513.1806666666666,93.23604549153644L513.6709666666667,86.13155289713544L516.7762,86.3626065266927L518.0836666666667,89.9878260091146L518.2470999999999,80.84600553385418L518.7374,87.76086295572915L519.8814333333333,85.05890690104168L520.3717333333333,87.41819425455729L520.6985999999999,100.27089371744792L521.1888999999999,88.92788167317708L521.8426333333333,87.43356510416666L523.3135333333332,102.0364551595052L524.2941333333332,95.19624300130208L524.9478666666666,88.42269921875001L525.1112999999999,186.0269192708333L525.7650333333333,84.47285107421874L525.9284666666666,85.3911749674479L526.0918999999999,121.23262141927084L526.9090666666666,92.82235180664063L527.7262333333333,85.35475740559897L527.8896666666666,79.01083040364583L528.5434,89.13021850585938L529.3605666666666,87.0635909016927L529.524,91.90206437174477L529.6874333333333,90.63475162760417L530.1777333333332,110.17880224609374L531.6486333333334,90.23983430989583L531.8120666666666,78.60710782877604L531.9754999999999,83.05658528645834L532.7926666666666,77.986720703125L533.6098333333333,85.37831990559896L534.1001333333332,81.72165307617186L534.5904333333333,81.84480395507812L534.9173,83.22210571289062L535.2441666666666,86.9839140625L535.7344666666667,86.9116618652344L536.8784999999999,82.32682275390626L538.8397,79.14177408854168L539.1665666666665,74.46759383138021L541.2912,75.76540283203126L541.4546333333333,79.43216349283853L543.2524,79.0385654296875L544.8867333333333,79.98081998697917L545.2136,83.62276025390625L545.5404666666666,87.3737998046875L546.5210666666667,74.05515804036457L547.6650999999999,79.98281420898438L547.8285333333332,72.83380444335937L548.6456999999999,79.86711865234375L549.2994333333334,69.87026782226563L549.4628666666666,66.5032233886719L550.1166,347.3757247314453L552.2412333333333,72.6753711751302L552.5681,88.6655954589844L552.7315333333332,80.47682902018227L554.2024333333334,72.2465214029948L554.5292999999999,72.81797338867187L554.8561666666666,72.7461200358073L556.1636333333333,70.24763598632812L557.4711,73.50999910481772L557.9613999999999,67.92703653971353L558.1248333333333,81.87131176757812L558.6151333333332,400.0550241902669L558.9419999999999,72.33727384440104L559.1054333333333,66.20807853190104L559.5957333333332,75.02069897460939L560.5763333333333,71.90839339192706L561.2300666666666,71.32292049153645L561.3934999999999,77.21771801757814L563.6815666666666,68.34539363606771L564.1718666666667,91.44213541666667L564.6621666666666,69.47651635742186L565.8061999999999,67.41682250976564L566.2964999999999,66.21439868164062L566.6233666666666,65.38719539388022L567.6039666666666,72.38001155598958L568.4211333333333,66.54421232096354L569.4017333333333,70.80749080403646L569.7285999999999,84.98285034179688L570.8726333333333,313.28155423990887L571.3629333333333,72.53804597981772L571.8532333333334,64.35848364257814L572.3435333333333,77.39716731770832L573.651,70.5691659342448L575.1219,65.7703621419271L575.9390666666667,91.85653474934897L576.7562333333333,64.97614021809893L577.5733999999999,61.30508430989584L579.6980333333332,66.41406632486976L580.0249,70.31154313151042L582.8032666666667,66.63300122070314L583.2935666666666,63.66207063802085L584.1107333333333,63.660229817708355L585.5816333333332,68.06835017903644L585.7450666666666,58.19940568033852L586.7256666666667,58.02228808593752L587.7062666666667,62.37226920572919L588.8503,62.45820483398437L589.0137333333333,73.82392032877605L589.1771666666666,61.30827506510415L589.5040333333333,79.43023063151043L590.1577666666666,59.73722696940103L590.6480666666666,64.42683943684895L590.8115,79.68518424479169L591.4652333333332,105.86287630208335L591.6286666666666,60.41412727864585L591.7921,60.898355061848974L592.6092666666666,67.18500187174479L592.9361333333333,362.2626073404948L594.5704666666666,60.30628588867186L595.7144999999999,68.39945239257813L597.3488333333332,87.29712963867186L600.2906333333333,58.85789778645832L601.1077999999999,60.15662719726563L602.5787,69.31415600585939L603.069,79.90767805989584L603.3958666666666,60.866324788411475L604.5399,55.025432617187484L605.1936333333332,54.82171516927083L605.3570666666666,66.52908691406252L606.6645333333333,101.35403238932292L607.3182666666665,60.58802343749999L607.4817,57.23518400065105L607.972,64.34480021158852L608.2988666666665,56.62709969075523L609.4429,76.06794165039061L610.7503666666667,60.08845548502605L611.4041,61.61118204752604L611.7309666666666,98.2378610839844L612.7115666666666,69.14093481445313L615.3264999999999,56.710090006510434L615.8168,58.815804361979154L616.7973999999999,55.48404231770832L617.7779999999999,55.21813582356773L620.0660666666665,60.634657552083326L620.7198,65.18381542968751L622.0272666666666,47.03025911458333L623.3347333333334,59.055264404296885L625.4593666666666,50.34640486653645L627.584,46.9109432779948L628.4011666666667,50.77117415364585L630.1989333333333,50.000974934895815L631.6698333333333,48.33895963541666L632.487,54.33435799153645L632.8138666666666,52.261134114583314L633.1407333333333,55.94139412434895L633.6310333333332,56.7149375L633.9578999999999,48.91216040039062L634.7750666666666,45.43727457682292L634.9384999999999,56.030275065104185L636.2459666666666,49.29005013020834L636.4094,74.59234008789065L636.8996999999999,52.289175944010424L638.0437333333332,50.02153076171873L638.5340333333332,51.7092255045573L638.6974666666666,47.011206624348965L638.8608999999999,48.75848258463541L640.3317999999999,48.97355175781249L640.9855333333333,46.63310213216145L641.6392666666666,51.533918050130204L642.9467333333332,49.578936197916676L643.7638999999999,55.18469425455728L646.2153999999999,55.12069506835938L646.3788333333333,46.57714119466147L647.0325666666666,49.01386572265624L647.3594333333333,46.17841951497394L648.5034666666666,59.75339550781251L649.1572,43.588416015625L650.6280999999999,46.45991162109374L650.7915333333332,49.49119042968751L650.9549666666667,54.63008577473959L651.1184,54.40756127929688L651.2818333333333,42.74102506510419L651.9355666666667,46.570268798828124L652.2624333333333,67.77535294596356L652.5892999999999,50.86975008138022L653.0796,50.48928320312501L653.5699,53.9961072591146L653.7333333333332,56.54711604817709L654.2236333333333,44.18073063151042L656.0214,46.33363134765625L657.002,47.628495035807276L657.9825999999999,47.88541219075522L659.4535,46.703452148437506L659.6169333333332,42.86730533854167L660.4341,49.538039306640634L660.9244,47.273922363281244L661.905,44.93543627929686L662.5587333333333,452.87261335754397L663.2124666666666,43.12560310872397L664.5199333333333,43.61882023111979L665.0102333333333,59.21888264973957L665.9908333333333,45.61583414713543L666.1542666666667,43.943448893229174L667.4617333333332,44.5815078938802L667.9520333333332,44.81891235351564L668.1154666666666,41.87246468098957L668.6057666666666,51.04536433919271L670.0766666666666,45.72769466145832L672.2013,47.85709423828126L672.3647333333332,45.760522623697895L672.5281666666666,59.98650472005208L672.6916,39.28911881510415L674.9796666666666,37.02742561848959L678.9020666666667,42.47680598958335L679.3923666666666,41.337430257161444L679.7192333333334,54.36924153645832L680.0460999999999,40.45067643229169L680.5363999999998,45.233495768229176L680.8632666666666,56.63581290690104L681.1901333333333,40.94018123372396L681.6804333333333,58.12525130208331L681.8438666666666,39.577974202473946L684.7856666666667,40.54032438151041L686.4199999999998,43.315422363281264L687.5640333333333,64.2449970703125L688.2177666666665,45.40834301757814L688.3811999999999,44.3515587565104L689.1983666666666,42.11772330729165L689.3617999999999,39.25537044270835L689.8521,67.04092700195311L691.6498666666666,50.439887858072915L691.8132999999999,64.43987858072919L693.7745,43.60486067708334L693.9379333333333,90.85083325195312L694.2647999999999,40.16933772786459L694.4282333333333,44.3829754231771L694.9185333333332,45.545392089843766L695.0819666666666,68.50585180664062L695.2453999999999,43.73506803385416L696.3894333333333,44.4858465983073L696.7162999999999,62.8655476888021L697.0431666666666,39.89330672200523L699.0043666666666,49.089124593098965L699.4946666666666,44.64925008138019L699.6581,38.26467163085939L699.8215333333333,46.67712841796875L699.9849666666665,70.03735294596356L700.6387,40.51243595377604L701.1289999999999,58.58413712565105L703.5804999999999,43.54242618815105L703.9073666666666,36.09775L704.8879666666666,45.37916601562502L705.2148333333332,38.145509195963555L705.8685666666665,61.38927115885416L706.5223,36.950049804687524L706.6857333333332,49.0542410481771L709.1372333333333,36.33877473958334L710.6081333333333,45.68099918619794L710.935,39.373274983723974L711.2618666666666,63.605833577473945L711.7521666666667,37.0252166341146L712.0790333333332,47.11153133138023L712.5693333333332,51.51351562499998L714.0402333333333,49.4633633626302L714.5305333333333,37.382918701171896L715.0208333333333,42.844878011067706L718.6163666666666,40.77162345377602L719.4335333333333,38.02386165364584L720.4141333333333,41.33835066731771L720.9044333333333,63.61206168619792L721.5581666666666,35.702924723307305L722.5387666666666,39.27282755533856L723.0290666666666,66.01230729166667L723.3559333333333,47.876422851562516L724.1731,38.983327880859385L724.4999666666666,36.60857763671877L724.9902666666666,90.60296679687502L727.7686333333332,37.33070076497397L728.4223666666666,40.89744352213542L729.7298333333332,58.80040283203124L729.8932666666666,38.450993326822925L731.3641666666666,47.13263940429688L732.3447666666666,34.03023266601561L732.5081999999999,38.62007267252605L732.6716333333333,32.33603369140626L733.1619333333333,39.540666910807296L734.1425333333333,52.2295947265625L734.9597,38.66520345052083L735.4499999999999,36.908754069010435L736.7574666666666,35.045475748697925L737.4111999999999,43.25525821940106L737.7380666666666,32.82799291992187L739.2089666666666,375.54635021972655L740.0261333333333,34.2056014811198L741.0067333333333,47.76440893554688L741.1701666666667,40.39993115234377L741.9873333333333,38.77770825195314L743.1313666666666,43.83846077473959L744.2754,38.99495572916666L746.0731666666667,46.930609374999996L746.2366,30.567066731770833L747.3806333333332,45.070276367187496L748.6880999999998,34.6126375325521L748.8515333333334,69.68271891276044L749.1783999999999,33.02609586588542L749.8321333333333,48.311347330729184L750.4858666666665,47.097326334635426L751.3030333333332,35.33227555338542L753.2642333333332,36.044427571614605L754.2448333333333,37.22356502278645L755.2254333333333,35.835218343098965L755.7157333333333,31.66873632812501L756.6963333333332,85.10756591796876L758.6575333333332,32.30161035156249L759.3112666666666,34.941990966796894L760.4552999999999,49.14263110351561L760.9455999999999,31.22190787760418L762.7433666666666,37.067616861979154L764.3776999999999,208.02889453125L764.5411333333332,104.54036962890626L765.0314333333333,45.318541666666675L766.0120333333333,37.11060001627604L766.8291999999999,31.44691748046873L769.2806999999999,43.24482690429686L769.4441333333332,32.961789876302085L770.7515999999999,29.682491210937517L771.5687666666666,32.837289062500005L772.5493666666666,31.776025472005227L772.8762333333333,34.74198583984375L773.0396666666666,57.38327799479167L774.0202666666665,59.57664607747396L775.6546,60.942657470703125L776.1448999999999,50.14477368164064L776.4717666666666,75.38554956054689L776.6351999999999,34.19998697916666L776.7986333333333,37.66695727539062L777.4523666666665,32.71334049479166L779.0867,37.004691487630225L779.2501333333332,58.34848144531251L779.577,31.75639005533854L781.2113333333332,40.22987003580728L781.3747666666666,34.0283611653646L784.1531333333332,56.76252270507811L785.2971666666665,34.805125976562515L785.9508999999999,28.15571484375L787.4218,109.39850919596353L788.2389666666666,27.5626638997396L789.0561333333333,33.721619140625016L790.0367333333332,46.14902775065102L791.5076333333333,36.7046991373698L792.1613666666666,33.67154882812499L792.8150999999999,38.955255371093735L794.286,30.870096435546873L795.1031666666665,30.983429606119774L796.0837666666665,36.99324772135416L796.9009333333332,35.55651814778644L797.3912333333333,340.23410892740884L797.5546666666667,30.20221614583334L798.6986999999999,36.47410571289062L800.0061666666666,33.849832275390604L801.3136333333333,35.516817789713556L801.9673666666665,34.30430013020832L802.4576666666666,41.14850073242187L802.9479666666666,33.46930403645835L803.1113999999999,37.051755126953104L804.4188666666666,33.49044278971355L804.7457333333332,64.6091726888021L806.5434999999999,35.1988467610677L807.8509666666665,30.377983805338527L808.8315666666666,32.720243570963554L809.6487333333332,34.92527018229167L810.3024666666666,38.64924967447917L811.6099333333333,49.90120247395833L815.3688999999999,36.71442480468748L816.3494999999999,34.799848958333314L817.0032333333334,50.47885188802081L819.4547333333333,35.39578385416668L820.4353333333332,58.65776993815102L820.9256333333332,34.848784098307284L821.2524999999999,44.586815592447905L822.3965333333333,37.1157236328125L822.8868333333332,31.916786865234357L823.5405666666666,41.158410481770844L824.1943,41.38056681315102L824.3577333333333,36.41345068359374L824.5211666666665,38.50413167317708L824.8480333333332,57.0140401204427L825.8286333333332,32.95473339843749L826.9726666666667,33.832129720052095L827.2995333333332,33.10957706705731L827.6263999999999,30.429281331380224L828.2801333333333,44.48909871419271L828.7704333333332,49.85002766927082L828.9338666666666,27.384411132812488L829.2607333333333,43.53668896484376L830.5681999999999,33.59460253906251L831.8756666666667,36.71770760091144L832.2025333333332,47.61610017903647L834.4905999999999,33.245613688151025L834.9808999999999,31.01521443684897L835.4712,65.49522086588543L837.1055333333333,29.763763427734375L837.7592666666666,28.29101513671873L838.2495666666666,31.04540388997397L840.7010666666665,34.327095621744775L841.5182333333332,52.731156901041686L841.6816666666665,49.73442415364584L842.3353999999999,31.525183024088523L842.9891333333333,29.558205159505228L843.1525666666666,37.53460229492187L843.3159999999999,31.500853515625003L843.6428666666666,71.16761661783853L844.4600333333332,33.31436832682292L844.6234666666666,41.985214925130194L844.7869,40.87467871093751L846.2577999999999,37.87625854492186L847.5652666666665,33.106907877604186L848.2189999999999,31.255349446614588L848.5458666666666,38.30010742187499L849.5264666666666,35.80079500325519L850.8339333333333,34.0497146809896L850.9973666666666,32.53039363606772L851.9779666666666,32.83790266927083L852.4682666666665,33.99068570963542L853.7757333333333,38.23353108723957L854.7563333333333,34.608679768880215L855.2466333333332,61.305452473958326L855.4100666666666,38.540579915364596L855.9003666666666,33.69670670572918L856.3906666666666,35.139695068359366L856.8809666666666,38.74730403645835L858.8421666666666,337.4505891927083L859.4958999999999,32.66308610026042L860.6399333333333,49.714573974609394L861.6205333333332,102.05891316731771L862.1108333333333,33.176521565755216L862.2742666666666,38.774272054036445L862.4376999999998,47.21740917968749L862.9279999999999,31.711320638020815L863.0914333333333,32.71929248046874L864.2354666666665,46.37590885416666L864.5623333333333,37.96173396809895L864.8892,69.6148233235677L865.8697999999999,40.47310375976561L866.8503999999999,37.020614583333334L867.3406999999999,34.599813151041666L867.8309999999999,36.1314063313802L868.1578666666666,38.61013224283853L868.4847333333333,35.32101586914064L871.0996666666665,35.12398673502606L871.4265333333333,36.35472851562499L871.7533999999999,45.360911214192726L871.9168333333332,98.60685351562498L872.0802666666666,33.81844628906249L873.2242999999999,39.0164933268229L873.3877333333334,79.19248868815104L876.3295333333333,42.1653085123698L876.8198333333332,36.73338525390625L878.6175999999999,36.360619140624976L879.5981999999999,32.68983935546876L881.7228333333333,45.15081225585937L882.7034333333332,34.596561035156256L882.8668666666666,35.71881713867186L883.8474666666666,44.43945792643231L884.1743333333332,85.52816267903647L884.8280666666666,41.772600179036445L886.6258333333333,37.95924886067707L886.9526999999999,36.6961700032552L887.2795666666666,60.159173665364605L887.9332999999999,35.60385791015625L888.2601666666666,35.24910115559897L889.0773333333332,39.68283959960938L889.7310666666666,36.53209155273438L890.5482333333333,38.3296219075521L895.2878,123.16170906575519L895.6146666666666,43.68070247395834L897.2489999999999,42.658709716796864L897.4124333333333,47.542221923828116L901.1714,41.54351009114582L901.8251333333333,42.02427099609374L902.3154333333333,39.30823266601561L902.6422999999999,34.424352294921874L902.9691666666665,35.29045825195311L906.5646999999999,34.504029134114575L908.3624666666666,41.2254777018229L908.5258999999999,39.5792627766927L908.8527666666665,28.80441992187502L909.1796333333333,37.53358984374999L909.6699333333332,32.9807196451823L911.3042666666666,26.78574568684895L911.7945666666666,35.882036539713546L911.958,235.74558907063803L912.9386,44.55346606445314L913.2654666666666,49.395253011067716L913.5923333333333,46.18167163085939L914.4094999999999,56.45326489257814L914.7363666666665,80.06709309895834L915.3901,43.85011930338541L915.7169666666665,45.22874031575522L918.8222,76.40340047200519L919.4759333333333,48.2226504720052L920.4565333333333,49.09458569335936L921.1102666666666,38.99296150716147L921.7639999999999,36.89988745117189L922.9080333333333,69.38291064453125L923.5617666666666,88.1574676920573L923.7251999999999,40.04710725911459L924.0520666666666,39.82139200846356L924.2154999999999,37.35098046875L926.1766999999999,38.734356933593766L927.6475999999999,54.92642716471352L929.4453666666666,52.2349024251302L931.0796999999999,37.00800496419269L931.2431333333333,45.97730989583332L931.5699999999998,64.5899054361979L932.3871666666665,36.778730794270814L932.7140333333333,34.68906225585939L933.5311999999999,34.46681388346352L934.5117999999999,34.25959887695313L935.6558333333332,35.97530476888021L936.3095666666666,78.68252010091146L937.7804666666666,34.6445450846354L938.4341999999999,54.772657307942715" style="fill: none;" fill="none"></path></g></g></g></g></g></g><g transform="translate(70, 377)" clip-path="url(#clip_1)"><clipPath id="clip_1"><rect width="980" height="23"></rect></clipPath><g><g><line x1="0" y1="0" x2="0" y2="5" style="visibility: inherit;" fill="rgb(0, 0, 0)" stroke="rgb(204, 204, 204)" stroke-width="1px"></line><line x1="81.71666666666665" y1="0" x2="81.71666666666665" y2="5" style="visibility: inherit;" fill="rgb(0, 0, 0)" stroke="rgb(204, 204, 204)" stroke-width="1px"></line><line x1="163.4333333333333" y1="0" x2="163.4333333333333" y2="5" style="visibility: inherit;" fill="rgb(0, 0, 0)" stroke="rgb(204, 204, 204)" stroke-width="1px"></line><line x1="245.14999999999998" y1="0" x2="245.14999999999998" y2="5" style="visibility: inherit;" fill="rgb(0, 0, 0)" stroke="rgb(204, 204, 204)" stroke-width="1px"></line><line x1="326.8666666666666" y1="0" x2="326.8666666666666" y2="5" style="visibility: inherit;" fill="rgb(0, 0, 0)" stroke="rgb(204, 204, 204)" stroke-width="1px"></line><line x1="408.5833333333333" y1="0" x2="408.5833333333333" y2="5" style="visibility: inherit;" fill="rgb(0, 0, 0)" stroke="rgb(204, 204, 204)" stroke-width="1px"></line><line x1="490.29999999999995" y1="0" x2="490.29999999999995" y2="5" style="visibility: inherit;" fill="rgb(0, 0, 0)" stroke="rgb(204, 204, 204)" stroke-width="1px"></line><line x1="572.0166666666667" y1="0" x2="572.0166666666667" y2="5" style="visibility: inherit;" fill="rgb(0, 0, 0)" stroke="rgb(204, 204, 204)" stroke-width="1px"></line><line x1="653.7333333333332" y1="0" x2="653.7333333333332" y2="5" style="visibility: inherit;" fill="rgb(0, 0, 0)" stroke="rgb(204, 204, 204)" stroke-width="1px"></line><line x1="735.4499999999999" y1="0" x2="735.4499999999999" y2="5" style="visibility: inherit;" fill="rgb(0, 0, 0)" stroke="rgb(204, 204, 204)" stroke-width="1px"></line><line x1="817.1666666666666" y1="0" x2="817.1666666666666" y2="5" style="visibility: inherit;" fill="rgb(0, 0, 0)" stroke="rgb(204, 204, 204)" stroke-width="1px"></line><line x1="898.8833333333332" y1="0" x2="898.8833333333332" y2="5" style="visibility: inherit;" fill="rgb(0, 0, 0)" stroke="rgb(204, 204, 204)" stroke-width="1px"></line><line x1="980.5999999999999" y1="0" x2="980.5999999999999" y2="5" style="visibility: inherit;" fill="rgb(0, 0, 0)" stroke="rgb(204, 204, 204)" stroke-width="1px"></line></g><g transform="translate(0, 8)"><text x="0" y="0" dx="0em" dy="0.95em" style="text-anchor: middle; visibility: hidden; font-family: Roboto, sans-serif; font-size: 12px; font-weight: 200;" fill="rgb(33, 33, 33)" stroke="none" stroke-width="1px">-500</text><text x="81.71666666666665" y="0" dx="0em" dy="0.95em" style="text-anchor: middle; visibility: inherit; font-family: Roboto, sans-serif; font-size: 12px; font-weight: 200;" fill="rgb(33, 33, 33)" stroke="none" stroke-width="1px">0</text><text x="163.4333333333333" y="0" dx="0em" dy="0.95em" style="text-anchor: middle; visibility: inherit; font-family: Roboto, sans-serif; font-size: 12px; font-weight: 200;" fill="rgb(33, 33, 33)" stroke="none" stroke-width="1px">500</text><text x="245.14999999999998" y="0" dx="0em" dy="0.95em" style="text-anchor: middle; visibility: inherit; font-family: Roboto, sans-serif; font-size: 12px; font-weight: 200;" fill="rgb(33, 33, 33)" stroke="none" stroke-width="1px">1k</text><text x="326.8666666666666" y="0" dx="0em" dy="0.95em" style="text-anchor: middle; visibility: inherit; font-family: Roboto, sans-serif; font-size: 12px; font-weight: 200;" fill="rgb(33, 33, 33)" stroke="none" stroke-width="1px">1.5k</text><text x="408.5833333333333" y="0" dx="0em" dy="0.95em" style="text-anchor: middle; visibility: inherit; font-family: Roboto, sans-serif; font-size: 12px; font-weight: 200;" fill="rgb(33, 33, 33)" stroke="none" stroke-width="1px">2k</text><text x="490.29999999999995" y="0" dx="0em" dy="0.95em" style="text-anchor: middle; visibility: inherit; font-family: Roboto, sans-serif; font-size: 12px; font-weight: 200;" fill="rgb(33, 33, 33)" stroke="none" stroke-width="1px">2.5k</text><text x="572.0166666666667" y="0" dx="0em" dy="0.95em" style="text-anchor: middle; visibility: inherit; font-family: Roboto, sans-serif; font-size: 12px; font-weight: 200;" fill="rgb(33, 33, 33)" stroke="none" stroke-width="1px">3k</text><text x="653.7333333333332" y="0" dx="0em" dy="0.95em" style="text-anchor: middle; visibility: inherit; font-family: Roboto, sans-serif; font-size: 12px; font-weight: 200;" fill="rgb(33, 33, 33)" stroke="none" stroke-width="1px">3.5k</text><text x="735.4499999999999" y="0" dx="0em" dy="0.95em" style="text-anchor: middle; visibility: inherit; font-family: Roboto, sans-serif; font-size: 12px; font-weight: 200;" fill="rgb(33, 33, 33)" stroke="none" stroke-width="1px">4k</text><text x="817.1666666666666" y="0" dx="0em" dy="0.95em" style="text-anchor: middle; visibility: inherit; font-family: Roboto, sans-serif; font-size: 12px; font-weight: 200;" fill="rgb(33, 33, 33)" stroke="none" stroke-width="1px">4.5k</text><text x="898.8833333333332" y="0" dx="0em" dy="0.95em" style="text-anchor: middle; visibility: inherit; font-family: Roboto, sans-serif; font-size: 12px; font-weight: 200;" fill="rgb(33, 33, 33)" stroke="none" stroke-width="1px">5k</text><text x="980.5999999999999" y="0" dx="0em" dy="0.95em" style="text-anchor: middle; visibility: hidden; font-family: Roboto, sans-serif; font-size: 12px; font-weight: 200;" fill="rgb(33, 33, 33)" stroke="none" stroke-width="1px">5.5k</text></g><line x1="0" y1="0" x2="980.5999999999999" y2="0" fill="rgb(0, 0, 0)" stroke="rgb(204, 204, 204)" stroke-width="1px"></line></g></g></g></g></svg>