<svg viewBox="0 0 1050.5999755859375 400" xmlns="http://www.w3.org/2000/svg"><g><g><g><g><g><line x1="72.34375" y1="377" x2="67.34375" y2="377" style="visibility: inherit;" fill="rgb(0, 0, 0)" stroke="rgb(204, 204, 204)" stroke-width="1px"></line><line x1="72.34375" y1="335.1111111111111" x2="67.34375" y2="335.1111111111111" style="visibility: inherit;" fill="rgb(0, 0, 0)" stroke="rgb(204, 204, 204)" stroke-width="1px"></line><line x1="72.34375" y1="293.22222222222223" x2="67.34375" y2="293.22222222222223" style="visibility: inherit;" fill="rgb(0, 0, 0)" stroke="rgb(204, 204, 204)" stroke-width="1px"></line><line x1="72.34375" y1="251.33333333333337" x2="67.34375" y2="251.33333333333337" style="visibility: inherit;" fill="rgb(0, 0, 0)" stroke="rgb(204, 204, 204)" stroke-width="1px"></line><line x1="72.34375" y1="209.44444444444446" x2="67.34375" y2="209.44444444444446" style="visibility: inherit;" fill="rgb(0, 0, 0)" stroke="rgb(204, 204, 204)" stroke-width="1px"></line><line x1="72.34375" y1="167.55555555555554" x2="67.34375" y2="167.55555555555554" style="visibility: inherit;" fill="rgb(0, 0, 0)" stroke="rgb(204, 204, 204)" stroke-width="1px"></line><line x1="72.34375" y1="125.66666666666669" x2="67.34375" y2="125.66666666666669" style="visibility: inherit;" fill="rgb(0, 0, 0)" stroke="rgb(204, 204, 204)" stroke-width="1px"></line><line x1="72.34375" y1="83.77777777777777" x2="67.34375" y2="83.77777777777777" style="visibility: inherit;" fill="rgb(0, 0, 0)" stroke="rgb(204, 204, 204)" stroke-width="1px"></line><line x1="72.34375" y1="41.88888888888891" x2="67.34375" y2="41.88888888888891" style="visibility: inherit;" fill="rgb(0, 0, 0)" stroke="rgb(204, 204, 204)" stroke-width="1px"></line><line x1="72.34375" y1="0" x2="67.34375" y2="0" style="visibility: inherit;" fill="rgb(0, 0, 0)" stroke="rgb(204, 204, 204)" stroke-width="1px"></line></g><g transform="translate(62.34375, 0)"><text x="0" y="377" dx="0em" dy="0.3em" style="text-anchor: end; visibility: hidden; font-family: Roboto, sans-serif; font-size: 12px; font-weight: 200;" fill="rgb(33, 33, 33)" stroke="none" stroke-width="1px">-500</text><text x="0" y="335.1111111111111" dx="0em" dy="0.3em" style="text-anchor: end; visibility: inherit; font-family: Roboto, sans-serif; font-size: 12px; font-weight: 200;" fill="rgb(33, 33, 33)" stroke="none" stroke-width="1px">0</text><text x="0" y="293.22222222222223" dx="0em" dy="0.3em" style="text-anchor: end; visibility: inherit; font-family: Roboto, sans-serif; font-size: 12px; font-weight: 200;" fill="rgb(33, 33, 33)" stroke="none" stroke-width="1px">500</text><text x="0" y="251.33333333333337" dx="0em" dy="0.3em" style="text-anchor: end; visibility: inherit; font-family: Roboto, sans-serif; font-size: 12px; font-weight: 200;" fill="rgb(33, 33, 33)" stroke="none" stroke-width="1px">1e+3</text><text x="0" y="209.44444444444446" dx="0em" dy="0.3em" style="text-anchor: end; visibility: inherit; font-family: Roboto, sans-serif; font-size: 12px; font-weight: 200;" fill="rgb(33, 33, 33)" stroke="none" stroke-width="1px">1.5e+3</text><text x="0" y="167.55555555555554" dx="0em" dy="0.3em" style="text-anchor: end; visibility: inherit; font-family: Roboto, sans-serif; font-size: 12px; font-weight: 200;" fill="rgb(33, 33, 33)" stroke="none" stroke-width="1px">2e+3</text><text x="0" y="125.66666666666669" dx="0em" dy="0.3em" style="text-anchor: end; visibility: inherit; font-family: Roboto, sans-serif; font-size: 12px; font-weight: 200;" fill="rgb(33, 33, 33)" stroke="none" stroke-width="1px">2.5e+3</text><text x="0" y="83.77777777777777" dx="0em" dy="0.3em" style="text-anchor: end; visibility: inherit; font-family: Roboto, sans-serif; font-size: 12px; font-weight: 200;" fill="rgb(33, 33, 33)" stroke="none" stroke-width="1px">3e+3</text><text x="0" y="41.88888888888891" dx="0em" dy="0.3em" style="text-anchor: end; visibility: inherit; font-family: Roboto, sans-serif; font-size: 12px; font-weight: 200;" fill="rgb(33, 33, 33)" stroke="none" stroke-width="1px">3.5e+3</text><text x="0" y="0" dx="0em" dy="0.3em" style="text-anchor: end; visibility: hidden; font-family: Roboto, sans-serif; font-size: 12px; font-weight: 200;" fill="rgb(33, 33, 33)" stroke="none" stroke-width="1px">4e+3</text></g><line x1="72.34375" y1="0" x2="72.34375" y2="377" fill="rgb(0, 0, 0)" stroke="rgb(204, 204, 204)" stroke-width="1px"></line></g></g><g transform="translate(72, 0)" clip-path="url(#clip_0)"><clipPath id="clip_0"><rect width="978" height="377"></rect></clipPath><g><g><g><line x1="0" y1="0" x2="0" y2="377" fill="rgb(0, 0, 0)" stroke="rgb(66, 66, 66)" stroke-width="1px" opacity="0.25"></line><line x1="108.69513888888888" y1="0" x2="108.69513888888888" y2="377" fill="rgb(0, 0, 0)" stroke="rgb(66, 66, 66)" stroke-width="1px" opacity="0.25"></line><line x1="217.39027777777775" y1="0" x2="217.39027777777775" y2="377" fill="rgb(0, 0, 0)" stroke="rgb(66, 66, 66)" stroke-width="1px" opacity="0.25"></line><line x1="326.0854166666666" y1="0" x2="326.0854166666666" y2="377" fill="rgb(0, 0, 0)" stroke="rgb(66, 66, 66)" stroke-width="1px" opacity="0.25"></line><line x1="434.7805555555555" y1="0" x2="434.7805555555555" y2="377" fill="rgb(0, 0, 0)" stroke="rgb(66, 66, 66)" stroke-width="1px" opacity="0.25"></line><line x1="543.4756944444445" y1="0" x2="543.4756944444445" y2="377" fill="rgb(0, 0, 0)" stroke="rgb(66, 66, 66)" stroke-width="1px" opacity="0.25"></line><line x1="652.1708333333332" y1="0" x2="652.1708333333332" y2="377" fill="rgb(0, 0, 0)" stroke="rgb(66, 66, 66)" stroke-width="1px" opacity="0.25"></line><line x1="760.8659722222221" y1="0" x2="760.8659722222221" y2="377" fill="rgb(0, 0, 0)" stroke="rgb(66, 66, 66)" stroke-width="1px" opacity="0.25"></line><line x1="869.561111111111" y1="0" x2="869.561111111111" y2="377" fill="rgb(0, 0, 0)" stroke="rgb(66, 66, 66)" stroke-width="1px" opacity="0.25"></line><line x1="978.2562499999999" y1="0" x2="978.2562499999999" y2="377" fill="rgb(0, 0, 0)" stroke="rgb(66, 66, 66)" stroke-width="1px" opacity="0.25"></line></g><g><line x1="0" y1="377" x2="978.2562499999999" y2="377" fill="rgb(0, 0, 0)" stroke="rgb(66, 66, 66)" stroke-width="1px" opacity="0.25"></line><line x1="0" y1="335.1111111111111" x2="978.2562499999999" y2="335.1111111111111" fill="rgb(0, 0, 0)" stroke="rgb(66, 66, 66)" stroke-width="1px" opacity="0.25"></line><line x1="0" y1="293.22222222222223" x2="978.2562499999999" y2="293.22222222222223" fill="rgb(0, 0, 0)" stroke="rgb(66, 66, 66)" stroke-width="1px" opacity="0.25"></line><line x1="0" y1="251.33333333333337" x2="978.2562499999999" y2="251.33333333333337" fill="rgb(0, 0, 0)" stroke="rgb(66, 66, 66)" stroke-width="1px" opacity="0.25"></line><line x1="0" y1="209.44444444444446" x2="978.2562499999999" y2="209.44444444444446" fill="rgb(0, 0, 0)" stroke="rgb(66, 66, 66)" stroke-width="1px" opacity="0.25"></line><line x1="0" y1="167.55555555555554" x2="978.2562499999999" y2="167.55555555555554" fill="rgb(0, 0, 0)" stroke="rgb(66, 66, 66)" stroke-width="1px" opacity="0.25"></line><line x1="0" y1="125.66666666666669" x2="978.2562499999999" y2="125.66666666666669" fill="rgb(0, 0, 0)" stroke="rgb(66, 66, 66)" stroke-width="1px" opacity="0.25"></line><line x1="0" y1="83.77777777777777" x2="978.2562499999999" y2="83.77777777777777" fill="rgb(0, 0, 0)" stroke="rgb(66, 66, 66)" stroke-width="1px" opacity="0.25"></line><line x1="0" y1="41.88888888888891" x2="978.2562499999999" y2="41.88888888888891" fill="rgb(0, 0, 0)" stroke="rgb(66, 66, 66)" stroke-width="1px" opacity="0.25"></line><line x1="0" y1="0" x2="978.2562499999999" y2="0" fill="rgb(0, 0, 0)" stroke="rgb(66, 66, 66)" stroke-width="1px" opacity="0.25"></line></g></g></g><g><g><line x1="0" y1="335.1111111111111" x2="978.2562499999999" y2="335.1111111111111" fill="rgb(0, 0, 0)" stroke="rgb(153, 153, 153)" stroke-width="1.5px"></line></g></g><g><g><line x1="108.69513888888888" y1="0" x2="108.69513888888888" y2="377" fill="rgb(0, 0, 0)" stroke="rgb(153, 153, 153)" stroke-width="1.5px"></line></g></g><g><g><g><g><g><path stroke="rgb(187, 187, 187)" stroke-width="2px" d="M109.67339513888888,329.6618393995497L111.24947465277776,329.93188997650145L112.06468819444443,321.481016611735L112.11903576388887,327.0761292300754L112.55381631944442,323.10489752875435L113.53207256944442,334.0135384585063L114.29293854166666,333.71047120327415L114.51032881944442,328.6433576236301L115.65162777777778,324.8078531833225L117.22770729166666,322.98824576822915L117.39074999999998,321.74382183498807L117.60814027777776,330.7452906273736L118.04292083333333,311.8375125189887L119.07552465277776,327.49401333787705L119.7276954861111,300.6508270263672L121.14073229166667,304.392409362793L121.95594583333332,312.2006756863064L122.77115937499998,311.4024320814344L124.0211534722222,308.9367606540256L124.18419618055555,331.53261426883273L125.86897083333334,313.8716611497667L126.03201354166664,313.7429047173394L127.49939791666665,309.57155475531687L128.15156875,314.30186980523L128.58634930555556,311.4731681586372L129.2385201388889,307.57961843532985L129.67330069444444,305.8648201700846L130.54286180555556,331.07731676652696L131.24938020833332,309.1882243787977L132.39067916666664,309.8902314317491L132.4450267361111,309.76330687120225L132.9341548611111,306.74124750434027L133.74936840277775,301.73006162516276L133.96675868055556,303.1860405544705L134.510234375,302.8778846774631L134.83631979166665,292.02080061848955L136.41239930555554,278.323047024197L137.66239340277775,279.32929054090715L137.93413124999998,284.5439305284288L138.04282638888887,282.44894917805993L138.91238749999997,287.6591302897135L139.23847291666667,295.78977282714845L140.7602048611111,278.5647569580078L140.97759513888886,285.99438444010417L141.08629027777778,285.0407986111111L143.31454062499998,291.88040738932295L143.64062604166665,285.1596900363498L143.69497361111112,292.89913269042967L144.45583958333333,264.38609417046445L144.9449677083333,281.86286267089844L145.37974826388887,277.87210740831165L147.87973645833333,280.15123726399736L148.09712673611108,288.7861725260417L150.21668194444442,258.4396053873698L150.81450520833332,222.35601947699652L151.19493819444443,158.9054181857639L151.52102361111108,212.99037570529515L152.3905847222222,228.25107267252605L153.91231666666664,219.57887613932292L155.27100590277774,86.84206863064236L155.76013402777775,272.27520574273L156.84708541666666,219.71348101128473L159.89054930555554,66.85834830729166L162.98836076388886,58.10778396267361L163.2600986111111,62.22443088107637L163.857921875,286.1277518717448L164.2383548611111,59.46598209635418L164.45574513888886,55.3148913845486L164.56444027777775,188.85222051323785L165.05356840277776,56.62019661458333L166.08617222222222,190.55520429144966L166.90138576388887,55.97206423611113L167.22747118055554,54.02439453125L168.36877013888886,51.464836154513904L168.96659340277776,55.92017355685765L169.07528854166665,53.92394710286459L169.83615451388886,52.467796874999976L170.21658749999997,50.88158246527778L171.2491913194444,59.14641569010416L171.30353888888888,52.68714084201388L171.95570972222222,52.410486002604145L172.49918541666665,334.09608934232926L172.60788055555554,333.9640966135661L173.0426611111111,50.068369411892355L174.8904784722222,179.8406994357639L175.27091145833333,49.553512424045145L176.41221041666665,49.74933479817707L176.73829583333332,49.68492654079859L176.84699097222222,51.37459505208335L177.01003368055552,48.16582025824655L177.22742395833333,48.93280826822918L177.55350937499998,50.31125542534724L177.77089965277776,49.82016547309027L179.23828402777778,45.575847439236114L180.70566840277777,44.574584364149295L181.79261979166665,46.36701155598956L182.82522361111108,48.335891601562494L183.42304687499998,48.24475054253472L183.47739444444443,44.93939404296874L185.70564479166663,44.57278445095485L186.90129131944443,44.653719184027764L187.87954756944444,44.57771375868056L187.9338951388889,44.717575195312506L189.8904076388889,44.02945610894099L190.32518819444442,42.066303059895844L190.75996874999998,40.366510036892365L190.9230114583333,284.7769681532118L192.82517638888885,40.46217133246527L192.9882190972222,40.87750130208333L193.74908506944445,40.50733279079859L193.91212777777775,40.09018245442707L194.18386562499998,39.93884657118055L194.8360364583333,38.739490776909726L195.4338597222222,40.00845003255208L197.118634375,42.66596050347221L197.55341493055553,40.567650336371536L199.4555798611111,40.15733148871527L200.27079340277777,39.1121955295139L201.1947020833333,44.86369542100693L201.3033972222222,41.89124104817709L201.46643993055554,41.78430984157986L201.68383020833332,40.83313753255209L205.16207465277776,43.482568847656246L205.27076979166665,40.75445269097221L205.92294062499997,42.37680853949653L209.07509965277777,40.136959743923605L209.78161805555553,40.367594075520834L210.16205104166664,40.92348090277778L211.90117326388886,40.86486100260419L212.06421597222223,314.37241157362195L212.39030138888887,40.8503798828125L212.44464895833332,42.11119862196178L213.9120333333333,39.28864838324652L214.1294236111111,42.181558865017344L214.40116145833332,38.43908935546876L215.21637499999997,40.83753504774306L215.27072256944442,42.74309087456598L216.24897881944443,39.32215131293402L221.19460763888887,41.95239718967012L221.68373576388888,43.155618706597224L222.2272114583333,38.13519037543404L222.8250347222222,42.49568462456597L223.64024826388885,328.21254686652287L223.85763854166666,40.87120160590276L224.94458993055554,43.950893988715265L227.93370625,38.87215256076388L228.74891979166665,316.82041240437826L229.0750052083333,40.69894173177082L230.37934687499995,42.70924023437499L230.6510847222222,199.67654052734378L234.72715243055552,41.70738400607639L235.97714652777776,53.93452159288194L236.9010552083333,45.61182524956599L238.80322013888886,43.37553537326387L241.08581805555554,39.982330837673615L241.35755590277776,42.546184461805545L242.06407430555552,191.89127167426216L242.49885486111108,40.89525499131943L242.66189756944442,40.95516346571179L243.74884895833333,40.23740717230901L244.4553673611111,40.12697840711804L244.72710520833328,42.18141569010415L245.48797118055555,43.09180360243054L245.5966663194444,40.025303765190955L246.1944895833333,42.25071234809029L248.74882534722218,39.05578461371529L248.80317291666665,40.269601074218755L249.94447187499998,40.99110036892362L251.46620381944442,38.833065809461786L251.90098437499998,334.18963465330336L252.3357649305555,171.20268079969617L253.8031493055555,41.81903998480903L254.0205395833333,42.83216612413196L254.4009725694444,218.89379440646698L254.56401527777777,40.09408908420141L255.05314340277778,115.62632134331596L255.8683569444444,36.63189469401041L256.1400947916666,39.62238910590278L256.3574850694444,40.102802300347214L257.28139375,41.10024055989584L257.5531315972222,39.3014318576389L257.6074791666666,40.23847075737848L258.3139975694444,328.14071460639104L258.36834513888886,328.4892438913981L258.42269270833333,328.5140860171848L258.9661684027778,328.53649097357857L259.1292111111111,328.46542572191026L259.67268680555554,39.342482150607644L260.05311979166663,39.78556759982638L261.5205041666666,39.65691471354166L262.7161506944444,39.632002278645814L263.2596263888889,41.203346950954874L264.1835350694444,39.280160156250005L264.2378826388889,38.44489816623265L267.4443892361111,39.38586414930557L269.12916388888885,41.01629915364581L269.2922065972222,40.6505486111111L269.6726395833333,38.585311848958334L269.8356822916666,35.66992290581599L270.27046284722223,42.35547547743054L272.7704510416666,38.62938926866319L273.5856645833333,41.38344053819444L274.29218298611113,40.67429519314237L276.2486954861111,41.06688080512153L276.3030430555555,40.39610633680557L277.33564687499995,38.83535660807292L277.3899944444444,40.53981304253472L277.44434201388884,40.663782063802074L278.20520798611113,40.1652879231771L278.25955555555555,38.7510265842014L278.31390312499997,38.50507253689235L278.6943361111111,38.81406445312501L279.61824479166665,38.41511778428819L281.1399767361111,39.14248725043404L282.17258055555556,35.69150141059028L282.55301354166664,38.6500678168403L282.82475138888884,37.36959320746527L283.53126979166666,38.6076675889757L283.69431249999997,41.28301356336807L284.83561145833335,39.86142985026043L286.139953125,39.26893115234377L286.30299583333334,41.39127425130207L288.3682034722222,36.85393853081599L290.21602083333335,39.46501942274303L291.0855819444444,38.24776676432292L292.06383819444443,39.23272835286459L292.66166145833336,39.357270073784726L293.69426527777773,38.80195594618056L294.45513124999997,39.574261881510395L296.7920767361111,40.43478401692709L297.9877232638889,39.933160481770855L298.0420708333333,38.81271451822916L298.42250381944444,34.53380951605903L298.5311989583333,39.37504421657987L298.9116319444444,39.932915039062514L300.32466874999994,39.93870339626735L302.49857152777776,39.69859906684028L302.66161423611106,39.01784326171876L303.04204722222215,329.0366699761285L303.69421805555555,40.157801920572915L304.34638888888884,38.3563547092014L305.05290729166666,38.73556369357639L305.1072548611111,39.48811149088543L305.21594999999996,39.064334201388895L305.9768159722222,38.73384559461804L307.2811576388889,39.49030002170137L307.4442003472222,43.046642144097206L307.5528954861111,41.230897894965295L307.661590625,42.12598654513891L307.8246333333333,333.717175017039L308.04202361111106,43.59457253689238L308.20506631944437,334.4626833944321L309.23767013888886,43.36365185546875L310.43331666666666,51.3909169921875L310.70505451388885,42.34868489583332L312.3898291666667,37.71853092447917L312.7159145833333,40.94301405164933L313.0963475694444,41.06424229600695L313.2050427083333,39.0237747938368L314.23764652777777,38.37785139973959L317.8245861111111,37.26838899739583L317.93328125,38.63642529296874L318.9658850694444,37.723030707465284L320.7593548611111,46.145867675781254L321.24848298611107,39.86367974175347L321.46587326388885,39.63464078776044L321.7919586805555,37.71660828993057L322.44412951388887,38.81907557508683L322.6071722222222,260.8958528374566L324.23759930555553,37.38041314019097L324.7267274305555,37.65258865017363L325.0528128472222,36.683887641059044L326.73758749999996,37.78741851128472L326.8462826388889,39.61854383680554L327.3354107638889,322.58313107299807L327.9332340277777,39.354508843315955L328.25931944444443,269.004814602322L328.6397524305555,40.09736165364582L330.65061249999997,39.15050504557291L332.00930173611107,38.914757324218726L332.33538715277774,37.029184624565985L332.6614725694444,38.4396416015625L332.8245152777777,37.59407101779513L334.0201618055555,38.837626953125L335.9223267361111,38.473962673611126L336.52014999999994,39.387725423177066L338.4223149305555,38.70561968315973L339.6179614583333,34.93576285807293L339.7810041666666,40.88668495008682L340.05274201388886,38.34633246527778L343.36794374999994,48.087605848524305L343.6396815972222,40.379804850260435L343.91141944444445,37.038490993923624L344.23750486111106,41.7758625217014L347.5527065972222,41.88982975260418L349.72660937499995,40.85694547526041L350.1613899305555,38.336739746093755L350.75921319444444,41.45214404296875L351.41138402777773,41.303630750868045L354.617890625,42.1796157769097L355.1613663194444,41.24155419921875L355.37875659722215,38.96186187065974L356.73744583333325,44.04046012369793L356.95483611111104,44.759750434027765L357.28092152777776,41.55837982855905L359.18308645833326,42.22516585286456L359.3461291666666,39.666241536458344L361.3569892361111,44.41799191623262L361.90046493055553,40.35603781467016L362.93306874999996,37.70689284939235L363.3678493055555,37.746940917968764L363.5852395833333,40.474279839409725L363.6939347222222,39.216447319878455L364.02002013888887,37.45296191406251L364.50914826388885,36.46932980685765L365.75914236111106,37.811574164496534L366.13957534722215,37.986411187065954L367.33522187499995,333.9103546475304L367.7156548611111,91.60226633029514L368.04174027777776,36.29283604600694L368.25913055555554,44.594178873697935L368.31347812499996,47.788636176215256L369.94390520833326,43.41726063368054L371.1938993055555,40.36990532769097L371.30259444444437,42.26578662109376L371.4656371527778,40.3563650716146L371.5199847222222,42.832063856336816L371.95476527777777,39.67706146918404L374.01997291666663,41.50090532769097L374.7264913194444,39.95075054253471L375.5417048611111,40.22497140842012L376.5743086805555,39.96652023654512L376.7916989583333,39.13377403428819L377.1721319444444,37.767149034288195L377.6612600694444,38.19513975694445L379.3460347222222,42.021816569010404L379.9438579861111,246.32948261176216L381.6829802083333,38.33547162543404L382.98732187499996,39.198018663194425L384.0199256944444,39.777365722656256L384.7264440972222,40.298174696180546L384.78079166666663,40.95240223524306L385.2155722222222,36.50448947482641L385.3242673611111,36.81217236328126L387.60686527777773,39.495086154513885L387.8242555555555,38.24062847222222L388.0416458333333,41.3918060438368L388.6394690972222,37.46867024739583L388.69381666666663,318.131881825765L388.8025118055555,318.60205929226345L388.856859375,40.561187011718765L390.5959815972222,36.28393874782984L391.1938048611111,40.27896880425349L391.3025,43.2151794704861L391.5742378472222,46.928625379774296L391.6829329861111,42.524012803819424L392.28075624999997,44.393549913194455L392.6611892361111,268.5503978814019L393.3677076388888,268.94478340657554L394.1829211805555,40.18531195746528L394.6720493055555,39.05067122395833L394.8350920138888,41.526431369357645L396.4655190972222,39.61316455078125L397.7155131944444,39.22372878689235L397.76986076388886,39.23291243489584L397.9329034722222,36.569981770833316L398.0415986111111,37.37697694227431L398.25898888888884,37.664206271701396L398.5850743055555,38.217843207465265L400.1068062499999,39.855007432725714L400.54158680555554,38.55669731987849L401.79158090277775,38.27906070963543L402.3350565972222,38.587725368923614L404.61765451388885,38.67960275607637L405.10678263888883,329.01954012044274L405.37852048611103,38.39096213107637L407.82416111111104,333.97475651317177L408.0958989583333,332.09997809939915L408.74806979166664,331.40414929962157L411.24805798611106,329.11409692382813L413.2589180555555,333.4419765349494L416.68281493055554,327.41931182691786L419.7262788194444,329.03036388821073L420.1067118055555,316.0308871290419L421.62844375,311.92107297770184L422.8784378472222,309.68326698133677L423.31321840277775,311.40781392415363L425.65016388888887,97.39778228081597L427.49798124999995,295.7104360283746L428.20449965277777,262.74761580403646L428.3675423611111,321.4024851718479L431.9544819444444,233.77949582248263L432.3892625,55.11133756510415L432.8240430555555,43.56520122612846L433.7479517361111,41.17737093098956L434.23707986111106,43.494984157986096L434.6175128472222,42.55600217013887L434.9435982638889,43.33160112847221L435.2696836805555,44.55263769531251L437.2261961805555,38.88612234157988L437.6609767361111,40.725674533420126L439.0196659722222,41.12302582465279L439.0740135416666,39.209943088107636L440.81313576388885,40.475302517361094L440.92183090277774,38.65413807508679L442.0087822916666,38.75583317057291L442.28052013888885,39.32536252170138L442.38921527777774,39.45460856119792L442.4979104166666,40.84115532769096L443.9109472222222,44.03211507161457L447.0087586805555,38.81901421440973L447.9870149305555,37.65762022569444L449.9435274305555,40.78783289930556L450.0522225694444,40.61369129774304L451.08482638888887,39.800028266059016L452.82394861111106,271.6555191514757L452.93264374999995,37.935849989149325L453.6391621527777,37.16518033854165L454.2369854166666,37.475051757812494L454.29133298611106,38.1350267469618L454.5630708333333,39.8838674045139L454.8348086805555,36.37808648003473L456.84566874999996,38.47118098958335L457.823925,40.023176595052064L458.8565288194444,42.06421679687501L459.72608993055553,42.05889887152776L460.4869559027777,40.683724283854154L461.4652121527777,39.58375233289932L461.6282548611111,41.672040256076386L463.4760722222222,40.25235872395834L463.63911493055554,42.16335519748265L464.4543284722222,39.48535026041666L464.7260663194444,35.53437717013887L465.4325847222222,38.703512966579844L465.7043225694444,42.515340494791666L466.5738836805555,41.01413107638887L466.8456215277777,40.044775553385406L467.1173593749999,38.59879074435765L467.3347496527777,319.7549599405924L468.2043107638888,317.2715936279297L470.05212812499997,318.5158705512153L471.3564697916666,319.8471696980794L473.6390677083333,200.75504646809895L473.9108055555555,316.4441282789442L474.45428124999995,40.846677788628455L474.67167152777773,44.876683430989566L475.54123263888886,49.60094422743056L476.1390559027777,54.34874707031249L477.4433975694444,40.19314567057291L478.36730624999996,41.65823410373263L479.39991006944445,38.18918777126737L480.5412090277777,37.93670903862846L480.9759895833333,39.1545343967014L481.46511770833325,38.81868695746529L482.33467881944443,40.48712467447916L484.4542340277777,39.0412830403646L484.56292916666666,36.69957552083335L484.72597187499997,37.3048986002604L485.32379513888884,33.83370464409721L485.70422812499993,35.521655056423626L487.76943576388885,36.24078173828126L488.638996875,35.243057128906244L488.9107347222222,36.37043684895835L489.01942986111106,36.60622547743054L490.10638124999997,34.25230718315973L490.70420451388884,33.87671847873264L491.51941805555555,34.714516710069425L492.06289374999994,35.625620496961794L495.4867906249999,34.20315728081597L495.64983333333333,34.05409174262153L495.97591874999995,29.310706868489575L498.0411263888888,34.22461306423612L498.74764479166663,34.92463612196179L498.801992361111,37.590062120225696L498.91068749999994,36.77819900173613L499.2367729166666,85.92163802083331L500.37807187499993,77.98260953776042L501.3563281249999,36.73056266276043L502.8780600694444,32.53782850477431L504.01935902777774,33.77870502387151L505.8671763888888,334.4562469150755L507.2802131944444,319.45378256225587L507.4976034722222,318.1489937845866L507.606298611111,318.5050940823025L508.3128170138889,331.61794044494627L508.58455486111103,318.3111304253472L509.07368298611107,317.4474622768826L510.0519392361111,311.73336555311414L512.1714944444444,333.9696548682319L512.7693177083332,333.93491329977246L512.8236652777778,333.7991635877821L514.3453972222222,332.8678718185425L514.5627875,305.85288040500217L514.6714826388888,305.11238742404515L515.3236534722222,323.168366200765L516.6279951388888,316.7940132514106L517.2801659722222,324.0984815707737L517.7149465277778,315.7655418294271L518.0410319444444,302.8896301337348L518.6388552083333,290.3142374674479L519.0736357638889,289.22014591471356L519.1823309027777,260.0975402018229L519.5084163194443,317.0927413160536L521.3562336805555,319.2124842563205L521.8453618055555,251.38137363009983L521.9540569444443,225.86567635091143L522.1170996527777,285.5688021240234L523.8018743055554,170.47501475694443L524.1279597222222,47.04960818142363L524.9975208333333,246.9338034667969L525.0518684027777,210.31905908203126L528.6388079861111,36.44715814887153L528.8018506944444,39.58246375868056L530.2148875,40.99226622178819L530.4866253472221,40.17025813802081L532.2800951388888,35.46416010199655L532.3344427083333,40.05537049696181L533.7474795138888,38.03462022569444L534.6713881944444,34.38605300564235L534.8887784722222,37.08888856336805L535.3235590277778,37.927136773003475L535.5952968749999,42.13226578776043L535.6496444444444,46.27595231119793L535.9757298611111,39.09603721788195L537.06268125,33.50935210503472L537.7691996527777,36.19310449218751L538.0952850694443,34.94568283420139L539.4539743055554,35.13487825520835L539.6170170138889,35.72023866102431L542.7148284722222,37.8836525065104L545.2148166666666,33.248507866753485L545.9756826388889,332.6392146110535L546.4104631944444,333.0036458990309L547.6604572916666,335.21575295723807L547.714804861111,335.1797622935242L548.6930611111111,335.1361444347302L550.1060979166666,335.203648844613L551.3017444444445,335.04878854249586L552.3343482638888,326.0899564073351L552.3886958333333,326.9537945760091L553.9104277777777,37.71691509331596L554.3452083333333,36.82154009331596L555.2147694444444,163.44334705946181L555.9212878472222,36.248758626302084L557.3343246527777,35.7543961046007L558.5299711805555,36.483790473090295L558.8560565972222,35.889819118923626L559.2908371527777,35.93919401041668L559.5625749999999,32.39547173394098L559.8343128472221,35.99000065104165L562.4429961805555,32.070116970486126L562.6060388888889,31.101661404079877L563.2038621527778,31.165824218750018L563.964728125,38.12911566840277L565.0516795138888,35.11759499782984L565.812545486111,33.52673763020833L566.0842833333332,33.50041389973957L568.3125336805556,34.48281879340277L570.1603510416666,32.77085590277778L570.8668694444444,31.4834066297743L571.790778125,32.57325406901041L572.27990625,32.927652886284704L573.2581624999999,35.50545583767363L573.5842479166666,32.0867457139757L574.0733760416666,39.328941894531226L576.4103215277777,33.76342621527779L577.062492361111,30.337086914062482L577.1711874999999,28.206889648437503L577.551620486111,29.916520833333315L579.2907427083333,31.0832736545139L579.508132986111,269.57863408745663L581.1929076388889,33.42624929470487L581.5189930555555,31.443174479166682L582.4972493055556,32.817285481770824L582.8233347222222,32.51420464409723L584.3450666666666,29.914925455729158L584.4537618055555,28.5028321940104L585.6494083333333,27.84156863064237L585.7581034722222,32.958987738715265L586.3015791666667,30.460319607204852L586.8994024305555,30.8497349175347L588.2037440972222,31.64398752170141L588.7472197916666,34.158834418402776L590.4863420138888,31.617766059027797L590.7580798611111,30.644872070312488L591.1385128472222,34.02249099392362L591.7363361111111,27.299181152343746L592.0624215277777,27.649796061197936L593.312415625,334.024892900255L593.5298059027778,334.37120161586336L597.0080503472223,29.972072699652788L597.2797881944443,30.92972878689234L598.1493493055555,308.870841389974L599.6167336805555,32.95379253472221L600.4862947916666,28.342987630208313L600.9754229166666,27.01536756727431L601.3558559027776,31.65051220703123L601.62759375,30.137153374565976L604.1819295138888,35.993089138454856L604.3993197916666,31.469580023871536L606.0840944444443,39.06341379123263L606.7362652777778,35.668572970920124L608.1493020833333,333.0811682434082L608.3123447916666,333.48899798880683L608.855820486111,37.31874565972221L609.1275583333334,30.970410915798592L609.3449486111111,32.10092003038195L609.8884243055555,29.399986653645847L610.1058145833333,31.883928222656237L610.5405951388888,32.513754665798594L611.5188513888888,35.97733989800346L613.6384065972222,28.831704969618055L614.2905774305555,34.69124055989583L614.3992725694444,27.644069064670152L614.7797055555556,31.513902886284733L615.32318125,34.104775661892354L615.3775288194444,32.8727759874132L615.5949190972223,321.7732493930393L615.9210045138889,297.361506117079L616.0840472222221,36.239554524739596L616.5731753472222,31.776690212673614L616.9536083333334,32.987561360677105L617.3340413194444,27.618154405381937L617.660126736111,30.51797819010417L617.7144743055555,31.38778624131945L618.0405597222222,30.510226291232637L618.3122975694445,31.691337510850676L618.8557732638889,31.27909602864582L620.5405479166666,30.548638075086803L621.7905420138889,35.461828396267364L621.8992371527777,30.59447450086806L622.6057555555556,35.592547092013874L623.4753166666666,37.84284765625L624.3448777777777,277.76072755262584L624.3992253472222,29.77676166449651L624.4535729166665,278.8002234429253L627.0622562499999,36.09717730034722L627.5513843749999,36.18326633029513L628.0405125,39.07760856119793L628.5839881944444,33.2747497829861L630.0513725694444,35.65973703342013L630.4861531249999,39.86365928819443L630.8122385416666,39.147457465277796L631.5187569444444,30.54235883246528L633.312226736111,39.5544423828125L634.2904829861111,34.7719093967014L634.3448305555555,37.951967393663175L634.5078732638889,31.71105474175347L635.4317819444444,30.94562120225694L636.0839527777778,37.91768722873264L636.1383003472221,32.38941748046875L636.5187333333332,36.92323518880208L637.823075,29.535491482204872L637.9317701388889,30.99530289713543L638.7469836805554,30.73756759982637L638.80133125,29.100362467447916L639.7795874999999,32.06559673394096L640.6491486111111,26.86143408203126L641.1926243055556,30.633929416232643L642.0078378472222,31.568125271267355L642.605661111111,33.516510850694466L643.3121795138889,35.519773328993075L644.0186979166666,33.02331418185765L644.9426065972222,315.3510491773817L645.3230395833332,326.02619882880316L646.4099909722222,316.60587630208335L646.9534666666666,317.03313581000435L647.6056375,334.09256014463637L647.6599850694444,334.10310427390203L649.3447597222222,317.3361782972548L649.3991072916666,317.04872909206813L649.453454861111,317.1033669399685L649.9969305555554,315.8186073099772L650.7034489583333,314.85352402411564L651.0295343749999,312.43047653537326L651.4643149305555,311.96121564398874L651.7904003472221,311.1774915093316L655.5947302083333,264.7015136176215L657.0621145833333,58.50675108506944L658.7468892361111,305.2514588419596L659.0186270833333,311.15333841281466L659.6707979166666,33.8463653971354L662.4425239583333,35.54221088324654L662.5512190972221,39.01692285156249L663.4751277777776,37.825421223958344L663.8555607638889,29.509310926649313L664.3990364583333,30.887021755642348L666.7903295138888,37.01584890407987L667.3881527777777,31.0321193033854L668.2577138888888,30.77029329427084L670.7577020833332,27.805243109809048L670.9207447916666,110.70241335720485L670.975092361111,28.844467990451392L673.6381232638888,29.730761610243057L674.1272513888888,35.2003296440972L674.7250746527777,32.02070117187502L676.3555017361111,34.609814941406235L676.6815871527778,26.367869249131953L676.7359347222222,29.52444656032988L677.0620201388888,31.04516867404513L679.398965625,32.10846739366319L680.3228743055555,31.718152126736115L682.1163440972222,32.6267605794271L682.6598197916666,34.084424370659725L683.3119906249999,45.91388340928821L683.7467711805555,32.00118847656252L684.5619847222222,33.7878068576389L685.5402409722223,39.39384103732639L686.5728447916666,32.78511203342013L687.116320486111,33.39526215277779L687.225015625,29.477751085069453L690.5945649305555,333.1961314667596L691.1380406249999,29.31772243923612L691.5184736111111,36.67750613064237L691.7902114583334,33.01216699218751L692.6597725694444,40.15825189887155L693.0402055555555,32.71436317274307L693.094553125,31.14684331597221L693.7467239583332,314.53501864624025L694.0728093749999,313.4321537950304L696.1380170138888,310.1681518351237L697.9314868055554,311.12472132703994L700.920603125,28.99441303168401L701.1379934027777,32.55188009982637L705.214061111111,30.8620888671875L705.9205795138888,29.60977880859377L707.7140493055555,29.49851144748262L707.768396875,29.522360297309042L708.0401347222221,28.54404611545138L708.4749152777777,35.40281987847223L709.4531715277777,34.199066569010434L711.6270743055555,32.52813351779513L712.9314159722221,29.51102902560762L713.2575013888888,26.34641346571181L713.3118489583333,26.650905598958353L713.7466295138888,31.488315483940962L715.1596663194443,33.77111675347222L715.7574895833333,31.781803602430568L717.8226972222221,30.729754340277786L718.0400874999999,27.539674099392354L718.3661729166665,27.135020887586787L718.7466059027778,29.318254231770815L718.8009534722221,30.059000325520834L719.4531243055555,29.458831542968742L720.4313805555555,32.575994845920135L721.9531125,29.80365809461805L722.5509357638888,32.8993656141493L723.7465822916666,28.318893337673593L724.4531006944443,25.496036295572928L724.5074482638888,28.858519585503494L724.9422288194444,333.9459321753184L725.5943996527776,25.6812228190104L726.3009180555555,29.280987847222214L727.9313451388888,30.16748600260417L728.4748208333333,24.78975444878473L728.7465586805555,28.840172743055565L730.5943760416666,30.307326985677072L730.8661138888888,271.0619210747613L730.9748090277777,30.070045247395825L731.4095895833333,30.58275461154514L731.5726322916667,30.158834147135416L731.6813274305555,25.802164713541682L733.0400166666666,31.504801052517347L733.1487118055555,32.075475802951374L733.8552302083333,35.91481336805557L735.1052243055556,55.01954199218749L735.1595718749999,26.716541069878456L736.7356513888888,34.156952690972226L737.496517361111,89.41563769531251L737.9312979166666,31.52175705295137L739.7247677083333,30.810627712673604L741.4638899305554,300.8494131876628L744.344311111111,29.687870496961818L745.2682197916666,30.19479150390625L746.5182138888888,32.381256510416684L747.279079861111,32.25839198133681L747.6051652777777,32.54746213107639L748.0942934027777,29.77980924479167L749.1268972222222,31.19985894097221L749.235592361111,25.68590668402777L750.9203670138888,28.467958875868074L751.0290621527777,26.401515353732652L751.2464524305555,28.392771592881953L751.9529708333333,26.97298779296876L752.3877513888888,28.208219129774314L752.5507940972221,27.332622721354152L752.7681843749999,26.678292914496534L753.637745486111,31.052143337673627L754.126873611111,27.21595562065974L754.4529590277778,81.27900737847222L754.724696875,27.124405490451384L756.4638190972221,29.234660536024318L756.7355569444444,27.46978428819443L757.6594656249999,33.593170789930554L758.4203315972221,33.70928564453127L758.4746791666665,30.02737912326388L759.2355451388888,30.430723307291682L759.3442402777778,32.313227973090264L759.6159781249999,33.55218185763891L760.5942343749999,153.33603678385418L761.5181430555556,30.996836914062495L762.3333565972221,33.334494628906256L763.4203079861111,86.9716828342014L763.9637836805555,31.470336805555565L764.2898690972221,32.69622086588544L764.5616069444444,32.21055110677085L764.9963875,30.123244954427072L768.2028940972222,34.7207550455729L769.3441930555555,31.96024045138888L769.9963638888888,33.482107964409735L770.3767968749999,332.2729413842095L770.5941871527777,29.31117730034721L772.2789618055555,30.79960324435762L773.6376510416667,47.92497960069445L773.8006937499999,34.3880779079861L774.2354743055554,31.732408257378466L775.1050354166666,301.755659254286L775.5941635416665,30.092135091145845L777.2789381944444,30.222874240451404L777.3876333333333,28.275327256944426L777.605023611111,333.392235396915L777.9311090277778,36.76652001953126L778.0398041666666,35.602998860677076L778.094151736111,36.518131998697925L779.6158836805555,30.43293229166667L780.1050118055555,26.1733149956597L780.3767496527777,25.98782166883679L780.7571826388888,29.92678851996527L780.9745729166666,27.338206542968745L782.2789145833332,38.8482218967014L782.4963048611111,314.81489364284937L782.605,34.9683044704861L783.7462989583333,35.5790886501736L783.8006465277776,30.537674967447913L783.8549940972222,35.294416015624996L784.6158600694444,30.571648328993053L784.9419454861111,31.089757432725715L785.2680309027777,27.26670090060766L786.7354152777776,28.13290912543404L786.8441104166666,29.954257649739592L786.9528055555554,26.62241379123266L789.2354034722222,26.73787413194445L790.9745256944444,334.3737105325063L793.5288614583333,36.37929324001735L795.7571118055555,38.586948133680536L796.0831972222222,49.08623041449655L796.3549350694443,44.72763834635417L797.767971875,36.526211154513895L799.3440513888888,44.316358181423595L800.3766552083333,54.23408441840278L803.3657715277777,30.53168207465278L803.8548996527777,28.008715115017353L806.8983635416665,33.837549913194444L807.4961868055555,39.07249517144097L809.8331322916665,108.07441737196179L810.0505225694444,258.6913580186632L810.9744312499998,31.8515706922743L812.1700777777777,30.544629177517365L813.691809722222,29.401950195312498L813.9091999999999,28.732157497829867L814.0178951388889,29.785433973524313L814.1809378472221,31.97283984375002L815.0504989583333,37.25566688368055L815.757017361111,31.647587348090262L816.1917979166666,34.008930284288205L816.5178833333332,33.36895887586804L816.7352736111111,33.9313294813368L817.1700541666667,33.77436886935763L817.224401736111,30.88370827907984L817.4417920138887,32.23225233289929L817.7678774305555,29.875511447482623L817.8222249999999,327.0988671959771L819.9961277777777,322.83275269911024L820.2135180555555,36.65257324218748L825.4308847222221,28.40598459201388L825.9743604166666,28.069912163628473L826.6265312499999,28.85426524522571L827.5504399305555,27.264082845052087L827.9308729166667,27.102049750434016L828.4200010416666,36.130618869357626L828.8004340277777,33.289067274305545L829.3982572916666,334.6152734563616L831.2460746527778,33.26650699869793L831.7352027777777,37.40516194661457L834.1808434027778,36.17762114800349L836.3003986111111,30.78350629340277L837.0612645833332,32.46971815321179L837.9308256944444,32.58859423828123L839.9416857638888,28.273281901041678L841.9525458333333,33.67218288845487L843.5829729166666,35.427486870659735L844.0721010416665,41.77128092447918L844.1264486111111,38.5047248263889L845.104704861111,38.95961197916666L845.5394854166666,31.143570746527793L846.5177416666666,38.441482421874994L847.1699124999999,38.15010101996528L847.3873027777777,38.37036539713541L849.0720774305554,37.9135965169271L850.1046812499999,27.47307731119793L850.2133763888887,28.618415256076382L850.3220715277777,27.931687011718733L850.3764190972222,30.519000868055542L851.0829375,29.41324055989583L853.3655354166666,297.78867869737417L854.1264013888888,300.20472212049697L855.2133527777777,325.19922372606067L856.4633468749998,323.67637763807505L857.6589934027777,316.7514864671495L858.8002923611111,315.5133213229709L860.3763718749999,316.3283483513726L861.3546281249999,313.992655456543L862.3328843749998,309.08572136773006L862.7133173611111,334.03067326778836L863.5828784722221,334.1187438960605L864.3980920138888,334.14215714899694L864.9959152777777,333.98810413826834L865.7567812499999,306.9582469821506L867.9850315972222,333.9076553370158L868.4741597222221,333.8002695980072L869.8871965277777,333.4647531708611L871.4632760416666,333.3580648502774L872.0610993055556,333.47305811479356L874.0719593749999,332.89699033610026L875.1045631944444,333.9962036677466L875.7023864583333,334.3729984130859L875.8654291666666,334.2302300143772L876.4632524305555,334.22978970358105L876.7893378472221,334.0596078631083L877.1154232638888,333.7901346997155L877.1697708333332,334.2508215550317L878.1480270833332,334.3747260197533L879.1806309027777,334.452282040596L879.3980211805555,334.5204116472668L879.7784541666666,327.4586983506945L880.1045395833332,289.7566990152995L880.7567104166666,199.4835509711372L880.9197531249998,314.14716036309136L881.3545336805555,331.7798341996935L881.6806190972221,331.46056085459395L881.7349666666665,331.8970158352322L883.5827840277777,326.6057657640245L883.9632170138889,250.25950614420572L885.9197295138888,55.226552463107645L888.0936322916666,45.490965169270815L888.5284128472221,41.86512185329863L888.8001506944444,40.61530712890624L889.1805836805555,40.20198160807291L889.4523215277777,44.01221375868054L889.5066690972221,42.72365999348958L889.9414496527777,36.602482476128486L890.6479680555555,38.50916324869793L891.2457913194443,35.70547119140623L891.3001388888888,33.65035894097223L891.5718767361111,33.49554595269096L892.3327427083333,33.41536800130208L892.7675232638888,35.41969406467015L892.8218708333333,36.725776529947915L893.2566513888888,38.64260226779516L896.4088104166666,172.8547249891493L896.5175055555554,33.80705365668401L898.6370607638888,29.51718554687499L898.6914083333332,31.884357747395825L899.3435791666666,33.468179090711786L900.9196586805555,262.86682425944014L903.4196468749999,33.70987879774305L904.6152934027776,29.631398220486112L908.80005625,330.7266066207886L909.5609222222222,331.6265958158705L910.0500503472222,66.5547152235243L910.8652638888888,43.410020073784736L911.7891725694443,38.50773149956597L912.2239531249999,35.90368663194443L913.582642361111,38.01036230468752L914.0717704861111,31.643742078993068L915.2130694444444,36.535190266927096L915.8108927083333,32.0055450846354L916.5174111111111,34.60521289062501L916.7348013888889,35.85040511067709L918.4195760416666,34.41376757812502L918.6913138888888,31.60762109374999L919.0173993055554,31.964187988281264L919.6152225694443,33.44148719618054L919.8326128472221,28.9130896809896L920.6478263888888,34.65227652994793L921.408692361111,32.63240576171874L922.9847718749999,35.35931515842016L924.9412843749999,35.25260894097222L925.810845486111,34.989371636284716L927.4412725694443,35.6746681315104L927.4956201388889,31.82943994140627L927.7130104166666,30.971985839843747L929.234742361111,31.237104871961805L929.8869131944444,29.61869656032987L930.4303888888888,29.264256835937488L930.6477791666666,27.956722167968767L931.2456024305556,30.324814778645827L931.4086451388888,29.57030343967014L932.2238586805555,31.19582958984377L932.9847246527777,26.59193798828127" style="fill: none;" fill="none"></path></g></g></g></g></g></g><g transform="translate(72, 377)" clip-path="url(#clip_1)"><clipPath id="clip_1"><rect width="978" height="23"></rect></clipPath><g><g><line x1="0" y1="0" x2="0" y2="5" style="visibility: inherit;" fill="rgb(0, 0, 0)" stroke="rgb(204, 204, 204)" stroke-width="1px"></line><line x1="108.69513888888888" y1="0" x2="108.69513888888888" y2="5" style="visibility: inherit;" fill="rgb(0, 0, 0)" stroke="rgb(204, 204, 204)" stroke-width="1px"></line><line x1="217.39027777777775" y1="0" x2="217.39027777777775" y2="5" style="visibility: inherit;" fill="rgb(0, 0, 0)" stroke="rgb(204, 204, 204)" stroke-width="1px"></line><line x1="326.0854166666666" y1="0" x2="326.0854166666666" y2="5" style="visibility: inherit;" fill="rgb(0, 0, 0)" stroke="rgb(204, 204, 204)" stroke-width="1px"></line><line x1="434.7805555555555" y1="0" x2="434.7805555555555" y2="5" style="visibility: inherit;" fill="rgb(0, 0, 0)" stroke="rgb(204, 204, 204)" stroke-width="1px"></line><line x1="543.4756944444445" y1="0" x2="543.4756944444445" y2="5" style="visibility: inherit;" fill="rgb(0, 0, 0)" stroke="rgb(204, 204, 204)" stroke-width="1px"></line><line x1="652.1708333333332" y1="0" x2="652.1708333333332" y2="5" style="visibility: inherit;" fill="rgb(0, 0, 0)" stroke="rgb(204, 204, 204)" stroke-width="1px"></line><line x1="760.8659722222221" y1="0" x2="760.8659722222221" y2="5" style="visibility: inherit;" fill="rgb(0, 0, 0)" stroke="rgb(204, 204, 204)" stroke-width="1px"></line><line x1="869.561111111111" y1="0" x2="869.561111111111" y2="5" style="visibility: inherit;" fill="rgb(0, 0, 0)" stroke="rgb(204, 204, 204)" stroke-width="1px"></line><line x1="978.2562499999999" y1="0" x2="978.2562499999999" y2="5" style="visibility: inherit;" fill="rgb(0, 0, 0)" stroke="rgb(204, 204, 204)" stroke-width="1px"></line></g><g transform="translate(0, 8)"><text x="0" y="0" dx="0em" dy="0.95em" style="text-anchor: middle; visibility: hidden; font-family: Roboto, sans-serif; font-size: 12px; font-weight: 200;" fill="rgb(33, 33, 33)" stroke="none" stroke-width="1px">-2k</text><text x="108.69513888888888" y="0" dx="0em" dy="0.95em" style="text-anchor: middle; visibility: inherit; font-family: Roboto, sans-serif; font-size: 12px; font-weight: 200;" fill="rgb(33, 33, 33)" stroke="none" stroke-width="1px">0</text><text x="217.39027777777775" y="0" dx="0em" dy="0.95em" style="text-anchor: middle; visibility: inherit; font-family: Roboto, sans-serif; font-size: 12px; font-weight: 200;" fill="rgb(33, 33, 33)" stroke="none" stroke-width="1px">2k</text><text x="326.0854166666666" y="0" dx="0em" dy="0.95em" style="text-anchor: middle; visibility: inherit; font-family: Roboto, sans-serif; font-size: 12px; font-weight: 200;" fill="rgb(33, 33, 33)" stroke="none" stroke-width="1px">4k</text><text x="434.7805555555555" y="0" dx="0em" dy="0.95em" style="text-anchor: middle; visibility: inherit; font-family: Roboto, sans-serif; font-size: 12px; font-weight: 200;" fill="rgb(33, 33, 33)" stroke="none" stroke-width="1px">6k</text><text x="543.4756944444445" y="0" dx="0em" dy="0.95em" style="text-anchor: middle; visibility: inherit; font-family: Roboto, sans-serif; font-size: 12px; font-weight: 200;" fill="rgb(33, 33, 33)" stroke="none" stroke-width="1px">8k</text><text x="652.1708333333332" y="0" dx="0em" dy="0.95em" style="text-anchor: middle; visibility: inherit; font-family: Roboto, sans-serif; font-size: 12px; font-weight: 200;" fill="rgb(33, 33, 33)" stroke="none" stroke-width="1px">10k</text><text x="760.8659722222221" y="0" dx="0em" dy="0.95em" style="text-anchor: middle; visibility: inherit; font-family: Roboto, sans-serif; font-size: 12px; font-weight: 200;" fill="rgb(33, 33, 33)" stroke="none" stroke-width="1px">12k</text><text x="869.561111111111" y="0" dx="0em" dy="0.95em" style="text-anchor: middle; visibility: inherit; font-family: Roboto, sans-serif; font-size: 12px; font-weight: 200;" fill="rgb(33, 33, 33)" stroke="none" stroke-width="1px">14k</text><text x="978.2562499999999" y="0" dx="0em" dy="0.95em" style="text-anchor: middle; visibility: hidden; font-family: Roboto, sans-serif; font-size: 12px; font-weight: 200;" fill="rgb(33, 33, 33)" stroke="none" stroke-width="1px">16k</text></g><line x1="0" y1="0" x2="978.2562499999999" y2="0" fill="rgb(0, 0, 0)" stroke="rgb(204, 204, 204)" stroke-width="1px"></line></g></g></g></g></svg>