<svg viewBox="0 0 1050.5999755859375 400" xmlns="http://www.w3.org/2000/svg"><g><g><g><g><g><line x1="61.953125" y1="377" x2="56.953125" y2="377" style="visibility: inherit;" fill="rgb(0, 0, 0)" stroke="rgb(204, 204, 204)" stroke-width="1px"></line><line x1="61.953125" y1="339.3" x2="56.953125" y2="339.3" style="visibility: inherit;" fill="rgb(0, 0, 0)" stroke="rgb(204, 204, 204)" stroke-width="1px"></line><line x1="61.953125" y1="301.6" x2="56.953125" y2="301.6" style="visibility: inherit;" fill="rgb(0, 0, 0)" stroke="rgb(204, 204, 204)" stroke-width="1px"></line><line x1="61.953125" y1="263.9" x2="56.953125" y2="263.9" style="visibility: inherit;" fill="rgb(0, 0, 0)" stroke="rgb(204, 204, 204)" stroke-width="1px"></line><line x1="61.953125" y1="226.2" x2="56.953125" y2="226.2" style="visibility: inherit;" fill="rgb(0, 0, 0)" stroke="rgb(204, 204, 204)" stroke-width="1px"></line><line x1="61.953125" y1="188.5" x2="56.953125" y2="188.5" style="visibility: inherit;" fill="rgb(0, 0, 0)" stroke="rgb(204, 204, 204)" stroke-width="1px"></line><line x1="61.953125" y1="150.8" x2="56.953125" y2="150.8" style="visibility: inherit;" fill="rgb(0, 0, 0)" stroke="rgb(204, 204, 204)" stroke-width="1px"></line><line x1="61.953125" y1="113.10000000000002" x2="56.953125" y2="113.10000000000002" style="visibility: inherit;" fill="rgb(0, 0, 0)" stroke="rgb(204, 204, 204)" stroke-width="1px"></line><line x1="61.953125" y1="75.39999999999998" x2="56.953125" y2="75.39999999999998" style="visibility: inherit;" fill="rgb(0, 0, 0)" stroke="rgb(204, 204, 204)" stroke-width="1px"></line><line x1="61.953125" y1="37.69999999999999" x2="56.953125" y2="37.69999999999999" style="visibility: inherit;" fill="rgb(0, 0, 0)" stroke="rgb(204, 204, 204)" stroke-width="1px"></line><line x1="61.953125" y1="0" x2="56.953125" y2="0" style="visibility: inherit;" fill="rgb(0, 0, 0)" stroke="rgb(204, 204, 204)" stroke-width="1px"></line></g><g transform="translate(51.953125, 0)"><text x="0" y="377" dx="0em" dy="0.3em" style="text-anchor: end; visibility: hidden; font-family: Roboto, sans-serif; font-size: 12px; font-weight: 200;" fill="rgb(33, 33, 33)" stroke="none" stroke-width="1px">-1e+3</text><text x="0" y="339.3" dx="0em" dy="0.3em" style="text-anchor: end; visibility: inherit; font-family: Roboto, sans-serif; font-size: 12px; font-weight: 200;" fill="rgb(33, 33, 33)" stroke="none" stroke-width="1px">0</text><text x="0" y="301.6" dx="0em" dy="0.3em" style="text-anchor: end; visibility: inherit; font-family: Roboto, sans-serif; font-size: 12px; font-weight: 200;" fill="rgb(33, 33, 33)" stroke="none" stroke-width="1px">1e+3</text><text x="0" y="263.9" dx="0em" dy="0.3em" style="text-anchor: end; visibility: inherit; font-family: Roboto, sans-serif; font-size: 12px; font-weight: 200;" fill="rgb(33, 33, 33)" stroke="none" stroke-width="1px">2e+3</text><text x="0" y="226.2" dx="0em" dy="0.3em" style="text-anchor: end; visibility: inherit; font-family: Roboto, sans-serif; font-size: 12px; font-weight: 200;" fill="rgb(33, 33, 33)" stroke="none" stroke-width="1px">3e+3</text><text x="0" y="188.5" dx="0em" dy="0.3em" style="text-anchor: end; visibility: inherit; font-family: Roboto, sans-serif; font-size: 12px; font-weight: 200;" fill="rgb(33, 33, 33)" stroke="none" stroke-width="1px">4e+3</text><text x="0" y="150.8" dx="0em" dy="0.3em" style="text-anchor: end; visibility: inherit; font-family: Roboto, sans-serif; font-size: 12px; font-weight: 200;" fill="rgb(33, 33, 33)" stroke="none" stroke-width="1px">5e+3</text><text x="0" y="113.10000000000002" dx="0em" dy="0.3em" style="text-anchor: end; visibility: inherit; font-family: Roboto, sans-serif; font-size: 12px; font-weight: 200;" fill="rgb(33, 33, 33)" stroke="none" stroke-width="1px">6e+3</text><text x="0" y="75.39999999999998" dx="0em" dy="0.3em" style="text-anchor: end; visibility: inherit; font-family: Roboto, sans-serif; font-size: 12px; font-weight: 200;" fill="rgb(33, 33, 33)" stroke="none" stroke-width="1px">7e+3</text><text x="0" y="37.69999999999999" dx="0em" dy="0.3em" style="text-anchor: end; visibility: inherit; font-family: Roboto, sans-serif; font-size: 12px; font-weight: 200;" fill="rgb(33, 33, 33)" stroke="none" stroke-width="1px">8e+3</text><text x="0" y="0" dx="0em" dy="0.3em" style="text-anchor: end; visibility: hidden; font-family: Roboto, sans-serif; font-size: 12px; font-weight: 200;" fill="rgb(33, 33, 33)" stroke="none" stroke-width="1px">9e+3</text></g><line x1="61.953125" y1="0" x2="61.953125" y2="377" fill="rgb(0, 0, 0)" stroke="rgb(204, 204, 204)" stroke-width="1px"></line></g></g><g transform="translate(61, 0)" clip-path="url(#clip_0)"><clipPath id="clip_0"><rect width="988" height="377"></rect></clipPath><g><g><g><line x1="0" y1="0" x2="0" y2="377" fill="rgb(0, 0, 0)" stroke="rgb(66, 66, 66)" stroke-width="1px" opacity="0.25"></line><line x1="109.84965277777776" y1="0" x2="109.84965277777776" y2="377" fill="rgb(0, 0, 0)" stroke="rgb(66, 66, 66)" stroke-width="1px" opacity="0.25"></line><line x1="219.69930555555553" y1="0" x2="219.69930555555553" y2="377" fill="rgb(0, 0, 0)" stroke="rgb(66, 66, 66)" stroke-width="1px" opacity="0.25"></line><line x1="329.5489583333333" y1="0" x2="329.5489583333333" y2="377" fill="rgb(0, 0, 0)" stroke="rgb(66, 66, 66)" stroke-width="1px" opacity="0.25"></line><line x1="439.39861111111105" y1="0" x2="439.39861111111105" y2="377" fill="rgb(0, 0, 0)" stroke="rgb(66, 66, 66)" stroke-width="1px" opacity="0.25"></line><line x1="549.2482638888889" y1="0" x2="549.2482638888889" y2="377" fill="rgb(0, 0, 0)" stroke="rgb(66, 66, 66)" stroke-width="1px" opacity="0.25"></line><line x1="659.0979166666666" y1="0" x2="659.0979166666666" y2="377" fill="rgb(0, 0, 0)" stroke="rgb(66, 66, 66)" stroke-width="1px" opacity="0.25"></line><line x1="768.9475694444444" y1="0" x2="768.9475694444444" y2="377" fill="rgb(0, 0, 0)" stroke="rgb(66, 66, 66)" stroke-width="1px" opacity="0.25"></line><line x1="878.7972222222221" y1="0" x2="878.7972222222221" y2="377" fill="rgb(0, 0, 0)" stroke="rgb(66, 66, 66)" stroke-width="1px" opacity="0.25"></line><line x1="988.6468749999999" y1="0" x2="988.6468749999999" y2="377" fill="rgb(0, 0, 0)" stroke="rgb(66, 66, 66)" stroke-width="1px" opacity="0.25"></line></g><g><line x1="0" y1="377" x2="988.6468749999999" y2="377" fill="rgb(0, 0, 0)" stroke="rgb(66, 66, 66)" stroke-width="1px" opacity="0.25"></line><line x1="0" y1="339.3" x2="988.6468749999999" y2="339.3" fill="rgb(0, 0, 0)" stroke="rgb(66, 66, 66)" stroke-width="1px" opacity="0.25"></line><line x1="0" y1="301.6" x2="988.6468749999999" y2="301.6" fill="rgb(0, 0, 0)" stroke="rgb(66, 66, 66)" stroke-width="1px" opacity="0.25"></line><line x1="0" y1="263.9" x2="988.6468749999999" y2="263.9" fill="rgb(0, 0, 0)" stroke="rgb(66, 66, 66)" stroke-width="1px" opacity="0.25"></line><line x1="0" y1="226.2" x2="988.6468749999999" y2="226.2" fill="rgb(0, 0, 0)" stroke="rgb(66, 66, 66)" stroke-width="1px" opacity="0.25"></line><line x1="0" y1="188.5" x2="988.6468749999999" y2="188.5" fill="rgb(0, 0, 0)" stroke="rgb(66, 66, 66)" stroke-width="1px" opacity="0.25"></line><line x1="0" y1="150.8" x2="988.6468749999999" y2="150.8" fill="rgb(0, 0, 0)" stroke="rgb(66, 66, 66)" stroke-width="1px" opacity="0.25"></line><line x1="0" y1="113.10000000000002" x2="988.6468749999999" y2="113.10000000000002" fill="rgb(0, 0, 0)" stroke="rgb(66, 66, 66)" stroke-width="1px" opacity="0.25"></line><line x1="0" y1="75.39999999999998" x2="988.6468749999999" y2="75.39999999999998" fill="rgb(0, 0, 0)" stroke="rgb(66, 66, 66)" stroke-width="1px" opacity="0.25"></line><line x1="0" y1="37.69999999999999" x2="988.6468749999999" y2="37.69999999999999" fill="rgb(0, 0, 0)" stroke="rgb(66, 66, 66)" stroke-width="1px" opacity="0.25"></line><line x1="0" y1="0" x2="988.6468749999999" y2="0" fill="rgb(0, 0, 0)" stroke="rgb(66, 66, 66)" stroke-width="1px" opacity="0.25"></line></g></g></g><g><g><line x1="0" y1="339.3" x2="988.6468749999999" y2="339.3" fill="rgb(0, 0, 0)" stroke="rgb(153, 153, 153)" stroke-width="1.5px"></line></g></g><g><g><line x1="109.84965277777776" y1="0" x2="109.84965277777776" y2="377" fill="rgb(0, 0, 0)" stroke="rgb(153, 153, 153)" stroke-width="1.5px"></line></g></g><g><g><g><g><g><path stroke="rgb(0, 153, 136)" stroke-width="2px" d="M110.83829965277776,336.5144836463928L112.43111961805555,336.3853509643555L113.25499201388887,337.34844082717893L113.30991684027777,337.6259142883301L113.74931545138887,337.5107038166046L114.73796232638887,337.22904378356935L115.50690989583332,337.3789528553009L115.72660920138887,337.4751808742523L116.88003055555555,337.35540847587583L118.47285052083332,337.6248686161041L118.63762499999999,337.63122462348935L118.85732430555554,337.61296800041197L119.29672291666667,337.4849150745392L120.34029461805554,337.36473539466857L120.99939253472222,337.4965980995178L122.42743802083332,337.3631387706757L123.25131041666666,337.36217938690186L123.30623524305554,337.3577471805572L124.07518281249999,337.364549011612L125.33845381944442,337.09788260383607L125.50322829861109,335.9867040679932L127.20589791666667,336.15104589004517L127.37067239583331,335.44826355133057L128.85364270833333,334.94631240768433L129.512740625,335.4000533302307L129.9521392361111,333.8598766540527L130.6112371527778,337.473912865448L131.0506357638889,335.92825629730226L131.9294329861111,335.2416866958618L132.64345572916665,333.92490765838625L133.79687708333333,334.48303546066285L133.8518019097222,335.04701994781493L134.34612534722223,334.29574206085204L135.16999774305555,333.557135345459L135.3896970486111,333.65796397705077L135.9389453125,333.3158043777466L136.26849427083332,334.2478053741455L137.8613142361111,334.1318768386841L139.12458524305555,334.16109698486326L139.39920937499997,333.5416966156006L139.50905902777777,334.0963910003662L140.38785624999997,332.86128340759274L140.71740520833333,333.0726630783081L142.25530034722223,333.6159518554688L142.47499965277777,333.0021964767456L142.58484930555554,333.0470382843018L144.8367671875,333.3213918426514L145.16631614583332,333.4082946685791L145.22124097222223,332.7943212677002L145.99018854166667,333.2111963119507L146.48451197916665,332.55464071044923L146.92391059027776,333.1607313735962L149.45045260416666,333.115057170105L149.6701519097222,333.39067744293214L151.81222013888888,332.99148807983397L152.41639322916666,332.7585869186401L152.80086701388888,332.8497943878174L153.1304159722222,332.9336719406128L154.0092131944444,333.2737721221924L155.5471083333333,332.86909481353763L156.92022899305553,332.7398951141358L157.41455243055552,333.45374337158205L158.51304895833331,332.73072610321043L161.5888392361111,333.0886017059326L164.71955434027774,332.61189597473145L164.99417847222222,333.1244810195923L165.5983515625,332.5926783859253L165.98282534722222,333.01884439544676L166.20252465277775,333.0829843276977L166.31237430555552,332.9364602081299L166.80669774305554,332.739943435669L167.85026944444442,332.9271485336304L168.67414184027774,332.8427463470459L169.0036907986111,332.7846293487549L170.15711215277776,332.9463626708984L170.76128524305554,332.8019474411011L170.87113489583334,332.8771714126587L171.64008246527774,333.1174042160034L172.02455624999996,333.0803007568359L173.06812795138887,332.82232877349855L173.12305277777776,333.232308795166L173.78215069444443,332.89912089385984L174.33139895833332,333.0365686187744L174.4412486111111,332.7490445663452L174.88064722222222,332.9528204986572L176.74809131944443,333.05146430664064L177.13256510416664,333.1708190689087L178.28598645833333,333.16646840515136L178.61553541666666,333.1359918991089L178.72538506944443,332.95842119445797L178.89015954861108,332.70169406585694L179.10985885416665,332.840727772522L179.43940781249998,333.09491456909177L179.65910711805554,332.9701420425415L181.14207743055556,333.058548588562L182.62504774305555,332.8071851501465L183.72354427083332,333.14606521301266L184.7671159722222,331.85793221588136L185.37128906249998,333.0560082565308L185.42621388888887,333.3059824508667L187.67813177083332,332.63266675567627L188.88647795138888,332.72770945892336L189.87512482638888,330.7776496917724L189.93004965277777,331.106221736145L191.90734340277777,331.06873573150637L192.34674201388887,331.1463286087036L192.786140625,331.4829461883545L192.95091510416663,330.25027077941894L194.87328402777774,330.9254520309448L195.03805850694442,331.42881111450197L195.8070060763889,330.5277399261475L195.97178055555554,331.3156081436157L196.2464046875,335.45225295410154L196.90550260416663,335.49030443572997L197.5096756944444,330.5384396942139L199.2123453125,330.86394217071535L199.6517439236111,330.6080940338135L201.5741128472222,330.69055415496825L202.39798524305553,329.7780946166992L203.33170729166665,330.0903650466919L203.44155694444444,329.75186062622066L203.6063314236111,330.1178749557495L203.82603072916663,330.1385042236328L207.34121961805553,329.80030526428226L207.45106927083333,328.89049363098144L208.11016718749997,328.06237875366213L211.29580711805554,330.0205772476196L212.0098298611111,329.84319867858886L212.3943036458333,329.05432088623047L214.15189809027777,329.05542767944337L214.31667256944445,330.0148919891358L214.64622152777775,329.08818737792967L214.70114635416667,329.21701028442385L216.18411666666665,329.2211797424316L216.4038159722222,328.77589911499024L216.67844010416667,327.63809268188476L217.5023125,329.096165032959L217.55723732638887,328.6074088317871L218.54588420138887,330.778769140625L223.54404340277776,327.72785568237305L224.03836684027777,329.02909589538575L224.58761510416664,328.4917305328369L225.19178819444443,328.3528878112793L226.01566059027775,328.82468775634766L226.2353598958333,328.6383656768799L227.3338564236111,328.3987196350098L230.354721875,328.8676386962891L231.17859427083332,327.01293629760744L231.50814322916665,327.758150982666L232.82633906249995,328.4593401489258L233.10096319444443,326.8675644165039L237.2203251736111,328.1554828430176L238.48359618055554,327.0957030303955L239.41731822916665,324.92551394348146L241.33968715277777,328.29509640808106L243.64652986111108,325.51477893371583L243.92115399305555,327.4562921173096L244.63517673611108,327.3403135345459L245.07457534722218,328.0890062194824L245.23934982638886,327.20802873535155L246.33784635416666,325.3077591308594L247.05186909722218,323.3056104766846L247.32649322916663,326.3087408416748L248.09544079861112,328.1731259552002L248.20529045138883,327.8841677886963L248.80946354166662,326.5315088623047L251.3909303819444,321.4619794616699L251.44585520833334,328.17870479125975L252.5992765625,325.1018334655762L254.13717170138884,323.0600116821289L254.5765703125,326.6452404937744L255.01596892361107,327.94617467041013L256.4989392361111,327.78594967041016L256.7186385416666,326.3102917327881L257.10311232638884,324.4071458465576L257.2678868055556,327.12202906188963L257.76221024305556,327.69691954650875L258.58608263888885,324.0381787261963L258.8607067708333,325.2292677032471L259.08040607638884,324.67983231201174L260.014128125,325.4002856628418L260.2887522569444,325.9236930053711L260.34367708333326,326.7918652832031L261.05769982638884,324.814647088623L261.11262465277775,324.98455135192876L261.1675494791666,327.2524212677002L261.71679774305557,326.7097451385498L261.8815722222222,321.0818914855957L262.4308204861111,328.6204234313965L262.8152942708333,323.1133494506836L264.29826458333326,326.6983654174805L265.50661076388883,326.99623660583495L266.0558590277778,329.3087820800781L266.98958107638884,323.56595769348144L267.04450590277776,323.8197861053467L270.28507065972224,322.9868080108643L271.98774027777773,324.3412743927002L272.1525147569444,324.50769145202634L272.53698854166663,326.97871889953615L272.7017630208333,322.44519150390624L273.14116163194444,325.31469902343747L275.6677036458333,324.6433944244385L276.49157604166663,322.6626073394775L277.2055987847222,326.2906467285156L279.1828925347222,324.9448747711181L279.23781736111107,326.1338099884033L280.28138906249995,323.5821569122314L280.33631388888887,322.368833126831L280.3912387152777,320.53099954528807L281.1601862847222,323.7577872772217L281.21511111111107,320.7910384246826L281.2700359374999,323.7624526062012L281.6545097222222,320.9590846099854L282.5882317708333,323.1565696105957L284.12612690972225,319.0869853088379L285.1696986111111,321.1865720336914L285.5541723958333,321.3523885253906L285.82879652777774,321.1357458343506L286.5428192708333,321.76235071411134L286.70759374999994,320.56630993041995L287.86101510416665,318.4679036315918L289.17921093749993,324.1070311584473L289.34398541666667,323.7596142913818L291.43112881944444,316.93325775756836L293.29857291666667,321.47538983764645L294.1773701388889,323.22817521972655L295.1660170138889,317.1762621459961L295.77019010416666,318.7281219909668L296.20958871527773,324.65182308044433L296.81376180555554,319.2751171447754L297.582709375,319.236278137207L299.9444769097222,316.31418758544925L301.15282309027776,326.8758998809814L301.2077479166666,319.46990124511717L301.5922217013889,320.7600746765137L301.7020713541666,319.2573095092773L302.0865451388889,319.4542864868164L303.514590625,319.2606782104492L305.7115836805555,319.7783053771973L305.8763581597222,313.9653791015625L306.2608319444444,313.9746016113281L306.9199298611111,312.38885916748046L307.57902777777775,317.88657947998047L308.29305052083333,316.04276323242186L308.3479753472222,316.86441107788085L308.45782499999996,320.36282680358886L309.2267725694444,318.45863740234375L310.5449684027778,320.02842338562016L310.7097428819444,313.4434996398926L310.8195925347222,318.5230016845703L310.9294421875,319.3795491821289L311.0942166666666,314.8162361633301L311.31391597222216,319.26278134765624L311.47869045138884,317.80811221313473L312.5222621527778,313.69473709716794L313.73060833333335,316.26224193725585L314.00523246527774,316.7875292175293L315.70790208333335,318.7147139160156L316.0374510416666,321.16549924316405L316.4219248263888,324.27895457153323L316.53177447916664,313.94355157470704L317.5753461805555,318.249073815918L321.2003847222222,313.07944060668945L321.310234375,314.8205321777344L322.3538060763888,314.2751385375976L324.1663253472222,320.03938892211914L324.6606487847222,312.5866046875L324.8803480902778,311.5385727600098L325.2098970486111,320.06028913574215L325.86899496527775,312.41285195922853L326.03376944444443,312.307347644043L327.68151423611107,318.6682884277344L328.17583767361106,314.6215003845215L328.5053866319444,316.7399762268066L330.20805624999997,310.58826998291016L330.3179059027778,318.55072443847655L330.8122293402778,318.13686891479495L331.4164024305555,311.2822592407227L331.74595138888884,326.12219326171873L332.13042517361106,317.5292348388672L334.16264375,312.9606340637207L335.5357644097222,311.3180102722168L335.8653133680555,315.79497501220703L336.19486232638883,316.5730713500977L336.3596368055555,315.32155514526363L337.5679829861111,309.17391481323244L339.4903519097222,316.349135559082L340.0945249999999,313.3743308166504L342.01689392361106,311.10612495117186L343.22524010416663,315.7526706604004L343.3900145833333,313.24997420043945L343.6646387152777,319.5595077758789L347.01505312499995,308.70145447387694L347.28967725694446,316.97788154296876L347.56430138888885,311.5588655029297L347.89385034722216,312.33908338623047L351.24426475694446,313.9758464660644L353.44125781249994,309.08304271850585L353.8806564236111,315.9984270751953L354.4848295138889,311.57368180541994L355.1439274305555,314.85451602172856L356.40719843749997,311.229487524414L358.3844921875,310.77872355346676L358.93374045138887,317.4318922607422L359.1534397569444,316.1736915771484L360.5265604166666,315.05695793457033L360.7462597222222,310.00837706909175L361.07580868055555,312.131206451416L362.9981776041666,316.1679275085449L363.1629520833333,314.8479788085937L365.1951706597222,311.98091958007814L365.7444189236111,317.4156286132812L366.78799062499996,315.53774108276366L367.2273892361111,314.92673830566406L367.44708854166663,316.63631273193363L367.5569381944444,312.41638403320314L367.88648715277776,312.5642640319824L368.38081059027775,307.9031436279297L369.64408159722217,313.56404575805664L370.0285553819444,314.8732256591797L371.23690156249995,309.66472583007817L371.62137534722217,317.66225021362305L371.95092430555553,307.60702236938477L372.1706236111111,316.32117349853513L372.2255484375,309.9841081542969L373.8732932291666,307.4928615966797L375.13656423611104,309.43279627685547L375.2464138888888,316.9569583190918L375.41118836805555,312.2265839538574L375.4661131944444,315.5447546081543L375.90551180555553,310.38266185913085L377.9926552083333,313.3130199951172L378.7066779513888,313.4147299194336L379.5305503472222,317.50691489257815L380.57412204861106,309.4296944946289L380.7938213541666,315.2813585327149L381.1782951388888,313.0048850830078L381.67261857638886,311.27842803344726L383.3752881944444,314.30105958862305L383.9794612847222,309.95135535888676L385.7370557291666,308.1607710327148L387.05525156249996,310.2955266296387L388.09882326388885,313.7049467468262L388.8128460069444,314.032605859375L388.8677708333333,312.3580760498047L389.3071694444444,314.144274621582L389.4170190972222,316.2166563232422L391.7238618055555,313.6717130371093L391.9435611111111,312.67659548950195L392.1632604166666,317.10847393798826L392.7674335069444,314.6431921508789L392.8223583333333,311.2913713012695L392.93220798611105,312.6115385986328L392.98713281249996,312.0187346313477L394.74472725694443,312.3372770812988L395.3489003472222,308.9844690917969L395.45875,312.31465800170895L395.7333741319444,310.3212152770996L395.8432237847222,312.9756344482422L396.447396875,311.0393399902344L396.8318706597222,312.557657788086L397.5458934027777,305.0846751525879L398.36976579861107,313.43420349731446L398.86408923611106,306.4166444091797L399.02886371527774,312.03993627929685L400.67660850694443,315.136467565918L401.93987951388885,312.43572185058594L401.9948043402777,311.8519770202637L402.15957881944445,312.9607030944824L402.2694284722222,315.3570162475586L402.4891277777777,314.1603242736816L402.81867673611106,312.0581327880859L404.35657187499993,303.9981746826172L404.79597048611106,312.1060677490234L406.0592414930555,316.46234830932616L406.60848975694444,306.3946903259277L408.91533246527774,298.69991645507815L409.40965590277773,300.99814149780275L409.6842800347222,308.5668882080078L412.15589722222217,316.4174967224121L412.4305213541667,309.45751389160154L413.0896192708333,308.2034642578125L415.6161612847222,302.47509146118165L417.6483798611111,311.117241204834L421.1086439236111,311.2611289245606L424.18443420138885,305.3564676696777L424.56890798611107,308.47451124267576L426.10680312499994,310.4057296386719L427.37007413194436,285.6767386230469L427.80947274305555,302.15645697021483L430.17124027777777,308.60184078369144L432.03868437499995,303.72890408935547L432.7527071180555,291.54239749755857L432.91748159722215,306.01824717407226L436.54252013888885,309.5123864440918L436.98191875,305.70008439331053L437.42131736111105,314.87142625732423L438.35503940972217,307.3920697814942L438.84936284722215,303.11156889038085L439.23383663194437,310.30682926635745L439.56338559027773,304.729824822998L439.89293454861104,307.2413825317383L441.87022829861104,304.5031600158691L442.30962690972217,312.1308474914551L443.6827475694444,309.0810707397461L443.7376723958333,303.39728951416015L445.49526684027774,287.50947773437497L445.60511649305556,304.32523322753906L446.70361302083325,302.9701087524414L446.97823715277775,289.2683953491211L447.0880868055555,301.79954031982425L447.1979364583333,305.1329483642578L448.6259819444444,290.42651523437496L451.75669704861104,310.64744545288085L452.7453439236111,299.1069448364258L454.7226376736111,306.88988939819336L454.83248732638884,291.940046899414L455.8760590277778,300.5554633300781L457.6336534722222,311.73075900268555L457.74350312499996,312.05039443969724L458.4575258680555,307.9756305297852L459.0616989583333,290.39014522705077L459.1166237847222,309.38280650024416L459.39124791666666,294.9881231933594L459.66587204861105,301.72507683715816L461.69809062499996,305.80732598266604L462.6867375,302.29146503295897L463.7303092013889,285.5289805786133L464.6091064236111,301.48985681762696L465.3780539930555,296.38455567626954L466.3667008680555,295.9785581542969L466.5314753472222,303.39687072753907L468.3989194444444,296.50695642089846L468.5636939236111,301.05751025390623L469.05801736111107,281.4136933105468L469.38756631944443,302.0112392578125L469.6621904513889,313.89820986938474L470.3762131944444,304.1744608398438L470.65083732638885,284.95342969970704L471.52963454861106,232.73724074707027L471.8042586805555,268.5702531738281L472.07888281249996,304.3592538879394L472.2985821180555,313.9919536437988L473.1773793402777,276.6331980102539L475.04482343749993,308.80338989868164L476.3630192708333,293.425473840332L478.6698619791666,271.3695333984375L478.9444861111111,305.7649572021484L479.4937343749999,289.6193201293945L479.7134336805555,290.55118939208984L480.5922309027777,297.0245030517578L481.1964039930555,282.4186569458008L482.51459982638886,272.2325053588867L483.4483218749999,255.0994522705078L484.49189357638886,305.9891046875L485.6453149305555,294.7002511108399L486.0847135416666,303.3425435180664L486.5790369791666,233.47848386230467L487.4578342013889,271.196569921875L489.5999024305555,276.588953894043L489.7097520833333,267.60446679687504L489.87452656249997,285.39072576904294L490.4786996527777,269.8431113891602L490.86317343749994,237.03431362304687L492.95031684027776,294.63709716796876L493.82911406249997,272.57292365722657L494.10373819444436,292.67036014404295L494.2135878472222,266.84298846435547L495.312084375,206.53578676757814L495.91625746527774,222.73708564453125L496.7401298611111,246.8979811035156L497.289378125,284.55371857910154L500.7496421874999,283.7666942626953L500.9144166666667,289.7165844726563L501.243965625,151.10920258789062L503.3311090277777,251.523060546875L504.04513177083334,302.5326654174805L504.10005659722214,243.78175764160156L504.20990624999996,150.8016935546875L504.53945520833327,245.121718359375L505.6928765624999,194.320968359375L506.6815234374999,228.53683854980466L508.2194185763889,149.50492768554687L509.37283993055553,148.4896048339844L511.2402840277777,147.50491323242187L512.6683295138888,209.41112048339846L512.8880288194445,141.56062832031247L512.9978784722222,147.44731396484377L513.7119012152777,254.97377026367187L513.9865253472221,182.59899277343752L514.4808487847222,145.51807905273435L515.4694956597222,144.93958286132812L517.6115638888888,136.67380263671873L518.2157369791666,144.16949409179685L518.2706618055555,147.2305205566406L519.8085569444444,134.22284243164063L520.02825625,135.92318974609375L520.1381059027777,140.82409770507812L520.7972038194445,136.26190068359375L522.1153996527777,134.717857421875L522.7744975694444,133.54551259765626L523.2138961805556,135.8825996582031L523.5434451388888,133.2655974609375L524.1476182291666,142.97073349609374L524.5870168402778,134.32018500976562L524.6968664930555,129.29386196289062L525.0264154513887,242.75212241210934L526.8938595486111,322.5561699584961L527.3881829861111,128.70535170898438L527.4980326388888,125.37532617187502L527.6628071180555,134.26019267578124L529.365476736111,127.5465921386719L529.6950256944444,126.74935126953125L530.5738229166666,141.40795068359375L530.6287477430554,124.82092631835938L534.2537862847222,124.6935599609375L534.4185607638889,124.34743051757812L535.84660625,130.39056748046875L536.1212303819443,126.40263276367189L537.9337496527777,120.42136577148436L537.9886744791667,123.50584428710938L539.4167199652778,130.09916562499998L540.3504420138888,124.73702172851564L540.5701413194445,274.8065612182617L541.0095399305555,122.77435751953125L541.2841640624999,122.7983065917969L541.3390888888889,123.57632929687502L541.6686378472222,127.89445195312501L542.767134375,119.82829028320312L543.4811571180555,123.02264736328125L543.8107060763888,121.97590170898437L545.183826736111,119.71715996093751L545.3486012152778,121.03527934570312L548.4793163194445,116.99038964843751L551.0058583333333,116.61471503906247L551.7748059027778,117.1672556640625L552.2142045138888,124.76168872070315L553.4774755208332,115.09046059570312L553.5324003472222,114.80229858398438L554.5210472222221,115.43552236328122L555.9490927083333,116.80794594726561L557.1574388888889,114.7846451171875L558.2010105902776,112.74516347656252L558.2559354166666,112.76368212890627L559.7938305555555,109.59218803710937L560.2332291666665,109.75648124999998L560.2881539930555,117.55842998046874L561.1120263888889,108.37566352539062L561.8260491319444,108.24163339843749L563.2540946180555,111.89893837890624L564.462440798611,115.99422973632811L564.7919897569444,111.83716044921876L565.2313883680555,106.8117578125L565.5060124999999,106.66730864257813L565.7806366319444,115.08631874999999L568.4170282986111,107.00044189453126L568.5818027777777,112.90334516601561L569.1859758680555,106.176012109375L569.9549234374999,104.81183540039063L571.0534199652777,104.42051381835938L571.8223675347222,105.59990898437499L572.0969916666666,107.19315737304686L574.3489095486111,102.44448525390625L576.2163536458332,103.22523237304686L576.9303763888889,100.42909995117188L577.8640984374999,99.47312514648438L578.3584218749999,97.16324541015626L579.34706875,100.18874404296876L579.6766177083333,99.81262763671876L580.1709411458332,96.67228022460937L582.5327086805555,97.582473828125L583.1918065972222,98.0001007324219L583.30165625,96.49478833007814L583.6861300347222,93.33745014648437L585.4437244791666,94.99923227539061L585.6634237847221,94.93995786132812L587.3660934027778,95.9184458984375L587.695642361111,96.9070400390625L588.684289236111,92.85780600585939L589.0138381944444,91.96011157226563L590.5517333333333,94.01367548828127L590.6615829861111,94.137930859375L591.8699291666667,92.45486884765624L591.9797788194444,93.71248046874999L592.5290270833333,271.4139247802734L593.133200173611,97.63116352539063L594.4513960069444,91.77475937499999L595.0006442708333,88.59603085937499L596.7582387152777,91.25209526367189L597.0328628472222,89.59055244140626L597.4173366319444,88.02156606445313L598.0215097222222,85.26992626953127L598.3510586805555,122.99781469726562L599.6143296875,85.59514399414063L599.8340289930555,91.46154379882813L602.3056461805555,91.13032499999998L603.3492178819445,89.044307421875L603.6238420138887,86.28429189453125L604.5026392361111,91.83060986328124L605.985609548611,80.547375390625L606.8644067708333,84.42057177734377L607.3587302083332,87.39360703125L607.7432039930554,83.66355283203127L608.0178281249999,83.2540255371094L610.5992949652777,78.57077617187501L610.8189942708333,90.65314755859377L612.5216638888888,84.61996943359377L613.1807618055556,80.93965419921877L614.6088072916666,78.40451328124998L614.7735817708333,81.67635048828126L615.3228300347222,78.116019921875L615.5974541666667,80.00709462890626L615.8171534722222,83.02580063476563L616.3664017361111,72.89094350585938L616.5861010416667,79.02203486328125L617.0254996527776,90.74185668945314L618.0141465277777,77.99632978515623L620.1562147569445,77.43876372070315L620.8153126736111,78.68647172851561L620.9251623263889,77.48511557617189L621.3096361111111,71.85557412109374L621.858884375,75.62839057617187L621.9138092013889,79.05621889648438L622.1335085069444,77.4009716796875L622.4630574652778,72.96936245117188L622.6278319444443,72.35250356445314L623.1221553819445,76.87337416992189L623.5066291666667,70.57819208984372L623.8911029513889,140.27306655273435L624.2206519097222,76.09965898437498L624.2755767361111,71.73268095703123L624.6051256944444,77.90502509765625L624.8797498263889,73.51315917968748L625.4289980902778,66.11635659179686L627.1316677083332,66.26704614257812L628.3949387152777,64.50663286132811L628.5047883680554,64.3114875L629.2188111111111,74.02892021484377L629.9877586805555,73.56280610351561L630.0976083333333,68.91955776367188L630.9764055555555,73.85542290039062L631.0313303819445,65.72532954101561L631.0862552083332,75.92527807617189L633.722646875,72.98060986328127L634.2169703124999,69.07838374023439L634.71129375,65.24572221679688L635.2605420138888,70.51199619140623L636.7435123263889,75.22282104492189L637.1829109374999,74.8845887207031L637.5124598958333,68.49900395507812L638.2264826388888,63.591119287109386L640.0390019097222,71.08327636718752L641.0276487847221,67.91145092773436L641.0825736111111,62.50289995117186L641.2473480902778,65.558385546875L642.1810701388888,70.48690581054687L642.8401680555555,65.25663828124999L642.8950928819444,266.7810080444336L643.2795666666666,64.22715952148437L644.5977624999999,70.97109677734376L644.7076121527776,68.63150620117189L645.531484548611,68.2540828125L645.586409375,66.63517338867187L646.57505625,66.86247788085937L647.4538534722221,61.76723452148436L648.0031017361111,63.48512485351562L648.8269741319443,318.83662454223634L649.4311472222221,72.17543505859376L650.1451699652778,66.64662329101564L650.8591927083332,66.04771240234376L651.7929147569444,74.47925849609373L652.1773885416666,69.069934375L653.2758850694444,69.77877905273436L653.8251333333333,67.68199267578125L654.48423125,69.66794326171873L654.5391560763887,69.70809155273437L656.2418256944444,68.07016645507812L656.2967505208334,65.65471567382814L656.3516753472221,74.2159107421875L656.900923611111,68.72691591796877L657.6149463541666,68.83327851562501L657.9444953125,65.62463666992186L658.383893923611,68.46553784179687L658.7134428819444,67.99866899414062L662.5581807291667,69.7299052734375L664.0411510416666,66.11046596679688L665.7438206597222,65.10850747070313L666.0184447916665,61.80272553710937L666.6775427083332,62.56147485351564L669.4787088541666,62.576937744140615L669.5885585069443,62.3502775390625L670.5222805555554,63.63699252929688L670.9067543402778,60.47282490234374L671.4560026041667,67.34223247070311L673.8726949652777,64.559630078125L674.4768680555554,59.26318505859376L675.3556652777777,60.51827475585938L677.8822072916665,63.5858361328125L678.0469817708332,60.94035644531249L678.1019065972222,66.82972968750002L680.7932230902777,59.40903325195311L681.2875465277777,57.61577973632814L681.8917196180555,63.16982915039062L683.5394644097222,60.339254980468745L683.8690133680556,58.10680014648435L683.9239381944444,56.85360649414064L684.2534871527778,55.020572851562484L686.6152546874999,55.87222836914063L687.5489767361111,56.751937988281256L689.3614960069443,69.14130297851563L689.9107442708332,57.00219750976564L690.5698421875,59.128602685546895L691.0092407986111,55.52438696289063L691.8331131944444,59.79890058593752L692.8217600694444,59.35936791992185L693.8653317708332,61.953138964843745L694.4145800347221,58.46533671875001L694.5244296875,321.99850840148923L697.929768923611,56.65910541992187L698.4790171875,58.12178442382811L698.8634909722222,54.52787729492186L699.1381151041667,62.66643842773437L700.0169123263888,50.504138623046885L700.401386111111,60.136322949218744L700.4563109375,56.65776162109375L701.1154088541665,55.77678183593752L701.4449578125,55.25119082031248L703.5321012152776,60.296400683593745L705.344620486111,50.31790283203126L708.3654859375,57.4719564453125L708.5851852430555,52.68851123046874L712.7045472222222,48.97312836914063L713.4185699652777,53.45720097656249L715.2310892361111,50.589718359375L715.2860140624999,52.88487153320313L715.5606381944443,48.24228588867189L716.0000368055555,51.02787041015626L716.9886836805555,51.80962998046874L719.1856767361111,48.29948017578126L720.5038725694443,51.325107666015604L720.8334215277778,51.60964326171876L720.8883463541665,49.188467529296865L721.3277449652777,48.19689125976561L722.7557904513889,51.30474819335936L723.3599635416666,54.4837896484375L725.4471069444444,52.93553090820314L725.6668062499999,46.98218916015627L725.9963552083332,57.61093837890627L726.3808289930555,46.991871875000015L726.4357538194444,49.27680849609374L727.0948517361111,49.739112109375014L728.083498611111,53.60233125000001L729.6213937499999,50.81177651367188L730.2255668402777,51.78877348632812L731.4339130208333,46.78166860351563L732.1479357638888,46.404392480468736L732.2028605902777,47.99580004882811L732.6422592013888,52.07597827148439L733.3013571180554,47.77814145507812L734.0153798611111,48.54007539062501L735.6631246527777,47.69084975585939L736.2123729166666,45.67597988281251L736.486997048611,48.31186889648437L738.3544411458333,45.66697827148438L738.6290652777776,45.11587348632814L738.7389149305556,46.217401953125005L739.1783135416666,49.92461157226562L739.3430880208333,49.23942143554688L739.452937673611,47.484493798828126L740.8260583333332,49.45483422851564L740.935907986111,47.93126088867186L741.6499307291666,50.686343017578146L742.9132017361111,47.874361132812496L742.9681265624998,54.85880156249999L744.5609465277777,47.65106962890625L745.3298940972222,47.818032031249984L745.7692927083332,47.40692163085939L747.5818119791666,46.59986918945314L749.339406423611,50.58218940429688L752.2504222222221,48.65497939453126L753.1841442708333,48.10109497070313L754.4474152777776,46.38591064453123L755.2163628472221,50.02753183593748L755.5459118055555,47.43966982421874L756.0402352430555,47.37128334960937L757.0838069444444,47.407823632812494L757.1936565972221,56.763571972656266L758.8963262152778,47.22595058593748L759.0061758680555,49.06141411132811L759.225875173611,45.004687939453135L759.9398979166666,48.57854853515623L760.3792965277777,44.4924796875L760.5440710069444,48.98192749023439L760.7637703124999,48.52501748046873L761.6425675347222,43.789304736328134L762.1368909722221,47.6929298828125L762.4664399305556,48.759740478515624L762.7410640624998,46.437656103515636L764.4986585069444,43.77549858398438L764.7732826388888,44.90193334960939L765.7070046874999,44.791741845703136L766.4759522569443,48.296369189453124L766.5308770833333,45.18109375000001L767.2998246527777,46.81892680664061L767.4096743055555,47.25492509765624L767.6842984374999,44.592473046875014L768.6729453124999,54.97582250976563L769.6066673611111,51.73873999023437L770.4305397569443,49.01946181640626L771.5290362847222,45.450829150390604L772.078284548611,43.90910532226562L772.4078335069444,50.60354291992188L772.6824576388889,51.04620498046876L773.12185625,49.056204589843745L776.3624210069444,46.08666689453126L777.515842361111,44.88212612304689L778.1749402777776,43.341341113281246L778.5594140624999,46.66974672851564L778.7791133680555,42.024491894531266L780.4817829861109,44.176631738281266L781.8549036458334,46.46679628906252L782.0196781249999,44.253725292968745L782.459076736111,45.84250048828123L783.3378739583333,48.83534296874998L783.8321973958332,48.15087075195311L785.5348670138889,49.24998774414061L785.6447166666666,42.52703583984377L785.8644159722221,47.26746108398436L786.1939649305556,45.773543359375005L786.3038145833333,44.13863720703126L786.3587394097221,47.733391113281264L787.896634548611,48.14704184570314L788.390957986111,47.35874736328125L788.6655821180555,44.775892382812515L789.0500559027777,48.94338071289061L789.2697552083333,43.54970356445313L790.5879510416665,46.71689013671873L790.8076503472221,45.394555273437504L790.9175,45.741421044921864L792.0709213541667,42.191491113281245L792.1258461805554,46.18266567382815L792.1807710069444,44.70454218750001L792.9497185763888,43.28265576171874L793.2792675347222,43.524134570312484L793.6088164930555,45.85544145507812L795.0917868055554,46.584682421875016L795.2016364583333,43.43975136718748L795.311486111111,42.01788334960938L797.6183288194444,47.65488012695313L799.3759232638888,44.088419628906266L801.9573901041666,42.64994741210939L804.209307986111,43.91974526367187L804.5388569444444,43.550881689453135L804.8134810763888,43.16881943359373L806.2415265625,45.08688056640626L807.8343465277777,45.22685654296874L808.8779182291667,46.58937651367189L811.8987836805554,48.12335048828123L812.3931071180555,49.03796206054689L815.4688973958332,44.111190576171865L816.073070486111,46.93246860351561L818.4348380208332,42.299547265624994L818.6545373263888,46.58166347656248L819.5882593749999,49.20796181640624L820.7966055555554,44.933926806640606L822.3345006944443,44.32638247070314L822.5541999999999,46.539435058593746L822.6640496527777,328.02579935302737L822.8288241319444,329.56116084594726L823.7076213541667,42.73410971679686L824.4216440972222,42.05946748046873L824.8610427083333,47.09068710937499L825.0807420138889,43.66422099609377L825.1905916666666,40.87948325195314L825.4102909722221,41.739256787109376L825.8496895833333,41.02536826171877L825.9046144097221,40.77821972656249L826.1243137152777,42.56473583984376L826.4538626736111,42.316390771484365L826.5087874999999,40.58454702148438L828.7057805555554,43.305095361328135L828.9254798611111,45.788674902343764L834.1982631944443,47.19388349609375L834.7475114583333,42.726415087890615L835.4066093749999,41.72002021484377L836.3403314236111,47.78684853515624L836.7248052083334,288.05442497558596L837.2191286458333,41.017323876953114L837.6036024305555,46.11510756835936L838.2077755208333,45.9706583984375L840.0752196180555,44.54232910156251L840.5695430555554,45.45664614257811L843.0411602430555,43.924420947265624L845.1832284722221,47.543805029296884L845.9521760416666,50.08421069335936L846.8309732638887,46.512448632812486L848.8631918402776,44.87656684570311L850.8954104166667,43.48378378906248L852.5431552083332,46.36157499999998L853.0374786458333,45.50239052734376L853.0924034722221,44.12267729492187L854.0810503472222,334.72988026046755L854.5204489583332,49.106274902343735L855.5090958333332,46.89025859374999L856.1681937499999,43.740265283203144L856.3878930555555,43.55518920898439L858.090562673611,47.18744062499998L859.1341343749999,43.04916611328125L859.2439840277776,42.987977246093756L859.3538336805555,43.14615893554689L859.4087585069444,42.57752954101561L860.1227812499999,41.47158310546877L862.4296239583332,43.323043359374985L863.1985715277776,43.95810795898437L864.2970680555555,41.086446679687505L865.5603390624999,45.845316943359364L866.7686852430554,43.50896621093748L867.9221065972222,48.84596450195312L869.5149265624999,45.023225000000004L870.5035734374999,41.68434511718752L871.4922203124999,41.870728173828105L871.8766940972222,40.106191455078125L872.7554913194443,43.918659179687516L873.5793637152777,44.64493642578124L874.1835368055555,46.682319531249995L874.9524843749999,45.696615478515646L876.6551539930555,40.63415712890624L877.2044022569444,314.3003140563965L877.6987256944443,45.446116650390614L879.1267711805555,44.345195654296894L880.7195911458333,46.62676357421876L881.3237642361111,44.58790781249999L883.3559828124999,41.81255825195314L884.3995545138888,47.86287441406249L885.0037276041666,45.90757348632814L885.1685020833332,46.93977666015624L885.772675173611,45.56078134765625L886.1022241319444,40.21135751953126L886.4317730902777,45.87416259765624L886.4866979166666,43.97964555664061L887.4753447916665,42.83101049804689L888.5189164930555,46.164938574218745L888.738615798611,41.78848032226562L889.1230895833332,42.89774023437501L889.4526385416665,40.554596874999994L890.1117364583332,42.707491455078134L890.2765109374999,41.49382021484375L890.715909548611,43.14779726562498L891.0454585069443,45.45648046874999L891.1003833333332,47.98457104492187L892.9678274305555,323.12827390136715L893.3523012152777,43.269401855468764L895.3295949652777,43.11838095703125L897.5265880208333,167.52482817382813L897.9659866319444,40.497844384765635L898.2406107638889,47.80111489257813L898.625084548611,39.38087143554688L898.8997086805555,45.422038720703135L898.9546335069443,41.11744609375001L899.3940321180554,42.36563271484377L900.108054861111,44.045583740234385L900.7122279513887,323.3233536834717L900.7671527777777,47.0803048828125L901.0417769097222,46.00776933593752L901.8107244791667,43.13509560546874L902.2501230902777,45.216253417968765L902.3050479166666,41.37438779296876L902.7444465277777,41.4804006347656L905.9300864583332,43.00682724609375L906.0399361111109,42.51437099609377L908.1820043402778,45.65560200195314L908.2369291666665,43.60492817382813L908.8960270833333,328.9057459777832L910.4888470486111,45.08213124999999L913.0153890624999,41.91240434570311L914.2237352430554,46.44275517578124L917.1347510416665,45.69332041015626L918.452946875,42.48171484375001L919.2218944444444,43.23532827148436L919.7162178819443,47.201375634765625L920.5400902777777,40.981796044921865L921.4738123263887,46.46683310546876L921.9132109374999,45.85873652343751L923.2863315972221,45.512054833984394L923.7806550347221,44.483662158203124L924.9340763888888,45.330862890625L925.5382494791667,181.98992055664064L926.2522722222221,44.70835268554689L926.4719715277777,40.31893505859376L928.1746411458332,43.821058886718745L928.4492652777777,45.45857900390625L928.778814236111,44.26508315429687L929.3829873263887,42.08888378906251L929.6026866319444,42.26392739257815L930.4265590277777,41.78588476562502L931.1955065972221,41.01005263671876L932.7883265625,43.83460732421873L934.7656203124999,45.393653271484396L935.644417534722,44.54685751953125L936.687989236111,41.88635673828124" style="fill: none;" fill="none"></path></g></g></g></g></g></g><g transform="translate(61, 377)" clip-path="url(#clip_1)"><clipPath id="clip_1"><rect width="988" height="23"></rect></clipPath><g><g><line x1="0" y1="0" x2="0" y2="5" style="visibility: inherit;" fill="rgb(0, 0, 0)" stroke="rgb(204, 204, 204)" stroke-width="1px"></line><line x1="109.84965277777776" y1="0" x2="109.84965277777776" y2="5" style="visibility: inherit;" fill="rgb(0, 0, 0)" stroke="rgb(204, 204, 204)" stroke-width="1px"></line><line x1="219.69930555555553" y1="0" x2="219.69930555555553" y2="5" style="visibility: inherit;" fill="rgb(0, 0, 0)" stroke="rgb(204, 204, 204)" stroke-width="1px"></line><line x1="329.5489583333333" y1="0" x2="329.5489583333333" y2="5" style="visibility: inherit;" fill="rgb(0, 0, 0)" stroke="rgb(204, 204, 204)" stroke-width="1px"></line><line x1="439.39861111111105" y1="0" x2="439.39861111111105" y2="5" style="visibility: inherit;" fill="rgb(0, 0, 0)" stroke="rgb(204, 204, 204)" stroke-width="1px"></line><line x1="549.2482638888889" y1="0" x2="549.2482638888889" y2="5" style="visibility: inherit;" fill="rgb(0, 0, 0)" stroke="rgb(204, 204, 204)" stroke-width="1px"></line><line x1="659.0979166666666" y1="0" x2="659.0979166666666" y2="5" style="visibility: inherit;" fill="rgb(0, 0, 0)" stroke="rgb(204, 204, 204)" stroke-width="1px"></line><line x1="768.9475694444444" y1="0" x2="768.9475694444444" y2="5" style="visibility: inherit;" fill="rgb(0, 0, 0)" stroke="rgb(204, 204, 204)" stroke-width="1px"></line><line x1="878.7972222222221" y1="0" x2="878.7972222222221" y2="5" style="visibility: inherit;" fill="rgb(0, 0, 0)" stroke="rgb(204, 204, 204)" stroke-width="1px"></line><line x1="988.6468749999999" y1="0" x2="988.6468749999999" y2="5" style="visibility: inherit;" fill="rgb(0, 0, 0)" stroke="rgb(204, 204, 204)" stroke-width="1px"></line></g><g transform="translate(0, 8)"><text x="0" y="0" dx="0em" dy="0.95em" style="text-anchor: middle; visibility: hidden; font-family: Roboto, sans-serif; font-size: 12px; font-weight: 200;" fill="rgb(33, 33, 33)" stroke="none" stroke-width="1px">-2k</text><text x="109.84965277777776" y="0" dx="0em" dy="0.95em" style="text-anchor: middle; visibility: inherit; font-family: Roboto, sans-serif; font-size: 12px; font-weight: 200;" fill="rgb(33, 33, 33)" stroke="none" stroke-width="1px">0</text><text x="219.69930555555553" y="0" dx="0em" dy="0.95em" style="text-anchor: middle; visibility: inherit; font-family: Roboto, sans-serif; font-size: 12px; font-weight: 200;" fill="rgb(33, 33, 33)" stroke="none" stroke-width="1px">2k</text><text x="329.5489583333333" y="0" dx="0em" dy="0.95em" style="text-anchor: middle; visibility: inherit; font-family: Roboto, sans-serif; font-size: 12px; font-weight: 200;" fill="rgb(33, 33, 33)" stroke="none" stroke-width="1px">4k</text><text x="439.39861111111105" y="0" dx="0em" dy="0.95em" style="text-anchor: middle; visibility: inherit; font-family: Roboto, sans-serif; font-size: 12px; font-weight: 200;" fill="rgb(33, 33, 33)" stroke="none" stroke-width="1px">6k</text><text x="549.2482638888889" y="0" dx="0em" dy="0.95em" style="text-anchor: middle; visibility: inherit; font-family: Roboto, sans-serif; font-size: 12px; font-weight: 200;" fill="rgb(33, 33, 33)" stroke="none" stroke-width="1px">8k</text><text x="659.0979166666666" y="0" dx="0em" dy="0.95em" style="text-anchor: middle; visibility: inherit; font-family: Roboto, sans-serif; font-size: 12px; font-weight: 200;" fill="rgb(33, 33, 33)" stroke="none" stroke-width="1px">10k</text><text x="768.9475694444444" y="0" dx="0em" dy="0.95em" style="text-anchor: middle; visibility: inherit; font-family: Roboto, sans-serif; font-size: 12px; font-weight: 200;" fill="rgb(33, 33, 33)" stroke="none" stroke-width="1px">12k</text><text x="878.7972222222221" y="0" dx="0em" dy="0.95em" style="text-anchor: middle; visibility: inherit; font-family: Roboto, sans-serif; font-size: 12px; font-weight: 200;" fill="rgb(33, 33, 33)" stroke="none" stroke-width="1px">14k</text><text x="988.6468749999999" y="0" dx="0em" dy="0.95em" style="text-anchor: middle; visibility: hidden; font-family: Roboto, sans-serif; font-size: 12px; font-weight: 200;" fill="rgb(33, 33, 33)" stroke="none" stroke-width="1px">16k</text></g><line x1="0" y1="0" x2="988.6468749999999" y2="0" fill="rgb(0, 0, 0)" stroke="rgb(204, 204, 204)" stroke-width="1px"></line></g></g></g></g></svg>