<svg viewBox="0 0 1050.5999755859375 400" xmlns="http://www.w3.org/2000/svg"><g><g><g><g><g><line x1="72.34375" y1="377" x2="67.34375" y2="377" style="visibility: inherit;" fill="rgb(0, 0, 0)" stroke="rgb(204, 204, 204)" stroke-width="1px"></line><line x1="72.34375" y1="345.5833333333333" x2="67.34375" y2="345.5833333333333" style="visibility: inherit;" fill="rgb(0, 0, 0)" stroke="rgb(204, 204, 204)" stroke-width="1px"></line><line x1="72.34375" y1="314.1666666666667" x2="67.34375" y2="314.1666666666667" style="visibility: inherit;" fill="rgb(0, 0, 0)" stroke="rgb(204, 204, 204)" stroke-width="1px"></line><line x1="72.34375" y1="282.75" x2="67.34375" y2="282.75" style="visibility: inherit;" fill="rgb(0, 0, 0)" stroke="rgb(204, 204, 204)" stroke-width="1px"></line><line x1="72.34375" y1="251.33333333333337" x2="67.34375" y2="251.33333333333337" style="visibility: inherit;" fill="rgb(0, 0, 0)" stroke="rgb(204, 204, 204)" stroke-width="1px"></line><line x1="72.34375" y1="219.91666666666663" x2="67.34375" y2="219.91666666666663" style="visibility: inherit;" fill="rgb(0, 0, 0)" stroke="rgb(204, 204, 204)" stroke-width="1px"></line><line x1="72.34375" y1="188.5" x2="67.34375" y2="188.5" style="visibility: inherit;" fill="rgb(0, 0, 0)" stroke="rgb(204, 204, 204)" stroke-width="1px"></line><line x1="72.34375" y1="157.08333333333331" x2="67.34375" y2="157.08333333333331" style="visibility: inherit;" fill="rgb(0, 0, 0)" stroke="rgb(204, 204, 204)" stroke-width="1px"></line><line x1="72.34375" y1="125.66666666666669" x2="67.34375" y2="125.66666666666669" style="visibility: inherit;" fill="rgb(0, 0, 0)" stroke="rgb(204, 204, 204)" stroke-width="1px"></line><line x1="72.34375" y1="94.25" x2="67.34375" y2="94.25" style="visibility: inherit;" fill="rgb(0, 0, 0)" stroke="rgb(204, 204, 204)" stroke-width="1px"></line><line x1="72.34375" y1="62.83333333333332" x2="67.34375" y2="62.83333333333332" style="visibility: inherit;" fill="rgb(0, 0, 0)" stroke="rgb(204, 204, 204)" stroke-width="1px"></line><line x1="72.34375" y1="31.416666666666682" x2="67.34375" y2="31.416666666666682" style="visibility: inherit;" fill="rgb(0, 0, 0)" stroke="rgb(204, 204, 204)" stroke-width="1px"></line><line x1="72.34375" y1="0" x2="67.34375" y2="0" style="visibility: inherit;" fill="rgb(0, 0, 0)" stroke="rgb(204, 204, 204)" stroke-width="1px"></line></g><g transform="translate(62.34375, 0)"><text x="0" y="377" dx="0em" dy="0.3em" style="text-anchor: end; visibility: hidden; font-family: Roboto, sans-serif; font-size: 12px; font-weight: 200;" fill="rgb(33, 33, 33)" stroke="none" stroke-width="1px">0</text><text x="0" y="345.5833333333333" dx="0em" dy="0.3em" style="text-anchor: end; visibility: inherit; font-family: Roboto, sans-serif; font-size: 12px; font-weight: 200;" fill="rgb(33, 33, 33)" stroke="none" stroke-width="1px">500</text><text x="0" y="314.1666666666667" dx="0em" dy="0.3em" style="text-anchor: end; visibility: inherit; font-family: Roboto, sans-serif; font-size: 12px; font-weight: 200;" fill="rgb(33, 33, 33)" stroke="none" stroke-width="1px">1e+3</text><text x="0" y="282.75" dx="0em" dy="0.3em" style="text-anchor: end; visibility: inherit; font-family: Roboto, sans-serif; font-size: 12px; font-weight: 200;" fill="rgb(33, 33, 33)" stroke="none" stroke-width="1px">1.5e+3</text><text x="0" y="251.33333333333337" dx="0em" dy="0.3em" style="text-anchor: end; visibility: inherit; font-family: Roboto, sans-serif; font-size: 12px; font-weight: 200;" fill="rgb(33, 33, 33)" stroke="none" stroke-width="1px">2e+3</text><text x="0" y="219.91666666666663" dx="0em" dy="0.3em" style="text-anchor: end; visibility: inherit; font-family: Roboto, sans-serif; font-size: 12px; font-weight: 200;" fill="rgb(33, 33, 33)" stroke="none" stroke-width="1px">2.5e+3</text><text x="0" y="188.5" dx="0em" dy="0.3em" style="text-anchor: end; visibility: inherit; font-family: Roboto, sans-serif; font-size: 12px; font-weight: 200;" fill="rgb(33, 33, 33)" stroke="none" stroke-width="1px">3e+3</text><text x="0" y="157.08333333333331" dx="0em" dy="0.3em" style="text-anchor: end; visibility: inherit; font-family: Roboto, sans-serif; font-size: 12px; font-weight: 200;" fill="rgb(33, 33, 33)" stroke="none" stroke-width="1px">3.5e+3</text><text x="0" y="125.66666666666669" dx="0em" dy="0.3em" style="text-anchor: end; visibility: inherit; font-family: Roboto, sans-serif; font-size: 12px; font-weight: 200;" fill="rgb(33, 33, 33)" stroke="none" stroke-width="1px">4e+3</text><text x="0" y="94.25" dx="0em" dy="0.3em" style="text-anchor: end; visibility: inherit; font-family: Roboto, sans-serif; font-size: 12px; font-weight: 200;" fill="rgb(33, 33, 33)" stroke="none" stroke-width="1px">4.5e+3</text><text x="0" y="62.83333333333332" dx="0em" dy="0.3em" style="text-anchor: end; visibility: inherit; font-family: Roboto, sans-serif; font-size: 12px; font-weight: 200;" fill="rgb(33, 33, 33)" stroke="none" stroke-width="1px">5e+3</text><text x="0" y="31.416666666666682" dx="0em" dy="0.3em" style="text-anchor: end; visibility: inherit; font-family: Roboto, sans-serif; font-size: 12px; font-weight: 200;" fill="rgb(33, 33, 33)" stroke="none" stroke-width="1px">5.5e+3</text><text x="0" y="0" dx="0em" dy="0.3em" style="text-anchor: end; visibility: hidden; font-family: Roboto, sans-serif; font-size: 12px; font-weight: 200;" fill="rgb(33, 33, 33)" stroke="none" stroke-width="1px">6e+3</text></g><line x1="72.34375" y1="0" x2="72.34375" y2="377" fill="rgb(0, 0, 0)" stroke="rgb(204, 204, 204)" stroke-width="1px"></line></g></g><g transform="translate(72, 0)" clip-path="url(#clip_0)"><clipPath id="clip_0"><rect width="978" height="377"></rect></clipPath><g><g><g><line x1="0" y1="0" x2="0" y2="377" fill="rgb(0, 0, 0)" stroke="rgb(66, 66, 66)" stroke-width="1px" opacity="0.25"></line><line x1="122.28203124999999" y1="0" x2="122.28203124999999" y2="377" fill="rgb(0, 0, 0)" stroke="rgb(66, 66, 66)" stroke-width="1px" opacity="0.25"></line><line x1="244.56406249999998" y1="0" x2="244.56406249999998" y2="377" fill="rgb(0, 0, 0)" stroke="rgb(66, 66, 66)" stroke-width="1px" opacity="0.25"></line><line x1="366.84609374999997" y1="0" x2="366.84609374999997" y2="377" fill="rgb(0, 0, 0)" stroke="rgb(66, 66, 66)" stroke-width="1px" opacity="0.25"></line><line x1="489.12812499999995" y1="0" x2="489.12812499999995" y2="377" fill="rgb(0, 0, 0)" stroke="rgb(66, 66, 66)" stroke-width="1px" opacity="0.25"></line><line x1="611.41015625" y1="0" x2="611.41015625" y2="377" fill="rgb(0, 0, 0)" stroke="rgb(66, 66, 66)" stroke-width="1px" opacity="0.25"></line><line x1="733.6921874999999" y1="0" x2="733.6921874999999" y2="377" fill="rgb(0, 0, 0)" stroke="rgb(66, 66, 66)" stroke-width="1px" opacity="0.25"></line><line x1="855.9742187499999" y1="0" x2="855.9742187499999" y2="377" fill="rgb(0, 0, 0)" stroke="rgb(66, 66, 66)" stroke-width="1px" opacity="0.25"></line><line x1="978.2562499999999" y1="0" x2="978.2562499999999" y2="377" fill="rgb(0, 0, 0)" stroke="rgb(66, 66, 66)" stroke-width="1px" opacity="0.25"></line></g><g><line x1="0" y1="377" x2="978.2562499999999" y2="377" fill="rgb(0, 0, 0)" stroke="rgb(66, 66, 66)" stroke-width="1px" opacity="0.25"></line><line x1="0" y1="345.5833333333333" x2="978.2562499999999" y2="345.5833333333333" fill="rgb(0, 0, 0)" stroke="rgb(66, 66, 66)" stroke-width="1px" opacity="0.25"></line><line x1="0" y1="314.1666666666667" x2="978.2562499999999" y2="314.1666666666667" fill="rgb(0, 0, 0)" stroke="rgb(66, 66, 66)" stroke-width="1px" opacity="0.25"></line><line x1="0" y1="282.75" x2="978.2562499999999" y2="282.75" fill="rgb(0, 0, 0)" stroke="rgb(66, 66, 66)" stroke-width="1px" opacity="0.25"></line><line x1="0" y1="251.33333333333337" x2="978.2562499999999" y2="251.33333333333337" fill="rgb(0, 0, 0)" stroke="rgb(66, 66, 66)" stroke-width="1px" opacity="0.25"></line><line x1="0" y1="219.91666666666663" x2="978.2562499999999" y2="219.91666666666663" fill="rgb(0, 0, 0)" stroke="rgb(66, 66, 66)" stroke-width="1px" opacity="0.25"></line><line x1="0" y1="188.5" x2="978.2562499999999" y2="188.5" fill="rgb(0, 0, 0)" stroke="rgb(66, 66, 66)" stroke-width="1px" opacity="0.25"></line><line x1="0" y1="157.08333333333331" x2="978.2562499999999" y2="157.08333333333331" fill="rgb(0, 0, 0)" stroke="rgb(66, 66, 66)" stroke-width="1px" opacity="0.25"></line><line x1="0" y1="125.66666666666669" x2="978.2562499999999" y2="125.66666666666669" fill="rgb(0, 0, 0)" stroke="rgb(66, 66, 66)" stroke-width="1px" opacity="0.25"></line><line x1="0" y1="94.25" x2="978.2562499999999" y2="94.25" fill="rgb(0, 0, 0)" stroke="rgb(66, 66, 66)" stroke-width="1px" opacity="0.25"></line><line x1="0" y1="62.83333333333332" x2="978.2562499999999" y2="62.83333333333332" fill="rgb(0, 0, 0)" stroke="rgb(66, 66, 66)" stroke-width="1px" opacity="0.25"></line><line x1="0" y1="31.416666666666682" x2="978.2562499999999" y2="31.416666666666682" fill="rgb(0, 0, 0)" stroke="rgb(66, 66, 66)" stroke-width="1px" opacity="0.25"></line><line x1="0" y1="0" x2="978.2562499999999" y2="0" fill="rgb(0, 0, 0)" stroke="rgb(66, 66, 66)" stroke-width="1px" opacity="0.25"></line></g></g></g><g><g><line x1="0" y1="377" x2="978.2562499999999" y2="377" fill="rgb(0, 0, 0)" stroke="rgb(153, 153, 153)" stroke-width="1.5px"></line></g></g><g><g><line x1="122.28203124999999" y1="0" x2="122.28203124999999" y2="377" fill="rgb(0, 0, 0)" stroke="rgb(153, 153, 153)" stroke-width="1.5px"></line></g></g><g><g><g><g><g><path stroke="rgb(0, 119, 187)" stroke-width="2px" d="M123.38256953124997,378.05385932223L125.155658984375,359.4673888092041L126.07277421874998,357.0878121643067L126.133915234375,351.6440290374756L126.623043359375,355.7419366607666L127.29559453124998,354.0079625447591L127.72358164062499,353.1611257578532L128.579555859375,354.2690656483968L128.824119921875,354.4413530069987L130.10808125,352.2688034515381L130.23036328125,350.59368189493813L131.88117070312498,353.75242408752445L132.06459375,344.58355314127607L132.3091578125,352.01516142272953L132.7982859375,374.3094601472219L133.95996523437498,346.9163422698975L134.69365742187497,349.56846194966636L136.283323828125,344.70991778564456L137.2004390625,349.5914108428955L137.261580078125,351.71577117411294L138.11755429687497,347.85498038228354L138.85124648437497,346.53178723653156L139.52379765625,356.7198647816976L139.707220703125,335.9288789164225L141.60259218749997,335.82904125976563L141.786015234375,353.0912301940918L143.43682265625,336.069318166097L144.17051484375,327.64500342814125L144.65964296875,321.399790415446L145.39333515625,356.0503124135335L145.88246328124998,348.8847927907308L146.12702734375,346.2305158996582L146.86071953125,349.6538414967855L147.655552734375,337.9476298522949L148.9395140625,331.05341646321614L149.00065507812496,324.4069621480306L149.55092421875,326.237381825765L150.468039453125,331.8170309143066L150.71260351562498,335.9013318074544L151.32401367187498,341.8517451171875L151.62971875,326.2620104675293L151.69085976562496,374.99292748705545L153.46394921874997,228.31112943522137L153.58623125,307.4896508992513L153.64737226562497,297.27479325358075L154.87019257812497,330.872157023112L155.17589765625,325.1840759480794L155.29817968749998,331.8482673339844L156.03187187499998,339.7534860839844L156.2764359375,336.7939187316895L156.64328203124998,326.50966599527993L158.35523046874997,289.0118417561849L158.59979453124998,186.48184733072915L158.72207656249998,186.87694873046874L160.73973007812498,265.63148325602214L161.228858203125,192.13170837402345L161.59570429687497,178.56845227050783L161.6568453125,169.11542578125L162.51281953125,169.69035998535156L163.06308867187497,209.92389632161462L163.55221679687497,164.43075284830732L166.364703515625,135.3900789794922L166.60926757812499,143.3883205159505L167.770946875,142.4622498372396L168.99376718749997,350.2589594014486L169.66631835937497,132.20116459147135L170.09430546874998,136.26054154459635L170.46115156249996,131.04664811197915L171.43940781249998,118.02247623697917L172.35652304687497,117.82425056966147L173.15135624999996,106.04769466145834L174.67988164062498,103.24256062825522L175.23015078125,109.54215454101562L176.45297109375,108.37989127604166L177.37008632812498,119.57539225260416L179.14317578125,110.73555834960936L179.87686796875,109.18273437499998L183.36190585937499,103.62505240885417L183.66761093749997,98.79421834309893L184.340162109375,91.9846251627604L184.76814921874998,93.72189933268227L185.01271328124997,92.99075618489583L185.1349953125,89.38188932291666L185.68526445312497,92.77694490559897L186.84694374999998,93.53217211914063L187.764058984375,89.17801847330728L188.13090507812498,89.8376150716146L189.41486640624998,84.2262118326823L189.7817125,82.23959855143228L190.08741757812498,89.82092496744791L190.209699609375,82.98129573567708L191.06567382812497,86.33342952473959L191.49366093749998,82.81470149739583L192.34963515624997,82.9592058919271L192.65534023437496,88.78862361653647L192.71648125,81.40773185221353L193.45017343749998,84.05501554361979L194.06158359375,83.6812062988281L194.18386562499998,79.97394759114583L194.67299375,82.8054053548177L195.223262890625,80.37503165690104L196.75178828125,94.34915885416665L197.179775390625,83.74351806640624L198.46373671874997,78.49138159179685L198.83058281249996,80.53358764648436L198.95286484374998,78.72844856770836L199.136287890625,86.94550227864583L199.380851953125,84.59354752604168L199.74769804687497,82.81261523437499L199.99226210937496,82.79497403971354L200.29796718749998,78.57477075195314L201.64306953124998,81.90693164062502L203.293876953125,77.26340104166664L204.516697265625,82.42671793619793L205.43381249999996,79.33110245768228L205.67837656249998,78.11588492838541L206.35092773437498,80.7109813639323L206.41206874999997,71.78481298828125L208.91885039062498,75.80718945312498L210.20281171874998,79.38743155924479L210.26395273437498,76.66906152343748L211.36449101562496,77.2454530436198L211.42563203125,77.37167195638018L213.62670859374998,75.55827986653645L214.11583671874996,69.67133650716146L214.60496484374997,75.92739501953123L214.78838789062496,72.6785926106771L216.92832343749998,70.16243668619794L217.11174648437498,69.40269946289064L217.96772070312497,73.51647265624999L218.15114375,72.68479003906248L218.45684882812498,71.92348811848959L219.19054101562497,81.98927766927085L219.86309218749997,74.85545467122397L220.168797265625,72.53046793619794L221.75846367187498,69.08850211588542L222.24759179687496,365.7662137959798L224.38752734374998,76.06582470703127L224.93779648437496,75.30811238606772L225.30464257812497,72.80950561523436L226.34403984374998,70.47273763020831L226.46632187499998,72.28843074544272L226.64974492187497,73.52555403645833L226.89430898437496,69.73766739908854L230.80733398437496,66.95241422526041L230.929616015625,75.17416202799481L231.66330820312498,70.23364575195312L231.84673124999998,69.61847428385416L235.20948710937498,76.28325626627603L235.45405117187497,68.80246931966145L236.00432031249997,65.91796525065104L236.43230742187498,61.277011800130225L237.71626874999998,64.1380760904948L238.38881992187498,66.20642179361978L238.57224296874998,61.31266235351562L238.93908906249996,63.88735636393229L239.00023007812496,63.237424072265604L239.91734531249998,68.77896818033857L240.65103749999997,66.24940494791667L240.89560156249996,69.78942513020831L241.20130664062498,66.12014868164061L241.32358867187497,60.43321044921876L242.11842187499997,63.99544319661459L242.17956289062496,63.644705566406245L242.48526796874998,63.93346891276044L243.28010117187497,62.622007161458335L248.84393359375,63.5863515625L249.39420273437497,59.77818522135417L250.005612890625,58.60972452799478L250.67816406249995,61.36988118489585L251.53413828124997,69.60571126302081L251.595279296875,65.88280558268228L251.83984335937495,57.82234431966147L251.90098437499998,55.14778580729167L253.062663671875,61.41795727539064L256.42541953125,66.13097884114582L257.342534765625,65.12196386718752L257.70938085937496,63.672686035156254L259.17676523437495,62.98655094401043L259.48247031249997,62.38365161132812L264.068046484375,67.84082478841147L265.47428984374994,57.34008007812499L266.513687109375,58.90407169596356L268.65362265625,64.67835685221355L271.2215453125,57.360605224609365L271.52725039062494,57.037265136718744L272.32208359374994,55.46719881184895L272.81121171875,55.68186914062498L272.994634765625,60.49825276692708L274.217455078125,58.39563712565103L275.01228828125,55.64627994791668L275.317993359375,55.581114908854175L276.173967578125,56.97725439453124L276.29624960937497,59.39612296549481L276.84651875,62.12713330078126L276.96880078124997,55.30833601888019L279.16987734375,60.11766316731773L279.842428515625,57.39269685872396L279.90356953125,56.293113525390616L280.5149796875,55.09682576497396L281.187530859375,57.92708699544271L281.61551796874994,58.76312622070314L282.899479296875,61.51380265299479L283.38860742187495,52.40125122070311L283.877735546875,57.7360712076823L285.52854296874995,60.29919873046875L285.77310703125,58.46058740234374L286.201094140625,61.631645833333316L286.38451718749997,60.04752791341146L286.690222265625,60.778180175781266L286.93478632812497,58.05342862955729L287.85190156249996,60.94768904622398L288.157606640625,63.06438696289064L288.40217070312497,68.3527569173177L289.135862890625,55.61431103515624L289.19700390625,59.14521915690105L289.44156796874995,62.80992423502603L289.74727304687497,56.5822450358073L289.8084140625,64.87971191406251L290.603247265625,57.30375455729167L290.66438828124996,58.51976977539062L290.725529296875,59.653991210937484L291.03123437499994,57.46304687500002L291.33693945312496,59.80472371419272L291.5203625,59.25499340820314L292.13177265624995,59.6389578450521L292.55975976562496,98.10848209635415L294.2105671875,54.18687760416667L295.55566953125,59.419163899739566L296.1670796875,57.5841114908854L297.20647695312493,56.422645914713556L297.26761796874996,55.19889925130208L300.874937890625,56.88251350911457L301.66977109375,59.816934488932276L302.77030937499995,57.327531819661445L302.953732421875,59.006451985677074L303.3817195312499,58.547811604817724L303.56514257812495,61.185676432291665L304.054270703125,58.51427799479167L306.866757421875,64.36664461263021L307.78387265624997,60.66315958658852L308.57870585937496,60.168439127604145L310.779782421875,55.735590413411465L310.84092343749995,55.40850732421875L312.00260273437493,53.061123942057314L312.06374374999996,55.787869710286444L312.124884765625,58.090705240885434L312.98085898437495,56.647041910807275L313.042,75.11074576822915L313.103141015625,63.30700708007814L313.53112812499995,57.356708821614575L314.57052539062494,59.1203067220052L316.282473828125,70.60825268554689L317.44415312499996,63.14924877929689L317.87214023437497,65.36602596028646L318.1778453124999,61.84229703776041L318.9726785156249,67.77050545247396L319.15610156249994,64.27945109049482L319.706370703125,61.799405924479174L320.440062890625,58.91606770833332L321.90744726562497,59.943214762369806L322.09087031249993,59.20253002929688L324.41422890624995,53.61146785481772L326.49302343749997,56.3503016764323L327.4712796875,56.4016298828125L328.57181796874994,57.667132486979156L329.24436914062494,53.38955696614584L329.733497265625,54.958273356119776L330.4060484375,54.13760498046876L331.26202265625,52.68525911458333L333.89108632812497,53.8865477701823L335.23618867187497,54.60937654622398L335.2973296875,59.240819091796894L335.72531679687495,52.582786783854175L335.847598828125,54.34883911132814L336.27558593749995,55.14085205078126L337.86525234374994,53.42729378255207L338.96579062499995,54.82739103190102L340.31089296874995,55.72270467122398L340.494316015625,53.26511751302085L340.9223031249999,54.96312084960938L341.65599531249995,54.97701904296874L342.3896874999999,59.236799967447915L343.184520703125,68.52671443684895L343.24566171874994,51.757516357421885L343.36794374999994,49.164260742187494L344.22391796874996,54.310887532552066L345.69130234374995,50.61175911458335L345.874725390625,53.242935628255225L345.99700742187497,50.725859293619784L346.11928945312496,54.13671525065103L346.3027124999999,54.139016276041666L346.5472765625,51.414786295572924L346.730699609375,55.682022542317725L347.89237890625,54.62164868164063L349.23748125,53.08514664713543L349.54318632812493,50.890336588541686L351.255134765625,52.661819335937494L351.4385578125,51.174099039713525L351.74426289062495,58.894591471354175L351.8054039062499,53.60462613932291L352.233391015625,48.806589355468745L352.355673046875,51.431292317708355L353.51735234374996,54.2508767903646L353.578493359375,57.08804109700521L353.823057421875,55.98296598307292L354.00648046874994,56.23144604492186L357.55265937499996,56.15388614908855L357.67494140624996,55.3415321451823L358.2863515625,59.14408398437499L358.83662070312494,52.65307543945314L360.85427421875,52.50633138020834L361.40454335937494,64.90532999674478L361.649107421875,63.01235310872396L362.015953515625,60.22921687825522L362.74964570312494,66.19427237955728L362.93306874999996,65.86154410807292L364.76729921875,59.9662556966146L365.31756835937495,57.52241333007814L365.68441445312493,49.81572705078124L367.57978593749993,65.21854557291668L367.70206796875,54.62726318359377L368.25233710937493,55.10486401367188L368.92488828124993,52.13967065429689L369.291734375,55.51892586263019L369.71972148437493,54.27118717447918L371.9819390624999,55.40022363281249L373.51046445312494,57.51646134440106L373.877310546875,52.581805013020855L374.24415664062496,55.20702954101564L374.42757968749993,53.31678320312499L375.77268203125,53.160743001302095L377.912617578125,56.69662133789062L378.58516875,51.21695947265626L379.50228398437497,51.99350952148437L380.725104296875,53.48730452473958L381.88678359375,50.372881998697906L382.0702066406249,54.50322257486978L382.25362968749994,51.057268310546874L382.55933476562495,55.800724772135425L386.28893671874994,50.42865885416668L386.594641796875,53.11404752604167L386.90034687499997,50.46265266927082L387.26719296874995,51.695787516276035L390.0185386718749,57.88615942382812L390.99679492187494,54.08112247721355L392.64760234374995,51.720914713541674L393.44243554687495,52.82298315429689L393.9315636718749,54.253085774739596L394.6041148437499,53.31776497395832L395.33780703124995,62.103417399088535L396.744050390625,57.415093505859375L397.11089648437496,53.34767830403647L398.945126953125,53.27913842773436L399.556537109375,49.996280843098944L399.80110117187496,52.08413924153646L401.3296265625,55.23442708333332L401.5741906249999,62.139742919921865L401.94103671874996,55.711015462239565L404.08097226562495,49.58326212565105L404.26439531249997,50.634984130859394L406.52661289062496,57.05349503580729L407.13802304687493,48.44790551757813L408.29970234374997,51.36204679361981L408.78883046874995,49.19395930989585L409.03339453125,48.679511393229184L409.1556765625,49.89334830729165L409.52252265625,48.21590079752603L410.072791796875,47.94962613932291L410.6230609375,49.2135947265625L411.47903515625,52.134424316406246L411.90702226562496,49.39954825846355L413.25212460937496,50.02064103190105L413.68011171874997,49.70500170898437L414.04695781249995,49.815450927734396L414.29152187499994,64.33691536458335L414.35266289062497,50.829436116536456L416.0034703125,49.24927596028645L416.186893359375,49.313766031901025L416.3703164062499,49.78783862304688L416.61488046874996,54.30097778320314L417.59313671875,51.27577368164064L417.71541874999997,48.74774446614581L417.89884179687493,51.81427498372394L417.95998281249996,50.966454508463535L418.4491109375,47.147243245442716L420.77246953124995,49.60203849283853L421.56730273437495,54.37249365234377L422.48441796875,50.72319010416666L423.646097265625,51.83446264648437L423.89066132812496,48.02841324869793L424.3186484375,50.95135978190106L424.868917578125,54.84497086588542L426.7642890625,53.61244962565104L427.4368402343749,49.16653108723958L429.39335273437496,50.89374210611979L430.86073710937495,44.342600097656245L432.02241640624993,48.85221101888021L432.8172496093749,52.920546630859384L432.87839062499995,55.11551009114583L433.36751875,52.1997120768229L433.4898007812499,52.463593668619794L436.05772343749993,46.58459651692707L436.3022875,46.44340559895835L436.54685156249997,49.76353979492187L437.21940273437497,45.58644238281251L437.28054375,46.71937524414061L437.40282578124993,47.54829663085939L437.46396679687496,46.859185546875004L439.420479296875,47.74600073242186L440.09303046875,41.78444278971356L440.2153125,43.61443294270832L440.52101757812494,42.01224430338542L440.64329960937494,49.231757486979184L441.31585078124994,43.76541088867186L441.74383789062495,43.21497493489585L442.53867109375,44.93543627929686L443.455786328125,41.52991870117186L444.00605546874993,41.49567944335937L444.18947851562496,44.01324666341145L446.02370898437493,51.20901326497394L447.42995234374996,46.274326253255225L447.49109335937493,47.04075179036458L447.67451640624995,51.76150480143228L447.79679843749994,50.46937166341147L448.0413625,53.67414778645835L448.4082085937499,49.77679370117189L450.12015703124996,53.86445792643227L450.60928515624994,56.438323567708316L452.01552851562496,337.9687532653809L452.56579765624997,51.32992447916667L452.62693867187494,50.9501632486979L455.194861328125,46.7869333496094L455.74513046874995,51.029686686197905L456.0508355468749,48.2931845703125L458.80218124999993,51.54855257161459L459.107886328125,48.78839591471356L459.1690273437499,49.2739736328125L459.841578515625,47.412474772135425L461.30896289062497,48.42179654947917L462.65406523437497,44.911812418619775L464.91628281249996,48.717125488281226L467.9121925781249,334.0500955200195L468.76816679687494,55.042521565755195L472.19206367187496,50.722054931640635L472.62005078125,51.59119824218749L473.9651531249999,49.127352294921884L474.14857617187494,53.56461897786459L474.27085820312493,45.43264184570311L474.33199921874996,50.16121834309898L475.7382425781249,43.67579361979168L476.22737070312496,46.97383797200522L478.85643437499994,46.69197770182293L480.93522890624996,48.41161067708335L481.73006210937496,41.40504972330728L481.9134851562499,47.68464005533854L485.9487921875,46.84470442708332L486.43792031249995,42.98303157552085L486.9270484375,46.85458349609374L487.9664457031249,48.79802954101564L488.51671484375,42.7016621907552L488.94470195312493,44.03564331054687L489.311548046875,43.85275781249999L489.67839414062496,55.32763395182294L491.8794707031249,46.183420410156245L492.368598828125,49.707977701822934L493.7748421875,44.28390861002605L493.8971242187499,50.74534130859374L493.958265234375,44.66673787434895L495.914777734375,42.78035725911458L496.0370597656249,48.820763671875L497.2598800781249,39.808997151692715L497.56558515624994,41.904065429687485L497.6878671875,44.431388997395835L497.8101492187499,48.36298234049478L499.3998156249999,44.50670922851562L501.66203320312496,42.33497078450521L502.02887929687495,39.40564274088541L502.640289453125,41.56587605794269L502.8848535156249,40.60042716471356L503.985391796875,42.71209350585936L506.18646835937494,47.318132731119796L506.308750390625,44.17993294270834L506.73673749999995,41.38228491210937L507.2258656249999,42.23725390625002L507.287006640625,40.9512568359375L507.4704296875,38.575064615885424L509.1823781249999,48.63790885416666L509.4269421875,43.8079951985677L509.54922421874994,44.27053198242188L510.34405742187494,42.43879305013022L511.01660859375,47.975121500651035L511.07774960937496,44.33882641601561L511.3834546875,42.29201831054687L511.68915976562494,43.474223795572925L513.95137734375,39.041190999348956L515.0519156249999,41.757321370442725L516.2135949218749,41.42683276367187L516.580441015625,38.9988828125L517.1918511718749,39.68357592773436L518.047825390625,44.16235310872394L519.1483636718749,43.84551725260419L519.33178671875,43.44977156575522L521.41058125,125.95033707682292L521.594004296875,46.000811035156254L522.1442734374999,42.79401000976564L522.51111953125,41.53028686523439L522.816824609375,41.868353515624996L523.6116578125,38.89300496419269L523.917362890625,40.70486303710936L524.8956191406251,44.86505558268229L525.20132421875,46.447394042968746L525.507029296875,40.2448113606771L525.751593359375,42.85748763020835L526.7298496093749,43.46952970377606L528.8086441406249,46.5228983561198L530.276028515625,48.46057649739583L532.4159640624999,48.48140844726563L532.8439511718749,42.93974161783853L533.14965625,43.51515136718752L533.3942203125,43.019786621093765L533.7610664062499,43.88119848632813L534.0056304687499,46.26607324218751L534.98388671875,48.562097737630204L535.6564378906249,47.882037353515614L536.573553125,43.58590022786458L537.123822265625,42.55280118815105L538.16321953125,42.66907967122397L539.3248988281249,42.440235026041684L540.303155078125,43.17650179036459L540.60886015625,46.76018009440105L540.7311421874999,43.5408614908854L541.09798828125,46.21130883789061L541.648257421875,39.20174121093751L542.6265136718749,41.26079077148436L545.0110132812499,42.283213053385424L545.1332953125,45.47289444986977L545.3167183593749,43.752279703776026L545.98926953125,43.71018627929686L546.4172566406249,41.522923583984394L548.7406152343749,39.988262369791656L549.718871484375,39.81485709635415L550.0245765625,43.82698632812501L550.1468585937499,37.77961547851564L551.36967890625,40.692007975260424L552.0422300781249,42.156687337239596L552.9593453125,41.70016389973959L553.57075546875,47.06882430013019L555.588408984375,44.77083626302085L557.422639453125,40.774384684244794L557.6060624999999,42.27462255859376L557.9729085937499,41.91971240234374L560.2962671874999,43.06881380208333L561.0911003906249,40.96773217773438L561.15224140625,39.82881665039061L561.2745234375,41.91808634440104L561.6413695312499,44.22263997395834L561.824792578125,39.99280305989583L562.925330859375,42.011968180338535L564.0258691406249,41.29156315104168L565.4932535156249,40.392445149739586L565.7378175781249,42.1424209798177L566.471509765625,39.52560286458332L567.0217789062499,38.960716471354175L568.7337273437499,38.65673567708332L569.1005734375,38.27249511718752L570.69023984375,39.51366821289061L570.93480390625,41.32954541015626L571.0570859374999,41.04477050781251L571.8519191406249,40.15338395182293L572.15762421875,40.059594156901035L572.707893359375,38.271789469401035L573.8084316406249,39.14430761718749L575.764944140625,39.24239265950522L576.1929312499999,41.549584798177094L576.865482421875,43.36794710286458L576.9266234375,42.92256062825521L578.638571875,38.975657796223956L578.8831359374999,41.32733642578127L579.00541796875,39.56478165690106L579.7391101562499,42.01764404296877L581.20649453125,39.49860416666668L581.9401867187499,42.01396240234373L582.4293148437499,39.253836425781245L582.7961609375,39.49581225585936L583.4687121093749,41.79668424479166L583.957840234375,45.357720458984375L584.080122265625,40.517344807942706L584.4469683593749,39.20459448242188L586.525762890625,41.75943831380207L586.9537499999999,40.57186376953126L587.07603203125,44.03466153971355L587.1983140624999,39.72066845703126L587.3817371093749,45.50866772460936L589.27710859375,42.83662499999999L589.3382496093749,53.287145996093734L589.6439546874999,56.20542911783854L590.6222109375,58.02234944661457L590.6833519531249,56.9114757486979L594.351812890625,52.5714657389323L594.718658984375,50.200121012369785L594.90208203125,46.80844026692709L596.4917484375,47.40624666341146L596.7974535156249,48.68442024739585L598.81510703125,43.39669458007812L598.8762480468749,44.55337402343749L600.4659144531249,42.57504443359373L601.5053117187499,44.553251302083346L601.74987578125,46.1163838704427L602.2390039062499,44.84397819010418L602.544708984375,42.41326700846355L602.6058499999999,44.08792260742189L602.97269609375,53.587905354817686L604.1955164062499,43.946271484374996L604.9903496093749,45.73422957356769L605.357195703125,41.32340934244793L606.8857210937499,45.5585232747396L607.069144140625,49.00877278645834L610.55418203125,45.81283260091146L612.9998226562499,46.40250870768231L613.183245703125,47.69863028971355L613.2443867187499,47.69301578776041L613.3666687499999,46.481817382812515L614.2226429687499,46.9214052734375L614.7117710937499,48.14837337239584L616.1180144531249,45.92392610677083L616.1791554687499,45.88232356770835L617.27969375,43.928875732421886L618.86936015625,45.81409049479168L620.0921804687499,51.85517187499998L620.2144625,47.00875219726563L621.376141796875,47.82678206380208L621.4372828124999,43.642597493489575L623.14923125,46.125680013020826L623.6383593749999,44.299586263020814L623.699500390625,43.85849503580727L624.6166156249999,45.97838370768229L625.4114488281249,46.92057690429687L625.4725898437499,52.44438777669269L627.001115234375,46.73014404296875L628.3462175781249,49.00855802408854L628.7130636718749,39.3387596028646L628.8964867187499,47.24566577148439L628.957627734375,42.871079020182314L629.202191796875,53.79159212239583L629.5078968749999,42.87163126627605L629.8136019531249,40.394255289713534L632.7483707031249,45.685662597656254L632.93179375,44.626761393229174L633.6043449218749,43.353220540364596L634.460319140625,45.08825504557293L635.6831394531249,42.26431396484376L636.5391136718749,44.64523095703125L636.84481875,46.58017854817709L639.351600390625,43.51355598958332L639.596164453125,350.9421702728271L641.430394921875,43.021412679036466L642.225228125,42.778056233723945L643.264625390625,44.980689778645825L643.8148945312499,43.733503336588555L644.9154328125,43.09691699218749L645.28227890625,42.676105468750016L645.832548046875,44.698154541015604L648.155906640625,41.32405362955727L648.46161171875,43.33969051106772L649.1953039062499,39.90269490559896L649.3175859374999,40.811047688802105L649.378726953125,41.705594319661444L649.7455730468749,38.73162638346355L651.702085546875,40.06677335611978L651.946649609375,40.9422674967448L653.84202109375,40.593401367187504L654.2088671874999,40.569961588541666L655.0037003906249,42.938238281250015L655.3094054687499,42.56590169270834L655.6762515624999,40.57775439453125L656.8990718749999,41.420359212239596L657.3882,39.97850602213543L657.5104820312499,39.125531250000016L658.8555843749999,49.475604817708344L658.97786640625,42.877429850260434L659.5892765625,47.198786214192715L660.261827734375,53.21872884114582L661.5457890624999,52.80936108398438L661.729212109375,47.43551570638022L662.3406222656249,61.818243652343746L664.297134765625,354.91481390889487L664.6028398437498,352.8549935048421L665.030826953125,53.284875651041645L665.703378125,52.62534041341147L666.0702242187499,54.434805419921865L667.4764675781249,43.64891764322915L667.7210316406249,43.7458368326823L668.8827109375,46.72471362304686L670.4723773437499,44.28222119140625L670.7169414062499,43.84039363606769L671.2672105468749,44.61942879231773L671.6340566406249,41.94483959960938L671.93976171875,40.27300659179686L672.91801796875,63.90067163085937L674.5688253906249,45.78586458333333L675.5470816406249,45.36990055338543L676.0973507812499,44.235587076822924L676.5253378906249,46.74649666341144L676.8310429687499,43.51601041666665L679.704670703125,42.076703694661454L679.949234765625,47.70148356119792L681.8446062499999,51.33529353841146L682.5782984374999,47.23867065429689L684.1679648437499,343.193208404541L684.3513878906249,361.79250497690833L684.7793749999998,350.30469036356607L684.9627980468749,349.10612075297036L685.2685031249999,264.7699563395182L685.5130671874999,347.48565621948245L686.0633363281249,86.47336254882812L686.12447734375,93.59095564778647L686.36904140625,276.8609550374349L686.8581695312499,292.80285778808593L687.9587078124999,60.73295735677085L688.019848828125,59.48365397135419L690.3432074218749,57.0582811686198L691.076899609375,52.269663248697924L691.1991816406249,50.76289046223958L691.6271687499999,47.69528613281249L692.2385789062499,50.95991959635417L692.299719921875,50.8706398111979L692.5442839843749,61.7896188964844L692.911130078125,51.628781656901026L693.094553125,52.03511206054689L693.644822265625,49.9836405436198L694.0728093749999,64.2589259440104L694.500796484375,51.35425398763023L694.8676425781249,52.09521484375L694.9287835937499,52.26233064778648L695.2956296875,49.96891398111981L695.601334765625,47.65325406901042L696.212744921875,47.51534594726562L696.8241550781249,45.31323396809898L697.191001171875,46.01455582682292L698.1081164062499,47.51148022460938L699.33093671875,48.53847387695312L699.5143597656249,51.86744401041668L699.6366417968749,51.22303417968749L700.4314749999999,51.24294571940103L701.28744921875,48.196449462890634L701.4097312499999,52.23554671223958L702.3879874999999,53.75367122395835L702.449128515625,50.768474283854175L702.51026953125,50.7021433919271L704.3444999999999,50.15756738281249L705.4450382812499,55.51650211588541L705.9953074218749,48.64235750325519L706.5455765624998,45.70508325195311L707.15698671875,50.23702945963544L707.4626917968749,46.794756835937484L708.8077941406249,45.22456778971353L709.296922265625,46.01243888346353L709.6637683593749,46.680932779947895L710.4586015624999,46.16311002604167L712.476255078125,49.249950927734375L713.3933703124999,45.965037760416664L713.5767933593748,48.6774864908854L713.637934375,47.82985009765624L713.821357421875,45.31921663411456L714.3716265624998,42.044243896484375L714.616190625,46.27257747395833L714.8607546874999,45.77923763020832L715.594446875,43.57141910807293L715.6555878906249,41.85807560221353L716.0835749999999,39.785741455078124L717.5509593749999,43.0220262858073L717.6732414062499,43.07185115559895L718.5903566406249,51.769635091145844L718.65149765625,48.22317203776043L719.7520359375,48.21062377929688L720.7302921874999,45.391376790364575L721.34170234375,47.9214922688802L722.258817578125,47.73768636067709L722.9313687499999,46.69071980794271L723.7262019531249,49.52263777669272L724.5210351562499,45.38493391927085L725.560432421875,46.61601318359373L725.98841953125,46.07045540364584L727.2112398437499,48.39623982747394L727.6392269531249,47.55937223307293L727.82265,46.63202832031248L728.5563421874999,47.83491235351564L728.617483203125,43.58353784179689L730.5128546875,45.89548543294273L730.573995703125,44.967282470703104L730.6351367187499,46.79193424479166L731.246546875,48.77152172851564L732.041380078125,51.276970214843764L732.4082261718748,50.377207926432284L732.8973542968749,46.89710644531249L733.264200390625,46.88560131835936L737.544071484375,49.89451416015626L739.1948789062499,52.670685953776044L741.090250390625,52.7607020670573L741.334814453125,51.42914469401042L741.3959554687499,46.452302897135404L742.12964765625,47.2009951985677L745.2478394531249,51.71677286783854L745.370121484375,47.550597656249984L746.40951875,47.663869466145826L746.8375058593749,48.18844189453126L747.448916015625,47.54099471028645L750.139120703125,50.99265551757814L750.505966796875,50.66643147786456L750.8116718749999,51.10819767252603L751.7899281249998,47.193723958333315L752.217915234375,47.57529532877603L754.23556875,44.87321655273436L754.60241484375,43.31124983723958L754.785837890625,42.382494628906265L754.8469789062499,41.20338785807292L756.6812093749999,46.924964192708345L757.8428886718749,48.73458260091148L758.3931578124999,57.247670898437505L759.0657089843749,48.80269295247396L760.899939453125,48.123491617838546L761.266785546875,48.886480957031246L761.3279265624999,51.371404296875L761.6947726562499,51.9730764160156L764.3238363281249,51.201128417968754L765.36323359375,55.89727579752605L766.7694769531249,51.25975854492185L767.380887109375,57.23950992838543L767.9922972656249,47.10413736979169L768.725989453125,48.833250569661445L769.2151175781249,46.41361499023439L770.1322328125,55.9359637044271L771.23277109375,57.0886240234375L772.3944503906249,53.60502498372395L773.0058605468749,56.90570784505206L773.1281425781249,57.98071622721354L776.918885546875,53.6934763997396L777.5302957031249,59.35360001627606L777.9582828125,50.86161979166665L778.2639878906249,51.5445948079427L779.2422441406248,53.184397542317726L779.6702312499999,56.36238972981771L779.7313722656249,56.74190551757814L780.4650644531249,56.13495638020834L780.831910546875,56.13023160807292L782.3604359374999,59.59045222981772L783.1552691406249,48.595907470703146L783.8889613281249,53.52743440755209L785.17292265625,52.49672843424481L787.1905761718749,52.96380590820311L788.5356785156249,50.86649796549481L788.7802425781249,48.32211612955729L789.2082296874999,47.58400854492188L790.06420390625,50.56727262369791L792.815549609375,45.37296858723959L793.36581875,49.25737556966146L794.160651953125,56.10633162434895L796.17830546875,55.38138590494792L796.2394464843749,52.99181705729167L796.5451515625,48.78996061197917L797.0342796874999,48.701693277994806L798.13481796875,60.849143798828116L798.8073691406249,58.50547273763022L800.5804585937499,58.70922086588541L802.0478429687499,50.301120686848975L802.4146890625,50.84851928710937L802.4758300781249,54.776461669921865L802.8426761718749,50.776696614583344L802.9649582031249,52.64942447916665L804.554624609375,47.47463313802083L805.2271757812499,48.80134301757814L807.550534375,51.48897135416667L807.7950984374999,48.61351798502605L808.1619445312499,50.59289070638019L808.5899316406249,53.4157579752604L808.65107265625,48.209519287109366L809.3847648437498,47.24999169921877L810.485303125,48.3481944173177L812.1972515625,48.79351953125001L812.869802734375,47.9038817545573L814.214905078125,51.46212605794269L815.00973828125,52.906065511067695L815.0708792968749,50.72119588216146L815.560007421875,48.55105281575521L816.2936996093749,49.52533764648439L817.0885328124999,47.91704361979168L818.9227632812499,48.28566788736981L819.5341734374999,46.16906201171875L819.7175964843749,46.52243815104167L819.839878515625,51.18311905924481L820.6347117187499,49.63118481445311L821.9186730468749,49.016504231770824L822.2243781249999,46.3690057779948L822.3466601562499,46.815097900390604L822.83578828125,50.57742781575522L823.0192113281249,50.32305712890626L823.1414933593749,51.38830916341147L823.386057421875,51.96822892252604L824.6700187499999,50.09470336914061L824.79230078125,51.451142496744794L825.587133984375,50.599885823567696L826.9933773437499,53.486292073567704L827.0545183593749,45.962491292317694L828.8276078124999,48.29545491536459L829.6835820312499,54.15055208333334L830.1727101562499,56.997656819661465L832.1903636718749,61.953912109375004L834.146876171875,54.25738102213542L837.0205039062499,51.805960611979174L837.3873499999999,49.54196638997397L838.4267472656248,57.14980061848957L839.832990625,48.03605265299481L840.6889648437499,45.662222819010424L841.0558109374999,49.04402449544269L841.42265703125,47.67687792968751L841.6060800781249,48.558692220052095L842.1563492187498,50.56730330403646L842.767759375,50.67775252278644L842.8900414062499,49.32468823242186L844.7854128906249,380.9044673697154L846.864207421875,380.8271287078857L847.842463671875,119.94212967936197L848.3927328124998,69.76889998372395L848.7595789062499,57.774145507812484L849.0652839843749,56.3062140299479L850.9606554687499,53.10149926757813L851.0217964843749,51.4455586751302L851.3275015624998,55.99094287109375L852.3668988281249,59.502522379557305L853.222873046875,56.199385091145814L853.2840140624999,56.7113172200521L854.13998828125,52.951993977864596L854.2622703124999,55.14701879882814L854.567975390625,55.68775976562502L855.6685136718748,56.876929687500024L856.7079109375,54.87055826822915L857.07475703125,54.907221272786465L857.6250261718749,51.441938395182305L858.8478464843749,47.206456298828144L859.459256640625,50.20895694986979L859.826102734375,52.04667854817707L860.1318078124999,48.91246720377605L860.6209359375,52.15433585611978L863.6779867187499,51.12853873697916L864.2282558593749,48.523471191406244L865.5122171874999,47.045507242838546L866.2459093749999,52.39907291666667L866.673896484375,46.784939127604154L866.9184605468749,50.205060546874996L868.81383203125,46.34173095703123L870.3423574218749,362.55839744313556L870.5257804687499,364.0602997258504L871.01490859375,376.1290684212049L871.9931648437499,377.507167148749L883.6099578124999,377.5259665261905L885.0773421875,346.61397794596354L885.1996242187499,370.7043710416158L885.32190625,372.59845146306355L887.8898289062499,362.31059618377685L888.806944140625,356.09060336812337L889.84634140625,360.2302765197754L890.3354695312498,353.6759399210612L892.7199691406249,336.3785951538086L895.2267507812498,350.2806178029378L895.5935968749999,355.718548655192L895.8993019531249,293.75387158203125L896.1438660156249,289.79830155436196L897.4889683593749,111.13750146484375L897.91695546875,72.0661210123698L899.2620578125,66.30469091796876L900.4237371093749,69.61246093750002L903.2973648437498,59.263062337239575" style="fill: none;" fill="none"></path></g></g></g></g></g><g><g opacity="0.319424"><span fill="rgb(0, 0, 0)" stroke="none" stroke-width="1px">Alt + Scroll to Zoom</span></g></g></g><g transform="translate(72, 377)" clip-path="url(#clip_1)"><clipPath id="clip_1"><rect width="978" height="23"></rect></clipPath><g><g><line x1="0" y1="0" x2="0" y2="5" style="visibility: inherit;" fill="rgb(0, 0, 0)" stroke="rgb(204, 204, 204)" stroke-width="1px"></line><line x1="122.28203124999999" y1="0" x2="122.28203124999999" y2="5" style="visibility: inherit;" fill="rgb(0, 0, 0)" stroke="rgb(204, 204, 204)" stroke-width="1px"></line><line x1="244.56406249999998" y1="0" x2="244.56406249999998" y2="5" style="visibility: inherit;" fill="rgb(0, 0, 0)" stroke="rgb(204, 204, 204)" stroke-width="1px"></line><line x1="366.84609374999997" y1="0" x2="366.84609374999997" y2="5" style="visibility: inherit;" fill="rgb(0, 0, 0)" stroke="rgb(204, 204, 204)" stroke-width="1px"></line><line x1="489.12812499999995" y1="0" x2="489.12812499999995" y2="5" style="visibility: inherit;" fill="rgb(0, 0, 0)" stroke="rgb(204, 204, 204)" stroke-width="1px"></line><line x1="611.41015625" y1="0" x2="611.41015625" y2="5" style="visibility: inherit;" fill="rgb(0, 0, 0)" stroke="rgb(204, 204, 204)" stroke-width="1px"></line><line x1="733.6921874999999" y1="0" x2="733.6921874999999" y2="5" style="visibility: inherit;" fill="rgb(0, 0, 0)" stroke="rgb(204, 204, 204)" stroke-width="1px"></line><line x1="855.9742187499999" y1="0" x2="855.9742187499999" y2="5" style="visibility: inherit;" fill="rgb(0, 0, 0)" stroke="rgb(204, 204, 204)" stroke-width="1px"></line><line x1="978.2562499999999" y1="0" x2="978.2562499999999" y2="5" style="visibility: inherit;" fill="rgb(0, 0, 0)" stroke="rgb(204, 204, 204)" stroke-width="1px"></line></g><g transform="translate(0, 8)"><text x="0" y="0" dx="0em" dy="0.95em" style="text-anchor: middle; visibility: hidden; font-family: Roboto, sans-serif; font-size: 12px; font-weight: 200;" fill="rgb(33, 33, 33)" stroke="none" stroke-width="1px">-2k</text><text x="122.28203124999999" y="0" dx="0em" dy="0.95em" style="text-anchor: middle; visibility: inherit; font-family: Roboto, sans-serif; font-size: 12px; font-weight: 200;" fill="rgb(33, 33, 33)" stroke="none" stroke-width="1px">0</text><text x="244.56406249999998" y="0" dx="0em" dy="0.95em" style="text-anchor: middle; visibility: inherit; font-family: Roboto, sans-serif; font-size: 12px; font-weight: 200;" fill="rgb(33, 33, 33)" stroke="none" stroke-width="1px">2k</text><text x="366.84609374999997" y="0" dx="0em" dy="0.95em" style="text-anchor: middle; visibility: inherit; font-family: Roboto, sans-serif; font-size: 12px; font-weight: 200;" fill="rgb(33, 33, 33)" stroke="none" stroke-width="1px">4k</text><text x="489.12812499999995" y="0" dx="0em" dy="0.95em" style="text-anchor: middle; visibility: inherit; font-family: Roboto, sans-serif; font-size: 12px; font-weight: 200;" fill="rgb(33, 33, 33)" stroke="none" stroke-width="1px">6k</text><text x="611.41015625" y="0" dx="0em" dy="0.95em" style="text-anchor: middle; visibility: inherit; font-family: Roboto, sans-serif; font-size: 12px; font-weight: 200;" fill="rgb(33, 33, 33)" stroke="none" stroke-width="1px">8k</text><text x="733.6921874999999" y="0" dx="0em" dy="0.95em" style="text-anchor: middle; visibility: inherit; font-family: Roboto, sans-serif; font-size: 12px; font-weight: 200;" fill="rgb(33, 33, 33)" stroke="none" stroke-width="1px">10k</text><text x="855.9742187499999" y="0" dx="0em" dy="0.95em" style="text-anchor: middle; visibility: inherit; font-family: Roboto, sans-serif; font-size: 12px; font-weight: 200;" fill="rgb(33, 33, 33)" stroke="none" stroke-width="1px">12k</text><text x="978.2562499999999" y="0" dx="0em" dy="0.95em" style="text-anchor: middle; visibility: hidden; font-family: Roboto, sans-serif; font-size: 12px; font-weight: 200;" fill="rgb(33, 33, 33)" stroke="none" stroke-width="1px">14k</text></g><line x1="0" y1="0" x2="978.2562499999999" y2="0" fill="rgb(0, 0, 0)" stroke="rgb(204, 204, 204)" stroke-width="1px"></line></g></g></g></g></svg>